<?xml version="1.0" standalone="no"?>
<!DOCTYPE svg PUBLIC "-//W3C//DTD SVG 1.1//EN" "http://www.w3.org/Graphics/SVG/1.1/DTD/svg11.dtd" >
<svg xmlns="http://www.w3.org/2000/svg" xmlns:xlink="http://www.w3.org/1999/xlink" version="1.1">
<metadata>
Created by FontForge 20170731 at Sun Apr  9 20:16:29 2023
 By Aleksey,,,
Copyright (c) 2017, Owen Earl,,, (EwonRael@yahoo.com)
</metadata>
<defs>
<font id="Bodoni-72-Book" horiz-adv-x="1136" >
  <font-face 
    font-family="Bodoni* 72"
    font-weight="400"
    font-stretch="normal"
    units-per-em="2048"
    panose-1="0 0 0 0 0 0 0 0 0 0"
    ascent="1638"
    descent="-410"
    x-height="942"
    cap-height="1536"
    bbox="-182 -676 3922 2048"
    underline-thickness="102"
    underline-position="-307"
    unicode-range="U+0020-FB04"
  />
<missing-glyph horiz-adv-x="1024" 
d="M102 -410v2048h820v-2048h-820zM205 -307h614v1843h-614v-1843z" />
    <glyph glyph-name="uniFB00" unicode="ff" horiz-adv-x="1290" 
d="M31 6h184v930h-184v6h184v4q0 134 54.5 249.5t157.5 187t232 71.5q130 0 215 -92q51 91 134.5 142.5t193.5 51.5q117 0 184.5 -61.5t67.5 -140.5q0 -60 -34 -93.5t-83 -33.5q-43 0 -78.5 30t-35.5 84q0 55 34 83t84 28q36 0 64.5 -20.5t40.5 -59.5q-7 72 -69.5 125
t-174.5 53q-219 0 -219 -444v-164h277v-6h-277v-930h236v-6h-1188v6zM399 1004v-62h400v107q0 39 2 57q-40 3 -70.5 33t-30.5 80q0 55 34.5 82.5t84.5 27.5q20 0 35 -6q15 30 18 35q-79 90 -213 90q-121 0 -190.5 -122.5t-69.5 -321.5zM399 6h400v930h-400v-930z" />
    <glyph glyph-name="uniFB01" unicode="fi" 
d="M31 6h184v930h-184v6h184v107q0 102 30 192.5t86.5 161t146.5 112t202 41.5q146 0 219.5 -63.5t73.5 -159.5q0 -60 -34 -93.5t-83 -33.5q-45 0 -80 30t-35 81q0 53 35 84t84 31q42 0 71 -24.5t32 -55.5q-3 84 -73 141t-210 57q-82 0 -138.5 -32t-87 -94t-43 -138
t-12.5 -180v-164h564v-936h143v-6h-1075v6zM778 936h-379v-930h379v930z" />
    <glyph glyph-name="uniFB02" unicode="fl" horiz-adv-x="1157" 
d="M31 6h184v930h-184v6h184v107q0 136 49.5 250t147.5 185.5t227 71.5q112 0 180 -61l185 82v-1571h143v-6h-1116v6zM676 936h-277v-930h420v1208q-19 -8 -45 -8q-45 0 -80 27.5t-35 83.5q0 58 36 86.5t93 28.5q17 0 31 -7v62q-66 63 -180 63q-60 0 -103 -22t-69 -58.5
t-41.5 -95.5t-21 -121.5t-5.5 -146.5v-164h277v-6z" />
    <glyph glyph-name="uniFB03" unicode="ffi" horiz-adv-x="1720" 
d="M31 6h184v930h-184v6h184v4q0 99 32.5 191.5t89.5 162.5t141 112t181 42q70 0 127.5 -27.5t94.5 -72.5q59 94 156.5 148t226.5 54q146 0 219 -63.5t73 -159.5q0 -60 -33.5 -93.5t-82.5 -33.5q-45 0 -80 30t-35 81q0 53 35 84t84 31q42 0 70.5 -24.5t31.5 -55.5
q-3 84 -72.5 141t-209.5 57q-82 0 -138.5 -32t-87 -94t-43 -138t-12.5 -180v-164h563v-936h144v-6h-1659v6zM799 1049q0 37 2 55q-40 5 -70.5 35t-30.5 80q0 55 34.5 82.5t84.5 27.5q24 0 43 -8q5 14 17 29q-80 98 -220 98q-121 0 -190.5 -122.5t-69.5 -321.5v-62h400v107z
M399 6h400v930h-400v-930zM1362 936h-379v-930h379v930z" />
    <glyph glyph-name="uniFB04" unicode="ffl" horiz-adv-x="1761" 
d="M31 6h184v930h-184v6h184v4q0 134 54.5 249.5t157.5 187t232 71.5q136 0 220 -98q56 94 144 147t200 53t180 -61l184 82v-1571h144v-6h-1700v6zM1260 936h-277v-930h420v1208q-19 -8 -45 -8q-45 0 -80 27.5t-35 83.5q0 58 36 86.5t93 28.5q17 0 31 -7v62q-66 63 -180 63
q-60 0 -103 -22t-69 -58.5t-41.5 -95.5t-21 -121.5t-5.5 -146.5v-164h277v-6zM399 1004v-62h400v107q0 37 2 55q-40 5 -70.5 35t-30.5 80q0 55 34.5 82.5t84.5 27.5q25 0 41 -8q2 6 17 31q-82 96 -218 96q-121 0 -190.5 -122.5t-69.5 -321.5zM399 6h400v930h-400v-930z" />
    <glyph glyph-name="fj.lig" unicode="fj" horiz-adv-x="1116" 
d="M31 6h184v930h-184v6h184v107q0 103 27 192.5t79.5 161t139.5 112.5t198 41q146 0 219.5 -63.5t73.5 -159.5q0 -60 -33.5 -93.5t-82.5 -33.5q-45 0 -80 27.5t-35 83.5q0 57 36 86t83 29q42 0 67.5 -23.5t34.5 -56.5q0 36 -15 69.5t-46.5 63t-89 47.5t-132.5 18t-127 -32
t-80.5 -93.5t-40.5 -138.5t-12 -180v-164h543v-967q0 -87 -7.5 -156.5t-29 -137t-56.5 -113t-93 -73t-135 -27.5q-119 0 -185.5 65t-66.5 158q0 60 33.5 93.5t82.5 33.5q45 0 80 -27.5t35 -83.5q0 -58 -36 -86.5t-93 -28.5q-33 0 -62 25t-32 55q6 -84 69.5 -140t163.5 -56
q30 0 53.5 10t39.5 31.5t27 46.5t17.5 62.5t9.5 71t3.5 82t0 84.5t-1.5 89.5t-1 87.5v895h-359v-930h195v-6h-563v6z" />
    <glyph glyph-name=".notdef" horiz-adv-x="1024" 
d="M102 -410v2048h820v-2048h-820zM205 -307h614v1843h-614v-1843z" />
    <glyph glyph-name=".null" horiz-adv-x="0" 
 />
    <glyph glyph-name="nonmarkingreturn" horiz-adv-x="682" 
 />
    <glyph glyph-name="space" unicode=" " horiz-adv-x="512" 
 />
    <glyph glyph-name="exclam" unicode="!" horiz-adv-x="655" 
d="M446 1350q-11 -166 -64.5 -463.5t-53.5 -460.5h-4q0 163 -54 460.5t-65 463.5v39q0 78 27 120.5t94 42.5q68 0 95.5 -43t27.5 -120q0 -6 -1.5 -19t-1.5 -20zM205 102q0 51 36 87t87 36t87 -36t36 -87t-36 -86.5t-87 -35.5t-87 35.5t-36 86.5z" />
    <glyph glyph-name="quotedbl" unicode="&#x22;" horiz-adv-x="757" 
d="M653 1395q-7 -49 -24.5 -95t-33 -76.5t-28 -89t-12.5 -135.5h-4q0 77 -12.5 135.5t-28 89t-33 76.5t-24.5 95q-2 14 -2 37q0 59 28 91.5t74 32.5t74 -32.5t28 -91.5q0 -23 -2 -37zM305 1395q-7 -49 -24.5 -95t-33 -76.5t-28 -89t-12.5 -135.5h-4q0 77 -12.5 135.5t-28 89
t-33.5 76.5t-25 95q-2 14 -2 37q0 58 28.5 91t74.5 33t74 -32.5t28 -91.5q0 -23 -2 -37z" />
    <glyph glyph-name="numbersign" unicode="#" horiz-adv-x="1290" 
d="M61 514h345l69 539h-352v6h354l64 487h6l-64 -487h381l64 485l6 2l-64 -487h359v-6h-361l-69 -539h368v-6h-370l-68 -518l-6 -2l68 520h-381l-68 -518h-6l67 518h-342v6zM412 514h381l69 539h-381z" />
    <glyph glyph-name="dollar" unicode="$" 
d="M1008 1247q-3 116 -101.5 202t-251.5 99v-647q71 -31 119.5 -55.5t106 -66.5t92 -87.5t58.5 -113t24 -148.5q0 -189 -108.5 -309.5t-291.5 -145.5v-139h-6v139q-43 -6 -86 -6q-30 0 -88 4v-137h-6v137q-104 11 -185.5 46t-128.5 82.5t-70.5 97.5t-23.5 98q0 72 39 120
t105 48q51 0 91 -36t40 -99q0 -59 -41 -96t-96 -37q-40 0 -77 23.5t-52 49.5q4 -31 18.5 -64t46 -70.5t75 -68t111 -54.5t148.5 -33v747q-61 28 -106 53t-93 63.5t-78 80.5t-49.5 102t-19.5 131q0 143 98 245.5t248 137.5v160h6v-158q60 14 133 14q27 0 41 -2v146h6v-146
q158 -13 258.5 -104t100.5 -211q0 -73 -39 -120.5t-105 -47.5q-51 0 -91 36t-40 99q0 59 41.5 96t96.5 37q44 0 82 -28.5t49 -63.5zM608 1550q-72 0 -133 -22v-547q26 -14 174 -76v643q-14 2 -41 2zM266 1239q0 -87 52.5 -146.5t150.5 -107.5v541q-96 -34 -149.5 -113
t-53.5 -174zM563 -25q25 0 86 9v663q-34 17 -174 76v-743q67 -5 88 -5zM911 338q0 58 -19 105t-57 84t-79.5 63t-100.5 55v-659q120 29 188 125t68 227z" />
    <glyph glyph-name="percent" unicode="%" horiz-adv-x="2048" 
d="M72 1106q0 213 114.5 331.5t294.5 118.5t295 -118.5t115 -331.5q0 -105 -37 -193t-97 -143t-131.5 -85t-144.5 -30q-180 0 -294.5 119t-114.5 332zM297 1106q0 -444 184 -444q185 0 185 444t-185 444q-184 0 -184 -444zM1559 1536h8l-1078 -1536h-8zM1157 430
q0 213 115 332t295 119t294.5 -119t114.5 -332q0 -105 -37 -193t-96.5 -142.5t-131 -84.5t-144.5 -30q-180 0 -295 118.5t-115 331.5zM1382 430q0 -444 185 -444q184 0 184 444t-184 444q-185 0 -185 -444z" />
    <glyph glyph-name="ampersand" unicode="&#x26;" horiz-adv-x="1646" 
d="M1114 942h492v-6h-215q-18 -173 -86 -344.5t-175 -306.5l183 -279h262v-6h-479l-101 147q-201 -167 -444 -167q-210 0 -339.5 102.5t-129.5 286.5q0 37 7.5 70.5t18.5 61t32 55t39.5 47.5t50 43t54.5 38t61.5 35.5t63 33t67.5 33.5t67 33l-125 185q-41 60 -67.5 129
t-26.5 122q0 136 115 218.5t296 82.5q166 0 273.5 -77t107.5 -199q0 -36 -6 -67.5t-21 -58t-29.5 -48t-41.5 -42.5t-47.5 -35.5t-56.5 -32.5t-59 -29t-65 -30t-65 -30l401 -614q105 131 172.5 302t85.5 341h-270v6zM664 1004l57 -89q50 31 82 58.5t62.5 70.5t44.5 103.5
t14 142.5q0 41 -8.5 82t-28 83t-59 68.5t-93.5 26.5q-57 0 -99.5 -21.5t-66 -57.5t-34.5 -76t-11 -84q0 -99 140 -307zM307 389q0 -146 93 -256t233 -110q189 0 358 133l-444 655q-114 -75 -177 -173.5t-63 -248.5z" />
    <glyph glyph-name="quotesingle" unicode="'" horiz-adv-x="409" 
d="M305 1395q-7 -49 -24.5 -95t-33 -76.5t-28 -89t-12.5 -135.5h-4q0 77 -12.5 135.5t-28 89t-33.5 76.5t-25 95q-2 14 -2 37q0 58 28.5 91t74.5 33t74 -32.5t28 -91.5q0 -23 -2 -37z" />
    <glyph glyph-name="parenleft" unicode="(" horiz-adv-x="741" 
d="M705 -342l-3 -6q-254 109 -411.5 385t-157.5 629q0 349 155.5 605.5t413.5 366.5l3 -6q-182 -118 -279.5 -386t-97.5 -580q0 -204 40 -399t127.5 -362.5t209.5 -246.5z" />
    <glyph glyph-name="parenright" unicode=")" horiz-adv-x="741" 
d="M37 1632l2 6q254 -109 411.5 -384.5t157.5 -628.5q0 -349 -155.5 -606t-413.5 -367l-2 6q122 79 209.5 235.5t127.5 343t40 388.5q0 204 -40 399t-127.5 362t-209.5 246z" />
    <glyph glyph-name="asterisk" unicode="*" horiz-adv-x="1300" 
d="M549 670q7 49 24.5 94.5t33 76t28 88.5t12.5 134q-66 -38 -110 -77.5t-62.5 -68.5t-49 -66.5t-69.5 -68.5q-9 -7 -30 -20q-53 -30 -95.5 -22.5t-64.5 48.5q-24 38 -9 79.5t66 70.5q22 14 33 18q46 18 94 25.5t82 9t90.5 19.5t122.5 57q-84 47 -148 62t-124 21t-115 28
q-12 3 -33 16q-51 29 -66 71t9 81q22 39 64.5 46.5t95.5 -22.5q3 -2 9 -5t11 -6t10 -7q39 -31 69.5 -69t49 -67t62 -68.5t108.5 -76.5q-1 75 -13.5 132t-27.5 87.5t-32.5 75.5t-24.5 94q-2 14 -2 37q0 59 28.5 92t73.5 33q46 0 74.5 -33t28.5 -92q0 -23 -2 -37
q-7 -49 -25 -94.5t-33.5 -76t-28 -88.5t-12.5 -134q66 38 110 77.5t62.5 68.5t49 66.5t69.5 68.5q6 5 31 20q53 30 95.5 22t64.5 -49q24 -38 9 -79t-67 -70q-23 -14 -33 -18q-46 -18 -94 -25.5t-82 -9t-90.5 -19.5t-122.5 -57q84 -47 148 -62t124 -21t115 -28q12 -3 33 -16
q51 -29 66 -71t-9 -81q-22 -39 -64 -46.5t-95 22.5q-3 2 -13.5 7.5t-17.5 10.5q-39 31 -69.5 69t-49 67t-62 68.5t-108.5 76.5q1 -75 13.5 -132t28 -87.5t33 -75.5t24.5 -94q2 -14 2 -37q0 -59 -28.5 -92t-74.5 -33q-45 0 -73.5 33t-28.5 92q0 23 2 37z" />
    <glyph glyph-name="plus" unicode="+" horiz-adv-x="1085" 
d="M541 225v420h-418v4h418v416h4v-416h418v-4h-418v-420h-4z" />
    <glyph glyph-name="comma" unicode="," horiz-adv-x="440" 
d="M82 100q0 51 39.5 86t97.5 35q64 0 103.5 -53t39.5 -160q0 -74 -31.5 -143.5t-98.5 -117.5t-154 -48v4q90 0 160 53.5t100 146t6 199.5q-10 -52 -45 -87t-88 -35q-63 0 -96 33t-33 87z" />
    <glyph glyph-name="hyphen" unicode="-" horiz-adv-x="737" 
d="M123 565h491v-4h-491v4z" />
    <glyph glyph-name="period" unicode="." horiz-adv-x="409" 
d="M82 102q0 51 36 87t87 36t87 -36t36 -87t-36 -86.5t-87 -35.5t-87 35.5t-36 86.5z" />
    <glyph glyph-name="slash" unicode="/" horiz-adv-x="1064" 
d="M977 1597h6l-895 -1904h-6z" />
    <glyph glyph-name="zero" unicode="0" horiz-adv-x="1269" 
d="M635 -20q-123 0 -227 62t-175 168.5t-111 250.5t-40 307q0 215 72.5 396t199.5 286.5t281 105.5t281 -105.5t199.5 -286.5t72.5 -396q0 -163 -40 -307t-111 -250.5t-175 -168.5t-227 -62zM635 1550q-62 0 -112 -31.5t-84 -89t-58.5 -130t-38 -163.5t-19.5 -180t-6 -188
q0 -87 3 -161.5t12 -156t23.5 -147t39 -126.5t57.5 -101.5t79.5 -65t103.5 -24.5q66 0 118 31t86 89.5t57 129.5t35 164.5t16.5 179t4.5 188.5q0 99 -6 188t-19.5 180t-38 163.5t-58.5 130t-83.5 89t-111.5 31.5z" />
    <glyph glyph-name="one" unicode="1" horiz-adv-x="890" 
d="M102 6h267v1524h-232v6h426v-1530h225v-6h-686v6z" />
    <glyph glyph-name="two" unicode="2" horiz-adv-x="1126" 
d="M1055 0h-973v133l450 436q275 266 275 557q0 121 -30 211t-101 145.5t-178 55.5q-167 0 -280 -125.5t-103 -312.5q12 39 44.5 65.5t84.5 26.5q47 0 84 -32t37 -83q0 -60 -36.5 -95.5t-92.5 -35.5q-58 0 -95 44t-37 134q0 122 51 218.5t156.5 155t251.5 58.5
q105 0 191.5 -32t142 -86t85.5 -123.5t30 -147.5q0 -58 -18 -110.5t-54 -98t-67 -76.5t-81 -74.5t-71 -64.5l-578 -559h906v154h6v-338z" />
    <glyph glyph-name="three" unicode="3" horiz-adv-x="1067" 
d="M375 827v4q67 0 121 14.5t89.5 37t61 57t38.5 66t21 72.5t9.5 69t1.5 63q0 81 -23.5 155t-79 127.5t-131.5 53.5q-126 0 -232.5 -69.5t-129.5 -176.5q17 33 46 51.5t62 18.5q47 0 82 -31t35 -82q0 -56 -36 -85t-81 -29q-49 0 -82.5 33.5t-33.5 93.5q0 112 113 198t268 86
q116 0 212 -38t157 -118t61 -188q0 -63 -10 -112t-39.5 -99t-80 -83.5t-135 -57t-200.5 -29.5q124 -6 217.5 -31.5t151.5 -63t94 -91t49.5 -109.5t13.5 -124q0 -195 -145 -312.5t-367 -117.5q-105 0 -188 26t-133 69t-75.5 95t-25.5 109q0 62 34 97.5t89 35.5
q48 0 79.5 -30.5t31.5 -84.5q0 -48 -35.5 -80.5t-81.5 -32.5q-44 0 -73.5 23.5t-35.5 56.5q2 -51 28 -98.5t73 -87t123 -63t170 -23.5q71 0 127.5 25t92.5 66t60.5 96.5t34.5 112.5t10 118q0 52 -8 102t-34.5 109.5t-68.5 103t-117.5 73t-174.5 29.5z" />
    <glyph glyph-name="four" unicode="4" horiz-adv-x="1218" 
d="M1126 6v-6h-542v6h194v432h-706l737 1098h164v-1094h225v-4h-225v-432h153zM82 442h696v1037z" />
    <glyph glyph-name="five" unicode="5" horiz-adv-x="1024" 
d="M72 231q18 -97 120.5 -169t229.5 -72q76 0 135 32t94 81t58 115.5t31 128t8 124.5q0 121 -30 227t-94 178t-151 72q-118 0 -209 -57t-119 -119h-8v764h748v113h6v-297h-748v-572q35 68 136 125.5t237 57.5q203 0 325 -132t122 -360q0 -133 -65 -244.5t-185 -179
t-271 -67.5q-155 0 -268 86t-113 198q0 60 34 93.5t83 33.5q45 0 81 -29.5t36 -85.5q0 -51 -35 -81.5t-82 -30.5q-36 0 -66 21.5t-40 45.5z" />
    <glyph glyph-name="six" unicode="6" horiz-adv-x="1146" 
d="M1085 512q0 -236 -128.5 -384t-354.5 -148q-235 0 -367.5 168.5t-132.5 486.5q0 184 66 353.5t177 294t265 199t322 74.5v-6q-129 0 -244.5 -70t-197.5 -187t-131 -275t-52 -330q19 150 95.5 233t234.5 83q64 0 126 -17.5t121 -56t103 -94.5t71 -139.5t27 -184.5z
M881 512q0 210 -77.5 342.5t-211.5 132.5q-77 0 -133.5 -32.5t-88.5 -91t-47.5 -130.5t-15.5 -160q0 -109 16.5 -208.5t50 -187t94 -139.5t140.5 -52q54 0 97.5 22.5t72.5 62.5t50 90t32 111.5t16 119t5 120.5z" />
    <glyph glyph-name="seven" unicode="7" horiz-adv-x="1034" 
d="M344 156q0 73 38.5 162t123 233t115.5 203q120 231 288 587h-821v-153h-6v348h932q-242 -502 -385 -786q-28 -56 -62.5 -118.5t-49 -90.5t-25.5 -61.5t-11 -65.5q0 -41 13.5 -76.5t32.5 -60t37.5 -47.5t32 -51.5t13.5 -59.5q0 -61 -33.5 -100t-97.5 -39q-62 0 -98.5 44
t-36.5 132z" />
    <glyph glyph-name="eight" unicode="8" horiz-adv-x="1126" 
d="M82 389q0 182 109 287t329 115q-193 9 -295 102t-102 254q0 85 28.5 159t82.5 130t138.5 88t190.5 32t190.5 -32t139 -88t83 -130t28.5 -159q0 -161 -102.5 -254t-295.5 -102q220 -10 329 -115t109 -287q0 -191 -120.5 -300t-360.5 -109t-360.5 109t-120.5 300zM328 1147
q0 -69 11.5 -128.5t37 -112t73.5 -83t113 -30.5t113 30.5t73.5 83t37.5 112t12 128.5q0 70 -12 136.5t-37.5 128.5t-73.5 100t-113 38t-113 -38t-73.5 -100t-37 -128.5t-11.5 -136.5zM287 389q0 -60 9 -116t30 -109t52 -92t78.5 -62.5t106.5 -23.5q73 0 128.5 35t86.5 94.5
t46.5 128.5t15.5 145t-15.5 144t-46.5 126t-86.5 92.5t-128.5 34.5t-128 -34.5t-86.5 -92.5t-46.5 -126t-15 -144z" />
    <glyph glyph-name="nine" unicode="9" horiz-adv-x="1146" 
d="M1044 901q0 -184 -66 -353.5t-176.5 -294t-264.5 -199t-322 -74.5v6q129 0 244.5 70t197.5 187t131 275t52 330q-19 -150 -95.5 -233t-234.5 -83q-64 0 -126.5 17.5t-121 56t-103 94.5t-71.5 139.5t-27 184.5q0 155 56 274t166.5 188.5t261.5 69.5q235 0 367 -168.5
t132 -486.5zM266 1024q0 -210 77.5 -342.5t211.5 -132.5q77 0 133.5 32.5t88.5 91t47.5 130.5t15.5 160q0 109 -16.5 208.5t-50 187t-94 139.5t-140.5 52q-54 0 -97.5 -22.5t-72.5 -62.5t-50 -90t-32 -111.5t-16 -119t-5 -120.5z" />
    <glyph glyph-name="colon" unicode=":" horiz-adv-x="405" 
d="M82 963q0 51 36 86.5t87 35.5t87 -35.5t36 -86.5t-36 -87t-87 -36t-87 36t-36 87zM82 102q0 51 36 87t87 36t87 -36t36 -87t-36 -86.5t-87 -35.5t-87 35.5t-36 86.5z" />
    <glyph glyph-name="semicolon" unicode=";" horiz-adv-x="440" 
d="M82 963q0 51 36 86.5t87 35.5t87 -35.5t36 -86.5t-36 -87t-87 -36t-87 36t-36 87zM82 100q0 51 39.5 86t97.5 35q64 0 103.5 -53t39.5 -160q0 -74 -31.5 -143.5t-98.5 -117.5t-154 -48v4q90 0 160 53.5t100 146t6 199.5q-10 -52 -45 -87t-88 -35q-63 0 -96 33t-33 87z
" />
    <glyph glyph-name="less" unicode="&#x3c;" horiz-adv-x="1146" 
d="M123 791v6l901 432v-6l-899 -428l899 -430v-7z" />
    <glyph glyph-name="equal" unicode="=" horiz-adv-x="1146" 
d="M123 1047h901v-5h-901v5zM123 739h901v-4h-901v4z" />
    <glyph glyph-name="greater" unicode="&#x3e;" horiz-adv-x="1146" 
d="M1024 797v-6l-901 -433v7l899 430l-899 428v6z" />
    <glyph glyph-name="question" unicode="?" horiz-adv-x="1126" 
d="M504 715q79 16 140.5 58.5t98.5 102.5t55.5 129t18.5 142q0 65 -5.5 116.5t-23.5 107t-48 92.5t-82 61t-123 24q-82 0 -157.5 -30.5t-126.5 -77t-82.5 -99t-35.5 -98.5q7 24 36 46t71 22q47 0 81.5 -30.5t34.5 -82.5q0 -56 -36 -85.5t-80 -29.5q-49 0 -83 33.5t-34 93.5
q0 83 57 163t155.5 131.5t209.5 51.5q217 0 348 -112t131 -297q0 -175 -148.5 -298.5t-367.5 -137.5v-283h-4v287zM387 102q0 51 36 87t87 36t87 -36t36 -87t-36 -86.5t-87 -35.5t-87 35.5t-36 86.5z" />
    <glyph glyph-name="at" unicode="@" horiz-adv-x="2068" 
d="M1208 430q-49 -128 -134 -207.5t-185 -79.5q-128 0 -217.5 87.5t-89.5 240.5q0 150 68 292.5t180 231t231 88.5q59 0 100.5 -33.5t61.5 -92t28.5 -118t8.5 -130.5q0 -11 -5 -74l101 430h184l-147 -635q0 -1 -8.5 -29.5t-15 -55t-9 -63.5t3 -63.5t27.5 -45.5t59 -19
q145 0 262 99.5t177.5 251t60.5 316.5q0 114 -28 225t-88.5 213.5t-147 181t-212.5 125t-276 46.5q-175 0 -340 -61t-297.5 -171t-232.5 -256t-154.5 -324.5t-54.5 -367.5q0 -186 41.5 -334.5t111.5 -246t166 -162.5t200 -93t220 -28q483 0 744 305l6 -4
q-263 -307 -750 -307q-117 0 -222 28t-202 93t-167 163t-112 248.5t-42 337.5q0 158 39 310t109 282.5t170 241t219 188t260 121t288 43.5q150 0 277 -47t214 -125.5t148.5 -182t90 -215.5t28.5 -227q0 -125 -36 -245t-102.5 -218.5t-171.5 -158.5t-231 -60q-65 0 -113 27.5
t-69.5 70.5t-30 94t5.5 99zM1253 709q0 25 -0.5 47.5t-4.5 61.5t-11 70t-20.5 67t-31.5 60t-47 40t-65 16q-72 0 -140 -102t-106.5 -245t-38.5 -271q0 -55 6.5 -105t20 -94.5t38.5 -71t58 -26.5q99 0 186 98.5t128 247.5l14 63q14 66 14 144z" />
    <glyph glyph-name="A" unicode="A" horiz-adv-x="1505" 
d="M41 6h197l544 1561h6l541 -1561h146v-6h-594v6h223l-158 492h-530l-172 -492h248v-6h-451v6zM692 1286l-274 -784h526z" />
    <glyph glyph-name="B" unicode="B" horiz-adv-x="1290" 
d="M676 0h-635v6h184v1524h-184v6h594q241 0 376.5 -93t135.5 -286q0 -176 -105.5 -265t-314.5 -104q104 -4 188 -25.5t151.5 -63t104.5 -110t37 -159.5q0 -430 -532 -430zM635 1530h-215v-739h215q60 0 114 20.5t98 60.5t69.5 108.5t25.5 156.5q0 176 -92 284.5t-215 108.5
zM983 430q0 174 -93.5 265t-234.5 91h-235v-780h235q134 0 231 122t97 302z" />
    <glyph glyph-name="C" unicode="C" horiz-adv-x="1372" 
d="M1290 420v-420h-6l-110 127q-68 -70 -168 -108.5t-218 -38.5q-205 0 -364 101.5t-245.5 280.5t-86.5 406t86.5 406t245.5 280.5t364 101.5q102 0 194 -37t159 -102l123 119h6v-420h-6q0 121 -65.5 220.5t-169 153.5t-220.5 54q-103 0 -186 -45.5t-137.5 -120
t-90.5 -176.5t-51.5 -209.5t-15.5 -224.5t15.5 -224.5t51.5 -209.5t90.5 -176.5t137.5 -120t186 -45.5q207 0 341 126t134 302h6z" />
    <glyph glyph-name="D" unicode="D" horiz-adv-x="1433" 
d="M614 0h-573v6h184v1524h-184v6h573q223 0 392.5 -101.5t257.5 -275t88 -391.5q0 -216 -92.5 -391t-262 -276t-383.5 -101zM614 1530h-194v-1524h194q109 0 196.5 44t143.5 116.5t93.5 172.5t53 206t15.5 223q0 115 -17.5 222.5t-57 206.5t-96.5 172.5t-142.5 117
t-188.5 43.5z" />
    <glyph glyph-name="E" unicode="E" horiz-adv-x="1198" 
d="M762 569q0 100 -64 162t-155 62h-123v-787h328q103 0 178 34t119 96.5t64.5 143t20.5 181.5h7v-461h-1096v6h184v1524h-184v6h1075v-420h-6q0 84 -20 157t-60.5 131.5t-107.5 92t-154 33.5h-348v-733h123q92 0 155.5 57t63.5 156h6v-441h-6z" />
    <glyph glyph-name="F" unicode="F" horiz-adv-x="1157" 
d="M41 6h184v1524h-184v6h1055v-420h-6q0 84 -20 157t-60.5 131.5t-107.5 92t-154 33.5h-328v-764h92q270 0 270 203h6v-420h-6q0 103 -68.5 158t-201.5 55h-92v-756h205v-6h-584v6z" />
    <glyph glyph-name="G" unicode="G" horiz-adv-x="1464" 
d="M891 586h553v-4h-123v-244q-21 -44 -49.5 -87t-79 -94t-109.5 -88.5t-144.5 -63t-180.5 -25.5q-157 0 -283.5 59t-210 164t-128 249t-44.5 316q0 227 86.5 406t245.5 280.5t364 101.5q102 0 194.5 -36t158.5 -101l123 117h6v-420h-6q0 122 -64.5 221.5t-168.5 153
t-222 53.5q-103 0 -186 -45.5t-137.5 -120t-90.5 -176.5t-51.5 -209.5t-15.5 -224.5q0 -84 5.5 -161t19.5 -157t35.5 -147t55.5 -126.5t77.5 -101t104 -65.5t132.5 -24q37 0 71 6.5t60.5 17t51.5 27t43 31.5t35.5 36.5t28.5 37t22.5 37t16 32t11.5 27.5t8 18v326h-215v4z
" />
    <glyph glyph-name="H" unicode="H" horiz-adv-x="1505" 
d="M41 6h184v1524h-184v6h584v-6h-205v-770h676v770h-205v6h584v-6h-185v-1524h185v-6h-584v6h205v750h-676v-750h205v-6h-584v6z" />
    <glyph glyph-name="I" unicode="I" horiz-adv-x="737" 
d="M41 6h225v1524h-225v6h666v-6h-246v-1524h246v-6h-666v6z" />
    <glyph glyph-name="J" unicode="J" horiz-adv-x="872" 
d="M176 1536h666v-6h-205v-1182q-12 -41 -20.5 -68.5t-27 -74.5t-37 -79t-48 -70t-62 -61.5t-78 -39.5t-96.5 -16q-57 0 -103.5 22t-74.5 57.5t-43.5 75.5t-15.5 80q0 62 34 97.5t82 35.5q44 0 79.5 -31.5t35.5 -89.5t-36.5 -88t-92.5 -30q-47 0 -80 22q11 -24 25.5 -45
t40 -46t64 -39.5t85.5 -14.5q31 0 55 6.5t42 23t31 35t21.5 50.5t13.5 61.5t7.5 77.5t3 88t0.5 102v1141h-266v6z" />
    <glyph glyph-name="K" unicode="K" horiz-adv-x="1392" 
d="M41 6h184v1524h-184v6h584v-6h-205v-842l624 842h-245v6h491v-6h-237l-412 -555l578 -969h163v-6h-634v6h225l-455 803l-98 -133v-670h205v-6h-584v6z" />
    <glyph glyph-name="L" unicode="L" horiz-adv-x="1167" 
d="M1126 0h-1085v6h184v1524h-184v6h563v-6h-184v-1524h317q94 0 163 23t111 61.5t67 98.5t33.5 124t8.5 148h6v-461z" />
    <glyph glyph-name="M" unicode="M" horiz-adv-x="1689" 
d="M51 6h148v1524h-158v6h356l471 -1272l451 1272h340v-6h-143v-1524h143v-6h-502v6h164v1524l-545 -1550h-6l-565 1546v-1520h157v-6h-311v6z" />
    <glyph glyph-name="N" unicode="N" horiz-adv-x="1495" 
d="M41 6h203v1524h-203v6h440l762 -1225v1219h-244v6h465v-6h-215v-1550h-6l-993 1550v-1524h248v-6h-457v6z" />
    <glyph glyph-name="O" unicode="O" horiz-adv-x="1484" 
d="M748 -20q-122 0 -227.5 40t-183.5 112t-133.5 170t-83.5 216.5t-28 249.5q0 163 47.5 307t132 250.5t208 168.5t268.5 62q193 0 343.5 -106t231 -285t80.5 -397q0 -164 -44.5 -307t-126.5 -250.5t-207 -169t-277 -61.5zM748 1550q-81 0 -147.5 -31.5t-111 -89t-77 -130
t-50.5 -163.5t-26 -180t-8 -188q0 -86 4.5 -161t16.5 -156.5t32 -147.5t52.5 -126.5t75.5 -101.5t104 -65t135 -24q86 0 154 31t113 89.5t76 130t47 164t22.5 179t6.5 188.5q0 99 -8 188t-26 180t-50 163.5t-77 130t-111 89t-147 31.5z" />
    <glyph glyph-name="P" unicode="P" horiz-adv-x="1249" 
d="M41 6h184v1524h-184v6h604q271 0 402 -112t131 -318q0 -203 -130 -307.5t-403 -104.5h-225v-688h184v-6h-563v6zM645 1530h-225v-832h225q93 0 165.5 65t107 156.5t34.5 186.5t-34.5 190.5t-107 164.5t-165.5 69z" />
    <glyph glyph-name="Q" unicode="Q" horiz-adv-x="1484" 
d="M1096 -506v-6q-73 0 -131 6t-104 16.5t-81 30.5t-60 41.5t-42 55.5t-27.5 67t-16 82t-7.5 94t-2 109q-166 31 -288 142t-183.5 275t-61.5 361q0 163 47.5 307t132 250.5t208 168.5t268.5 62q193 0 343.5 -106t231 -285t80.5 -397q0 -199 -62.5 -364t-187 -276
t-293.5 -140q0 -74 1.5 -127t6 -105t11.5 -86t19.5 -66t30 -51t41.5 -33t55 -20t71 -6zM748 1550q-81 0 -147.5 -31.5t-111 -89t-77 -130t-50.5 -163.5t-26 -180t-8 -188q0 -86 4.5 -161t16.5 -156.5t32 -147.5t52.5 -126.5t75.5 -101.5t104 -65t135 -24q86 0 154 31
t113 89.5t76 130t47 164t22.5 179t6.5 188.5q0 99 -8 188t-26 180t-50 163.5t-77 130t-111 89t-147 31.5z" />
    <glyph glyph-name="R" unicode="R" horiz-adv-x="1423" 
d="M41 6h225v1524h-225v6h676q241 0 376.5 -93t135.5 -286q0 -179 -107.5 -267t-320.5 -102q101 -6 174 -37t113 -78t64 -106t31 -123t8.5 -127t2.5 -120t7.5 -100.5t28 -69t60.5 -25.5q59 0 111 25l2 -4q-61 -33 -184 -33q-69 0 -116.5 22.5t-71.5 60.5t-38 89t-15.5 108.5
t-4.5 117.5t-5.5 117.5t-18 108.5t-41.5 89t-77 60.5t-124 22.5h-246v-780h225v-6h-645v6zM717 1530h-256v-739h256q146 0 226.5 98.5t80.5 267.5q0 170 -81 271.5t-226 101.5z" />
    <glyph glyph-name="S" unicode="S" horiz-adv-x="1146" 
d="M98 -20h-6v419h6q18 -94 54 -168.5t92.5 -132.5t141 -89.5t192.5 -31.5q167 0 265.5 88t98.5 252q0 67 -28.5 122.5t-76.5 95t-110 74t-130.5 65.5t-137.5 64t-131 74t-110 90.5t-76.5 120t-28.5 155.5q0 109 58.5 196.5t155 134.5t210.5 47q214 0 331 -135l109 135h6
v-419h-6q-30 206 -140.5 307.5t-279.5 101.5q-145 0 -223 -72t-78 -196q0 -60 27.5 -110t74.5 -86.5t107.5 -69t128 -64t134.5 -65t127.5 -78t107.5 -98t74.5 -129.5t27.5 -168q0 -200 -127.5 -320.5t-343.5 -120.5q-256 0 -387 160z" />
    <glyph glyph-name="T" unicode="T" horiz-adv-x="1290" 
d="M328 6h225v1524h-205q-87 0 -147.5 -33.5t-93.5 -97.5t-46.5 -142t-13.5 -182h-6v461h1219v-461h-7q0 104 -13.5 182t-46.5 142t-93.5 97.5t-147.5 33.5h-204v-1524h225v-6h-645v6z" />
    <glyph glyph-name="U" unicode="U" horiz-adv-x="1423" 
d="M41 1536h584v-6h-205v-1038q0 -87 8.5 -157.5t32.5 -138t63 -113t103.5 -73.5t150.5 -28q205 0 306.5 120.5t101.5 368.5v1059h-193v6h400v-6h-203v-1059q0 -258 -107 -380t-346 -122q-267 0 -389.5 119t-122.5 383v1059h-184v6z" />
    <glyph glyph-name="V" unicode="V" horiz-adv-x="1484" 
d="M817 250l463 1280h-266v6h450v-6h-176l-565 -1561h-6l-541 1561h-145v6h594v-6h-224z" />
    <glyph glyph-name="W" unicode="W" horiz-adv-x="1996" 
d="M1464 1530h-159l-183 -545l217 -700l451 1245h-223v6h409v-6h-178l-561 -1550h-6l-238 768l-291 -768h-6l-481 1550h-184v6h1433v-6zM809 285l180 475l-239 770h-330zM954 1530l164 -531l178 531h-342z" />
    <glyph glyph-name="X" unicode="X" horiz-adv-x="1505" 
d="M31 6h229l436 711l-467 813h-127v6h574v-6h-209l364 -629l359 629h-268v6h450v-6h-174l-362 -637l514 -887h135v-6h-574v6h193l-404 705l-432 -705h254v-6h-491v6z" />
    <glyph glyph-name="Y" unicode="Y" horiz-adv-x="1454" 
d="M471 6h184v731l-477 793h-147v6h594v-6h-222l443 -739l397 739h-239v6h430v-6h-183l-401 -746v-778h205v-6h-584v6z" />
    <glyph glyph-name="Z" unicode="Z" horiz-adv-x="1146" 
d="M72 1536h983v-6l-809 -1524h461q204 0 283 90t79 293h6v-389h-1044v6l809 1524h-400q-202 0 -282 -84t-80 -258h-6v348z" />
    <glyph glyph-name="bracketleft" unicode="[" horiz-adv-x="665" 
d="M604 -307h-491v1904h491v-6h-307v-1892h307v-6z" />
    <glyph glyph-name="backslash" unicode="\" horiz-adv-x="1064" 
d="M88 1597l895 -1904h-6l-895 1904h6z" />
    <glyph glyph-name="bracketright" unicode="]" horiz-adv-x="665" 
d="M61 -301h308v1892h-308v6h492v-1904h-492v6z" />
    <glyph glyph-name="asciicircum" unicode="^" horiz-adv-x="1116" 
d="M557 1481l-348 -193l-4 2l287 287h133l286 -287l-4 -2z" />
    <glyph glyph-name="underscore" unicode="_" horiz-adv-x="1146" 
d="M-10 -305h1167v-4h-1167v4z" />
    <glyph glyph-name="grave" unicode="`" horiz-adv-x="808" 
d="M184 1477q-29 0 -50 20t-21 49q0 33 26 56t66 12l483 -137l-2 -4z" />
    <glyph glyph-name="a" unicode="a" horiz-adv-x="1067" 
d="M530 516h127v109q0 40 -2 72t-8 71.5t-18.5 69t-31.5 55.5t-49.5 39.5t-70.5 13.5q-91 0 -164.5 -29.5t-109.5 -70.5q80 30 129 -3t49 -89t-38 -86.5t-83 -30.5q-47 0 -76.5 29.5t-29.5 83.5q0 61 52.5 109.5t135 73.5t176.5 25q64 0 114.5 -10.5t84 -26t57.5 -42.5
t37 -52.5t20.5 -63.5t9 -67t1.5 -71v-539q0 -82 73 -82q33 0 77 33t71 92h4q-34 -74 -93 -111.5t-128 -37.5q-40 0 -71 7t-59 24.5t-43.5 52.5t-15.5 86v108q-18 -140 -89 -209t-210 -69q-122 0 -199 69t-77 182q0 134 111 209.5t337 75.5zM434 4q100 0 161.5 89t61.5 278
v141h-127q-112 0 -175.5 -78t-63.5 -194q0 -105 38 -170.5t105 -65.5z" />
    <glyph glyph-name="b" unicode="b" horiz-adv-x="1173" 
d="M166 1530h-125v6h309v-948q20 179 103 276t217 97q84 0 162 -34t138.5 -95.5t97 -155t36.5 -205.5t-36.5 -206t-97 -155.5t-138.5 -95.5t-162 -34q-135 0 -217.5 97t-102.5 277v-354h-309v6h125v1524zM350 471q0 -228 80.5 -351.5t206.5 -123.5q124 0 188 130t64 345
t-64 344t-188 129q-126 0 -206.5 -123t-80.5 -350z" />
    <glyph glyph-name="c" unicode="c" horiz-adv-x="989" 
d="M883 737q-18 99 -106.5 158t-205.5 59q-59 0 -105.5 -22t-76.5 -61t-51 -85.5t-31.5 -104t-15 -107t-4.5 -103.5q0 -481 266 -481q131 0 217.5 81.5t130.5 221.5h6q-93 -313 -368 -313q-205 0 -336 132.5t-131 358.5q0 101 32 189.5t91 156t151 107t205 39.5
q153 0 246.5 -76t93.5 -189q0 -60 -34 -93.5t-83 -33.5q-45 0 -81 29.5t-36 85.5q0 51 35 82t82 31q37 0 70.5 -20.5t38.5 -41.5z" />
    <glyph glyph-name="d" unicode="d" horiz-adv-x="1173" 
d="M1135 6v-6h-310v354q-20 -179 -102.5 -275.5t-216.5 -96.5q-84 0 -162 34t-138.5 95t-97 154.5t-36.5 205.5t36.5 206t97 155.5t138.5 96t162 34.5q134 0 216.5 -97t102.5 -278v942h-123v6h308v-1530h125zM825 471q0 227 -81 351t-207 124q-124 0 -187 -129.5t-63 -345.5
q0 -215 63 -344t187 -129q126 0 207 123t81 350z" />
    <glyph glyph-name="e" unicode="e" horiz-adv-x="1030" 
d="M969 293q-42 -141 -149.5 -227t-270.5 -86q-135 0 -242.5 58t-171 170.5t-63.5 262.5q0 113 36 206t99 155.5t149.5 96.5t186.5 34q110 0 194 -35.5t133 -97t73 -136.5t24 -162h-678q-2 -20 -2 -61q0 -96 12.5 -175.5t41.5 -152t85.5 -114t136.5 -41.5q151 0 255.5 85
t144.5 220h6zM543 956q-66 0 -115.5 -34.5t-78 -96t-43 -132.5t-17.5 -156h461q1 55 -3 106t-17 110t-34.5 102t-61 72t-91.5 29z" />
    <glyph glyph-name="f" unicode="f" horiz-adv-x="716" 
d="M31 6h166v930h-166v6h166v107q0 102 26 192.5t75 161t127 112t175 41.5q117 0 184.5 -61.5t67.5 -140.5q0 -60 -34 -93.5t-83 -33.5q-43 0 -78.5 30t-35.5 84q0 55 34 83t84 28q36 0 64.5 -20.5t40.5 -59.5q-8 73 -70.5 125.5t-173.5 52.5q-219 0 -219 -444v-164h266v-6
h-266v-930h225v-6h-575v6z" />
    <glyph glyph-name="g" unicode="g" horiz-adv-x="1140" 
d="M106 152q0 64 47.5 107.5t111.5 62t143 22.5q-61 6 -115 25t-100.5 54t-73.5 92t-27 130q0 81 33.5 144t88 100t117.5 55.5t128 18.5q83 0 162.5 -29.5t130.5 -87.5q41 55 95 80.5t103 25.5q75 0 118.5 -42t43.5 -103q0 -64 -30 -93.5t-74 -29.5q-42 0 -72.5 27t-30.5 75
q0 42 30.5 69.5t74.5 27.5q33 0 60.5 -17.5t33.5 -44.5q-3 52 -43 88.5t-111 36.5q-49 0 -101.5 -25.5t-92.5 -78.5q69 -79 69 -197q0 -65 -22.5 -117.5t-58.5 -86.5t-84.5 -57t-97.5 -32.5t-101 -9.5q-79 0 -147 -32t-68 -93q0 -19 6 -32t21 -21.5t28.5 -13t41.5 -6.5
t46 -2.5t55 -0.5q38 0 78.5 1t67.5 1q53 0 93.5 -5.5t85.5 -24t74 -51t48.5 -91t19.5 -139.5q0 -90 -35 -161t-95.5 -114.5t-137 -66t-162.5 -22.5q-89 0 -166.5 16t-139.5 48.5t-98 86.5t-36 125q0 51 20.5 93t51.5 68.5t70.5 45t75 26.5t67.5 9q-220 20 -220 166zM287 645
q0 -55 2 -90.5t12 -79t27.5 -69t50.5 -43t80 -17.5q85 0 128.5 87t43.5 212q0 80 -17 148.5t-57.5 115.5t-97.5 47t-97.5 -47t-57.5 -115.5t-17 -148.5zM236 -209q0 -44 8.5 -86.5t28.5 -84.5t50 -73.5t76 -51t103 -19.5q162 0 274.5 84.5t112.5 220.5q0 54 -25.5 94.5
t-68 63t-90.5 33t-101 10.5h-192q-51 0 -76 2q-32 -18 -53 -41.5t-31 -50.5t-13 -49.5t-3 -51.5z" />
    <glyph glyph-name="h" unicode="h" 
d="M41 6h125v1524h-125v6h309v-940q6 58 17.5 106.5t36 98.5t60 84t92 56t128.5 22q87 0 146 -22.5t90 -66.5t43 -96.5t12 -124.5v-647h123v-6h-432v6h125v625q0 75 -4 124.5t-16 98.5t-39 73.5t-68 24.5q-60 0 -108.5 -18.5t-80.5 -47t-56 -71.5t-36.5 -85t-20.5 -94.5
t-10 -92.5t-2 -86v-451h123v-6h-432v6z" />
    <glyph glyph-name="i" unicode="i" horiz-adv-x="532" 
d="M125 1434q0 51 36 86.5t87 35.5t87 -35.5t36 -86.5t-36 -87t-87 -36t-87 36t-36 87zM51 6h125v930h-125v6h309v-936h123v-6h-432v6z" />
    <glyph glyph-name="j" unicode="j" horiz-adv-x="546" 
d="M160 1434q0 51 36 86.5t87 35.5t87 -35.5t36 -86.5t-36 -87t-87 -36t-87 36t-36 87zM391 942v-967q0 -87 -7.5 -156.5t-29 -137t-56.5 -113t-93 -73t-135 -27.5q-119 0 -185.5 65t-66.5 158q0 60 33.5 93.5t82.5 33.5q45 0 80 -27.5t35 -83.5q0 -58 -36 -86.5t-93 -28.5
q-33 0 -60.5 24.5t-33.5 55.5q0 -77 64.5 -136.5t168.5 -59.5q30 0 53.5 10t39.5 31.5t27 46.5t17.5 62.5t9.5 71t3.5 82t0 84.5t-1.5 89.5t-1 87.5v895h-166v6h350z" />
    <glyph glyph-name="k" unicode="k" horiz-adv-x="1159" 
d="M41 6h166v1524h-166v6h350v-989l492 389h-230v6h418v-6h-180l-373 -297l539 -633h84v-6h-467v6h151l-434 510v-510h144v-6h-494v6z" />
    <glyph glyph-name="l" unicode="l" horiz-adv-x="593" 
d="M41 6h166v1524h-166v6h350v-1530h164v-6h-514v6z" />
    <glyph glyph-name="m" unicode="m" horiz-adv-x="1679" 
d="M41 6h125v930h-125v6h309v-356q38 377 303 377q281 0 281 -310v-61q33 371 301 371q283 0 283 -310v-647h122v-6h-432v6h125v625q0 41 -0.5 63.5t-1.5 58.5t-4.5 56t-8.5 46.5t-13.5 41t-20.5 29t-29 20.5t-38 6q-52 0 -94.5 -18t-71 -47.5t-50.5 -72t-34.5 -85.5
t-20 -94t-10 -92.5t-2.5 -85.5v-451h123v-6h-432v6h125v625q0 40 -0.5 63.5t-1.5 58.5t-4.5 55.5t-9 46.5t-14 41t-20.5 29.5t-29 20.5t-38 6q-71 0 -124.5 -34.5t-82.5 -85.5t-47 -122t-23.5 -130t-5.5 -123v-451h123v-6h-432v6z" />
    <glyph glyph-name="n" unicode="n" 
d="M41 6h125v930h-125v6h309v-350q38 371 334 371q87 0 146 -22.5t90 -66.5t43 -96.5t12 -124.5v-647h123v-6h-432v6h125v625q0 75 -4 124.5t-16 98.5t-39 73.5t-68 24.5q-60 0 -108.5 -18.5t-80.5 -47t-56 -71.5t-36.5 -85t-20.5 -94.5t-10 -92.5t-2 -86v-451h123v-6h-432
v6z" />
    <glyph glyph-name="o" unicode="o" horiz-adv-x="1081" 
d="M72 471q0 134 56 245t164.5 179t248.5 68t248.5 -68t164.5 -179t56 -245t-56 -245t-164.5 -178.5t-248.5 -67.5t-248.5 67.5t-164.5 178.5t-56 245zM287 471q0 -55 3.5 -104t12.5 -107t27.5 -104.5t45.5 -86t69 -61.5t96 -22t96 22t69 61.5t45.5 86t27.5 104.5t12.5 107
t3.5 104t-3.5 104t-12.5 107t-27.5 104.5t-45.5 86t-69 61.5t-96 22t-96 -22t-69 -61.5t-45.5 -86t-27.5 -104.5t-12.5 -107t-3.5 -104z" />
    <glyph glyph-name="p" unicode="p" horiz-adv-x="1173" 
d="M41 -506h125v1442h-125v6h309v-354q20 179 103 276t217 97q84 0 162 -34t138.5 -95.5t97 -155t36.5 -205.5t-36.5 -206t-97 -155.5t-138.5 -95.5t-162 -34q-135 0 -217.5 97t-102.5 277v-860h123v-6h-432v6zM350 471q0 -228 80.5 -351.5t206.5 -123.5q124 0 188 130
t64 345t-64 344t-188 129q-126 0 -206.5 -123t-80.5 -350z" />
    <glyph glyph-name="q" unicode="q" horiz-adv-x="1173" 
d="M1135 -506v-6h-433v6h123v860q-20 -179 -102.5 -275.5t-216.5 -96.5q-84 0 -162 34t-138.5 95t-97 154.5t-36.5 205.5t36.5 206t97 155.5t138.5 96t162 34.5q134 0 216.5 -97t102.5 -278v354h310v-6h-125v-1442h125zM825 471q0 227 -81 351t-207 124q-124 0 -187 -129.5
t-63 -345.5q0 -215 63 -344t187 -129q126 0 207 123t81 350z" />
    <glyph glyph-name="r" unicode="r" horiz-adv-x="813" 
d="M41 6h125v930h-125v6h309v-330q6 76 21.5 135.5t44.5 110t77 78t113 27.5q74 0 131.5 -47t57.5 -119q0 -55 -31 -90t-88 -35q-54 0 -87.5 28.5t-33.5 83.5q0 57 43.5 91.5t98.5 26.5t83 -60q-20 56 -69 85t-105 29q-54 0 -96 -19.5t-69.5 -57t-46 -82.5t-28 -104.5
t-13 -114.5t-3.5 -121v-451h123v-6h-432v6z" />
    <glyph glyph-name="s" unicode="s" horiz-adv-x="860" 
d="M88 -20h-6v286h6q3 -74 53.5 -138.5t130 -102t166.5 -37.5q67 0 121 17t92.5 61.5t38.5 113.5q0 41 -20 73t-54 52t-77.5 36.5t-92 31t-97 31t-92 40t-77.5 54.5t-54 79t-20 109q0 51 18 98.5t52 87.5t90.5 64.5t126.5 24.5q139 0 242 -89l92 91h4v-287h-6
q0 103 -96.5 190.5t-233.5 87.5q-91 0 -150 -41t-59 -114q0 -49 34 -85t88 -59t119 -43t130.5 -45t119.5 -58t88 -88.5t34 -129.5q0 -136 -100 -223.5t-250 -87.5q-153 0 -265 94z" />
    <glyph glyph-name="t" unicode="t" horiz-adv-x="645" 
d="M635 209q-38 -100 -112.5 -161.5t-166.5 -61.5q-48 0 -83.5 15t-55 37t-30.5 56t-14 64t-3 69v709h-150v6h150v205q44 0 98 18.5t86 42.5v-266h219v-6h-219v-786q0 -75 17.5 -102.5t60.5 -27.5q56 0 111.5 55t87.5 134h4z" />
    <glyph glyph-name="u" unicode="u" 
d="M975 6h123v-6h-307v369q-30 -389 -334 -389q-87 0 -146 22.5t-90 66.5t-43 96t-12 124v647h-125v6h309v-631q0 -75 4 -124.5t16 -98.5t39 -73.5t68 -24.5q60 0 108.5 18.5t80.5 47t56 71.5t36.5 85t20.5 94.5t10 92.5t2 86v451h-144v6h328v-936z" />
    <glyph glyph-name="v" unicode="v" horiz-adv-x="1083" 
d="M602 209l301 727h-196v6h358v-6h-154l-395 -956h-6l-393 956h-117v6h496v-6h-174z" />
    <glyph glyph-name="w" unicode="w" horiz-adv-x="1525" 
d="M532 223l324 740h6l223 -703l226 676h-203v6h399v-6h-188l-320 -956h-6l-252 704l-307 -704h-6l-311 956h-117v6h475v-6h-166z" />
    <glyph glyph-name="x" unicode="x" horiz-adv-x="1093" 
d="M20 6h138l327 422l-346 508h-98v6h465v-6h-141l241 -352l275 352h-174v6h337v-6h-155l-279 -358l389 -572h76v-6h-413v6h112l-285 416l-323 -416h205v-6h-351v6z" />
    <glyph glyph-name="y" unicode="y" horiz-adv-x="1081" 
d="M399 -436l162 397l-467 975h-94v6h457v-6h-158l360 -737l302 737h-177v6h320v-6h-135l-547 -1342q-32 -73 -60.5 -104t-82.5 -31q-44 0 -79.5 28.5t-35.5 82.5q0 51 31 83t81 32q49 0 82 -32.5t41 -88.5z" />
    <glyph glyph-name="z" unicode="z" horiz-adv-x="901" 
d="M391 936q-85 0 -144 -24.5t-92 -72t-47 -107.5t-14 -142h-6v352h739v-6l-575 -930h258q105 0 172.5 21.5t105 70t52 113.5t14.5 166h6v-377h-829v6l573 930h-213z" />
    <glyph glyph-name="braceleft" unicode="{" horiz-adv-x="557" 
d="M496 -307q-110 0 -185 19t-118 57t-61.5 89t-18.5 122q0 95 19 178t42.5 130t42.5 99.5t19 93.5q0 59 -36.5 102.5t-86.5 59.5v6q50 16 86.5 59.5t36.5 102.5q0 41 -19 93.5t-42.5 100t-42.5 130.5t-19 178q0 71 18.5 121.5t61.5 88t118 56t185 18.5v-6
q-90 0 -141.5 -80.5t-51.5 -185.5q0 -72 35 -202.5t35 -239.5q0 -49 -13 -85.5t-33 -59t-55 -40t-67.5 -27.5t-82.5 -23q-3 -1 -5 -1q43 -12 62.5 -17.5t53 -17.5t49 -22.5t37 -28.5t31 -38t16.5 -49t7 -64q0 -109 -35 -240t-35 -203q0 -67 21 -126.5t66.5 -100.5t105.5 -41
v-6z" />
    <glyph glyph-name="bar" unicode="|" horiz-adv-x="471" 
d="M233 1597h5v-2109h-5v2109z" />
    <glyph glyph-name="braceright" unicode="}" horiz-adv-x="557" 
d="M61 -307v6q90 0 141.5 80.5t51.5 185.5q0 72 -35 203t-35 240q0 41 7.5 72t25.5 54t35.5 38t51 29t57.5 21.5t68 19.5q7 2 11 3q-41 11 -62 17t-53.5 17.5t-49 22t-37 28t-30.5 38t-17 49.5t-7 64q0 109 35 239.5t35 202.5q0 67 -21 126.5t-66.5 100.5t-105.5 41v6
q213 0 298 -70.5t85 -215.5q0 -95 -19 -178t-42 -130.5t-42 -100t-19 -93.5q0 -59 36 -102.5t86 -59.5v-6q-50 -16 -86 -59.5t-36 -102.5q0 -41 19 -93.5t42 -100t42 -130.5t19 -178q0 -71 -18.5 -121.5t-61.5 -88t-118 -56t-185 -18.5z" />
    <glyph glyph-name="asciitilde" unicode="~" horiz-adv-x="1409" 
d="M436 895q-94 0 -159.5 -46t-65.5 -147h-6q0 86 24.5 152.5t67.5 107.5t97 61.5t116 20.5t112.5 -20t85 -48t67.5 -56t78 -48t99 -20q109 0 177.5 45t68.5 147h6q0 -86 -24.5 -152.5t-67.5 -107.5t-97 -61.5t-116 -20.5q-72 0 -126.5 20t-89 48t-67 56.5t-77.5 48.5
t-103 20z" />
    <glyph glyph-name="exclamdown" unicode="&#xa1;" horiz-adv-x="653" 
d="M449 963q0 -51 -36 -87t-87 -36t-87 36t-36 87t36 86.5t87 35.5t87 -35.5t36 -86.5zM207 -285q11 166 65 463.5t54 460.5h4q0 -163 54 -460.5t65 -463.5v-39q0 -78 -27 -120.5t-94 -42.5q-68 0 -95.5 43t-27.5 120q0 6 1 19t1 20z" />
    <glyph glyph-name="cent" unicode="&#xa2;" horiz-adv-x="989" 
d="M883 737q-18 99 -106.5 158t-205.5 59q-20 0 -30 -2v-962h12q131 0 217.5 81.5t130.5 221.5h6q-93 -313 -366 -313v-154h-6v154q-204 2 -333.5 134.5t-129.5 356.5q0 205 123.5 345.5t339.5 146.5v174h6v-174h10q153 0 246.5 -76t93.5 -189q0 -60 -34 -93.5t-83 -33.5
q-45 0 -81 29.5t-36 85.5q0 51 35 82t82 31q37 0 70.5 -20.5t38.5 -41.5zM287 471q0 -464 248 -481v962q-75 -10 -127 -60t-76.5 -125t-34.5 -146t-10 -150z" />
    <glyph glyph-name="sterling" unicode="&#xa3;" horiz-adv-x="1280" 
d="M242 1126q0 211 145 320.5t399 109.5q120 0 212.5 -28.5t146.5 -76.5t81 -106.5t27 -123.5q0 -60 -35.5 -93.5t-84.5 -33.5q-45 0 -81 29t-36 85q0 51 35 82t82 31q40 0 68.5 -24.5t41.5 -51.5q0 54 -26.5 106t-79 97.5t-143.5 73.5t-206 28q-59 0 -107 -14.5t-81 -38.5
t-57.5 -58.5t-38 -69t-22 -76.5t-11 -75.5t-2.5 -70.5q0 -30 4 -61.5t8 -54.5t14 -56t15.5 -48.5t18 -51t16.5 -46.5h407v-6h-403q35 -111 35 -168q0 -74 -24.5 -136.5t-63.5 -106t-86 -83t-93.5 -76.5t-84 -76t-59.5 -91.5t-19 -114.5q65 228 301 228q109 0 239.5 -35
t202.5 -35q57 0 107.5 7t104.5 26t86 60t32 100h6q0 -107 -28 -184.5t-78.5 -119t-109.5 -60.5t-132 -19q-95 0 -178 19t-130.5 42t-100 42t-93.5 19q-69 0 -141 -29.5t-86 -72.5h-9q-11 79 12 155.5t63.5 134t82.5 108t72.5 97t30.5 81.5q0 54 -13 109t-26.5 88.5
t-40.5 90.5h-297v6h295q-28 58 -42.5 93t-28 91.5t-13.5 112.5z" />
    <glyph glyph-name="yen" unicode="&#xa5;" horiz-adv-x="1454" 
d="M471 6h184v443h-338v4h338v284l-10 19h-328v4h324l-463 770h-147v6h594v-6h-222l443 -739l397 739h-239v6h430v-6h-183l-401 -746v-24h369v-4h-369v-303h369v-4h-369v-443h205v-6h-584v6z" />
    <glyph glyph-name="brokenbar" unicode="&#xa6;" horiz-adv-x="450" 
d="M223 1597h4v-759h-4v759zM223 340h4v-852h-4v852z" />
    <glyph glyph-name="section" unicode="&#xa7;" horiz-adv-x="915" 
d="M838 332q0 -159 -111 -255.5t-289 -96.5q-72 0 -135.5 15.5t-119.5 49t-89 96.5t-33 148q0 63 34.5 105t88.5 42q48 0 79.5 -30t31.5 -84q0 -48 -35.5 -80.5t-81.5 -32.5q-10 0 -22.5 3t-24 7t-12.5 4q13 -65 62 -112t115 -69t142 -22t132.5 18.5t87.5 49.5t46 66t15 73
q0 48 -35.5 87t-92 65.5t-124.5 51.5t-136.5 51.5t-125 58t-92 79.5t-35.5 107q0 148 172 283q-123 91 -123 235q0 76 31 137.5t81 98.5t108 56t118 19q70 0 132 -17.5t113 -52.5t81 -95t30 -138q0 -63 -34.5 -105t-88.5 -42q-48 0 -79 30.5t-31 84.5q0 48 35.5 80t81.5 32
q10 0 22.5 -3t24 -7t12.5 -4q-12 84 -94 140.5t-205 56.5q-100 0 -175 -56t-75 -141q0 -42 27.5 -78t72.5 -61t102.5 -51t117 -47.5t117 -51t102.5 -61t72.5 -78.5t27.5 -103q0 -69 -40 -120t-114 -103q138 -81 138 -233zM254 854q0 -48 24 -84t70 -60t92.5 -41t111.5 -39
t107 -42q39 46 39 94q0 49 -25 87.5t-71.5 66.5t-94.5 48.5t-112 48t-106 52.5q-35 -72 -35 -131z" />
    <glyph glyph-name="dieresis" unicode="&#xa8;" horiz-adv-x="819" 
d="M492 1516q0 51 35.5 86.5t86.5 35.5t87 -35.5t36 -86.5t-36 -87t-87 -36t-86.5 36t-35.5 87zM82 1516q0 51 36 86.5t87 35.5t87 -35.5t36 -86.5t-36 -87t-87 -36t-87 36t-36 87z" />
    <glyph glyph-name="copyright" unicode="&#xa9;" horiz-adv-x="1781" 
d="M102 768q0 161 62.5 307t168 251t251.5 167.5t307 62.5q214 0 395.5 -105.5t287 -287t105.5 -395.5t-105.5 -395.5t-287 -287t-395.5 -105.5q-161 0 -307 62.5t-251.5 167.5t-168 251t-62.5 307zM109 768q0 -159 62 -304t166.5 -249.5t249.5 -166.5t304 -62t304 62
t249.5 166.5t166.5 249.5t62 304t-62 304t-166.5 249.5t-249.5 166.5t-304 62t-304 -62t-249.5 -166.5t-166.5 -249.5t-62 -304zM1208 559v-252h-4l-65 76q-88 -88 -232 -88q-186 0 -302 133t-116 340t116 340t302 133q127 0 211 -84l74 72h4v-252h-4q0 109 -82 182.5
t-190 73.5q-77 0 -134.5 -40.5t-90 -109t-48.5 -148t-16 -167.5t16 -167.5t48.5 -148t90 -109t134.5 -40.5q124 0 204 75t80 181h4z" />
    <glyph glyph-name="ordfeminine" unicode="&#xaa;" horiz-adv-x="722" 
d="M633 1065q-43 -90 -133 -90q-113 0 -113 102v66q-11 -85 -53.5 -126.5t-126.5 -41.5q-73 0 -119.5 41.5t-46.5 109.5q0 80 66.5 125t201.5 45h78v66q0 37 -3.5 65.5t-13.5 60t-33 49t-58 17.5q-55 0 -99.5 -17.5t-66.5 -41.5q49 17 78.5 -2.5t29.5 -52.5q0 -34 -23.5 -52
t-50.5 -18q-29 0 -46 17.5t-17 50.5q0 55 65.5 90t153.5 35q53 0 90.5 -12t57.5 -29t31 -46.5t13.5 -53.5t2.5 -60v-324q0 -49 43 -49q20 0 46 20.5t42 55.5h4zM252 989q60 0 97.5 54t37.5 167v84h-78q-66 0 -104.5 -47.5t-38.5 -116.5q0 -63 23 -102t63 -39z" />
    <glyph glyph-name="guillemotleft" unicode="&#xab;" horiz-adv-x="1423" 
d="M883 795l420 -496l-3 -2l-675 471v51l675 471l3 -2zM309 795l420 -496l-2 -2l-676 471v51l676 471l2 -2z" />
    <glyph glyph-name="logicalnot" unicode="&#xac;" horiz-adv-x="995" 
d="M866 1253h-743v7h749v-414h-6v407z" />
    <glyph glyph-name="uni00AD" unicode="&#xad;" horiz-adv-x="737" 
d="M123 565h491v-4h-491v4z" />
    <glyph glyph-name="registered" unicode="&#xae;" horiz-adv-x="1781" 
d="M102 768q0 161 62.5 307t168 251t251.5 167.5t307 62.5q214 0 395.5 -105.5t287 -287t105.5 -395.5t-105.5 -395.5t-287 -287t-395.5 -105.5q-161 0 -307 62.5t-251.5 167.5t-168 251t-62.5 307zM109 768q0 -159 62 -304t166.5 -249.5t249.5 -166.5t304 -62t304 62
t249.5 166.5t166.5 249.5t62 304t-62 304t-166.5 249.5t-249.5 166.5t-304 62t-304 -62t-249.5 -166.5t-166.5 -249.5t-62 -304zM512 307h135v914h-135v4h406q145 0 226 -56t81 -172q0 -106 -65 -159.5t-193 -61.5q68 -4 115.5 -27t70 -56.5t35.5 -75.5t13.5 -85t2 -84
t3.5 -72.5t15.5 -51t39.5 -19.5q37 0 65 14l2 -2q-33 -20 -110 -20q-58 0 -91 26.5t-43 68.5t-12 93t-4.5 101.5t-13.5 92.5t-47 68.5t-97 26.5h-147v-467h135v-4h-387v4zM918 1221h-154v-443h154q88 0 136 59t48 160q0 102 -48 163t-136 61z" />
    <glyph glyph-name="macron" unicode="&#xaf;" horiz-adv-x="823" 
d="M123 975h577v-4h-577v4z" />
    <glyph glyph-name="degree" unicode="&#xb0;" horiz-adv-x="655" 
d="M82 1393q0 101 72.5 173t173.5 72t173 -72t72 -173t-72 -173.5t-173 -72.5t-173.5 72.5t-72.5 173.5zM127 1393q0 -86 57.5 -143.5t143.5 -57.5t143 57.5t57 143.5t-57 143t-143 57t-143.5 -57t-57.5 -143z" />
    <glyph glyph-name="plusminus" unicode="&#xb1;" horiz-adv-x="1085" 
d="M541 307v420h-418v4h418v416h4v-416h418v-4h-418v-420h-4zM123 23h840v-5h-840v5z" />
    <glyph glyph-name="uni00B2" unicode="&#xb2;" horiz-adv-x="962" 
d="M788 936h-583v80l270 262q164 158 164 334q0 112 -44.5 180t-139.5 68q-100 0 -168.5 -76t-61.5 -189q7 24 26.5 40t49.5 16t52 -18.5t22 -49.5q0 -36 -22.5 -58t-55.5 -22q-35 0 -56.5 26.5t-21.5 80.5q0 113 72.5 186.5t202.5 73.5q125 0 196.5 -68t71.5 -166
q0 -35 -10.5 -66t-32 -58.5t-39.5 -45.5t-49 -45t-43 -39l-346 -335h542v92h4v-203z" />
    <glyph glyph-name="uni00B3" unicode="&#xb3;" horiz-adv-x="921" 
d="M725 1182q0 -117 -87.5 -187.5t-219.5 -70.5q-124 0 -189 53t-65 127q0 36 20.5 58t53.5 22q29 0 47 -18.5t18 -51.5q0 -29 -21 -48t-49 -19q-26 0 -43 13.5t-22 33.5q3 -66 65 -114t173 -48q52 0 91 22.5t60.5 60t32 79.5t10.5 88q0 31 -5 61t-21 65.5t-41 62t-70.5 44
t-104.5 17.5v4q56 0 96 16.5t60.5 39.5t32 57.5t14 58.5t2.5 55q0 48 -14 92.5t-47 76.5t-78 32q-76 0 -141 -42t-78 -106q21 41 65 41q29 0 49.5 -18t20.5 -49q0 -34 -21.5 -51t-48.5 -17q-30 0 -49.5 20t-19.5 56q0 67 67.5 118.5t161.5 51.5q108 0 183 -54t75 -151
q0 -49 -10.5 -84.5t-39 -68.5t-86 -52.5t-144.5 -23.5q92 -4 156 -26t98 -57.5t48.5 -76.5t14.5 -92z" />
    <glyph glyph-name="acute" unicode="&#xb4;" horiz-adv-x="808" 
d="M625 1477l-502 -4l-2 4l483 137q40 11 66 -12t26 -56q0 -29 -21 -49t-50 -20z" />
    <glyph glyph-name="mu" unicode="&#xb5;" 
d="M524 -252q51 0 86 -39.5t35 -97.5q0 -143 -192 -143q-113 0 -190 75.5t-77 208.5v383q-20 61 -20 154v647h-125v6h309v-631q0 -75 4 -124.5t16 -98.5t39 -73.5t68 -24.5q60 0 108.5 18.5t80.5 47t56 71.5t36.5 85t20.5 94.5t10 92.5t2 86v451h-144v6h328v-936h123v-6
h-307v369q-30 -389 -334 -389q-210 0 -267 143v-371q0 -136 86 -213.5t220 -60.5q-40 15 -67.5 51.5t-27.5 89.5q0 52 36.5 90.5t86.5 38.5z" />
    <glyph glyph-name="periodcentered" unicode="&#xb7;" horiz-adv-x="405" 
d="M82 819q0 51 36 87t87 36t87 -36t36 -87t-36 -87t-87 -36t-87 36t-36 87z" />
    <glyph glyph-name="cedilla" unicode="&#xb8;" horiz-adv-x="1126" 
d="M674 -287q0 40 -16.5 65.5t-50 38t-70.5 17t-93 4.5l185 246h8l-123 -164q58 -2 110 -12.5t97 -29.5t71.5 -51t26.5 -73q0 -170 -346 -170v6q90 0 145.5 35t55.5 88z" />
    <glyph glyph-name="uni00B9" unicode="&#xb9;" horiz-adv-x="1085" 
d="M281 938h159v913h-139v4h256v-917h135v-4h-411v4z" />
    <glyph glyph-name="ordmasculine" unicode="&#xba;" horiz-adv-x="1081" 
d="M276 1268q0 124 77.5 209.5t203.5 85.5q127 0 205 -85.5t78 -209.5t-78 -209.5t-205 -85.5q-126 0 -203.5 85.5t-77.5 209.5zM406 1268q0 -291 151 -291q154 0 154 291t-154 291q-151 0 -151 -291z" />
    <glyph glyph-name="guillemotright" unicode="&#xbb;" horiz-adv-x="1423" 
d="M541 793l-420 495l2 2l676 -471v-51l-676 -471l-2 2zM1114 793l-420 495l2 2l676 -471v-51l-676 -471l-2 2z" />
    <glyph glyph-name="onequarter" unicode="&#xbc;" horiz-adv-x="1312" 
d="M45 733h160v914h-139v4h256v-918h135v-4h-412v4zM1071 1331h6l-989 -1536h-6zM1229 -207v-4h-326v4h117v258h-424l442 660h99v-656h135v-4h-135v-258h92zM602 55h418v621z" />
    <glyph glyph-name="onehalf" unicode="&#xbd;" horiz-adv-x="1372" 
d="M45 733h160v914h-139v4h256v-918h135v-4h-412v4zM1071 1331h6l-989 -1536h-6zM1331 -207h-583v80l270 262q164 158 164 334q0 112 -45 180t-140 68q-100 0 -168 -75.5t-61 -188.5q7 24 26.5 39.5t49.5 15.5t52 -18.5t22 -49.5q0 -36 -22.5 -58t-55.5 -22
q-35 0 -56.5 26.5t-21.5 80.5q0 114 72 187t202 73q125 0 197 -68t72 -165q0 -35 -10.5 -66t-32.5 -58.5t-40 -46t-48.5 -45t-43.5 -38.5l-346 -336h543v92h4v-203z" />
    <glyph glyph-name="threequarters" unicode="&#xbe;" horiz-adv-x="1435" 
d="M602 971q0 -117 -87.5 -187.5t-219.5 -70.5q-124 0 -189 53t-65 127q0 36 20.5 58t53.5 22q29 0 47 -18.5t18 -51.5q0 -29 -20.5 -48t-48.5 -19q-26 0 -43.5 13.5t-22.5 33.5q3 -66 65 -114t173 -48q52 0 91 22.5t60.5 60t32 79.5t10.5 88q0 31 -5 61t-20.5 65.5
t-41 61.5t-70.5 44t-104 18v4q56 0 96 16.5t60.5 39.5t32 57.5t13.5 58.5t2 55q0 48 -14 92t-47 76.5t-78 32.5q-76 0 -141 -42t-78 -106q21 41 65 41q29 0 49.5 -18t20.5 -49q0 -34 -21.5 -51t-48.5 -17q-29 0 -49 19.5t-20 56.5q0 67 67.5 118.5t161.5 51.5q108 0 183 -54
t75 -151q0 -49 -10.5 -84.5t-39 -68.5t-86 -52.5t-144.5 -23.5q92 -4 156 -26t98 -57.5t48.5 -76.5t14.5 -92zM1194 1331h6l-989 -1536h-6zM1352 -207v-4h-326v4h117v258h-424l442 660h99v-656h135v-4h-135v-258h92zM725 55h418v621z" />
    <glyph glyph-name="questiondown" unicode="&#xbf;" horiz-adv-x="1126" 
d="M729 963q0 -51 -36 -87t-87 -36t-87 36t-36 87t36 86.5t87 35.5t87 -35.5t36 -86.5zM612 350q-79 -16 -140.5 -58.5t-98.5 -102.5t-55.5 -129t-18.5 -142q0 -64 6 -116.5t24 -107.5t48 -92t82 -61t123 -24q82 0 157.5 30.5t126 77t82 99t35.5 98.5q-7 -24 -35.5 -46
t-70.5 -22q-47 0 -82 31t-35 82q0 56 36 85.5t81 29.5q49 0 82.5 -33.5t33.5 -93.5q0 -83 -57 -163.5t-155.5 -132t-209.5 -51.5q-216 0 -347.5 112.5t-131.5 297.5q0 175 148.5 298.5t367.5 137.5v283h4v-287z" />
    <glyph glyph-name="Agrave" unicode="&#xc0;" horiz-adv-x="1505" 
d="M451 1712q-29 0 -50.5 20.5t-21.5 49.5q0 33 26 55.5t66 11.5l483 -137l-2 -4zM41 6h197l544 1561h6l541 -1561h146v-6h-594v6h223l-158 492h-530l-172 -492h248v-6h-451v6zM692 1286l-274 -784h526z" />
    <glyph glyph-name="Aacute" unicode="&#xc1;" horiz-adv-x="1505" 
d="M1126 1712l-501 -4l-2 4l483 137q40 11 66 -11.5t26 -55.5q0 -29 -21.5 -49.5t-50.5 -20.5zM41 6h197l544 1561h6l541 -1561h146v-6h-594v6h223l-158 492h-530l-172 -492h248v-6h-451v6zM692 1286l-274 -784h526z" />
    <glyph glyph-name="Acircumflex" unicode="&#xc2;" horiz-adv-x="1505" 
d="M786 1843l-288 -137l-2 4l225 225h133l225 -225l-2 -4zM41 6h197l544 1561h6l541 -1561h146v-6h-594v6h223l-158 492h-530l-172 -492h248v-6h-451v6zM692 1286l-274 -784h526z" />
    <glyph glyph-name="Atilde" unicode="&#xc3;" horiz-adv-x="1505" 
d="M582 1851q-59 0 -101.5 -34t-42.5 -107h-6q0 123 60.5 191.5t142.5 68.5q48 0 100.5 -25.5t90.5 -55.5t84.5 -55.5t84.5 -25.5q70 0 107 33t37 109h6q0 -142 -44 -201t-138 -59q-46 0 -99.5 25t-94 55.5t-92.5 55.5t-95 25zM41 6h197l544 1561h6l541 -1561h146v-6h-594v6
h223l-158 492h-530l-172 -492h248v-6h-451v6zM692 1286l-274 -784h526z" />
    <glyph glyph-name="Adieresis" unicode="&#xc4;" horiz-adv-x="1505" 
d="M870 1812q0 51 36 87t87 36t87 -36t36 -87t-36 -86.5t-87 -35.5t-87 35.5t-36 86.5zM461 1812q0 51 36 87t87 36t87 -36t36 -87t-36 -86.5t-87 -35.5t-87 35.5t-36 86.5zM41 6h197l544 1561h6l541 -1561h146v-6h-594v6h223l-158 492h-530l-172 -492h248v-6h-451v6z
M692 1286l-274 -784h526z" />
    <glyph glyph-name="Aring" unicode="&#xc5;" horiz-adv-x="1505" 
d="M604 1858q0 78 53 131t131 53t131.5 -53t53.5 -131t-53.5 -131.5t-131.5 -53.5t-131 53.5t-53 131.5zM676 1858q0 -179 112 -179q113 0 113 179q0 178 -113 178q-112 0 -112 -178zM41 6h197l544 1561h6l541 -1561h146v-6h-594v6h223l-158 492h-530l-172 -492h248v-6h-451
v6zM692 1286l-274 -784h526z" />
    <glyph glyph-name="AE" unicode="&#xc6;" horiz-adv-x="2048" 
d="M31 6h196l848 1530h891v-420h-6q0 84 -20 157t-60.5 131.5t-107.5 92t-154 33.5h-348v-733h123q92 0 155.5 57t63.5 156h6v-441h-6q0 100 -64 162t-155 62h-123v-787h327q103 0 178 34t119 96.5t65 143t21 181.5h7v-461h-1096v6h184v494h-567l-272 -494h245v-6h-450v6z
M510 504h565v1018z" />
    <glyph glyph-name="Ccedilla" unicode="&#xc7;" horiz-adv-x="1372" 
d="M844 -383q0 40 -16.5 65.5t-50 38t-70.5 17t-93 4.5l179 238h-5q-205 0 -364 101.5t-245.5 280.5t-86.5 406t86.5 406t245.5 280.5t364 101.5q102 0 194 -37t159 -102l123 119h6v-420h-6q0 121 -65.5 220.5t-169 153.5t-220.5 54q-103 0 -186 -45.5t-137.5 -120
t-90.5 -176.5t-51.5 -209.5t-15.5 -224.5t15.5 -224.5t51.5 -209.5t90.5 -176.5t137.5 -120t186 -45.5q207 0 341 126t134 302h6v-420h-6l-110 127q-68 -68 -164 -107t-209 -40l-117 -156q58 -2 110 -12.5t97 -29.5t71.5 -51t26.5 -73q0 -170 -346 -170v6q90 0 145.5 35
t55.5 88z" />
    <glyph glyph-name="Egrave" unicode="&#xc8;" horiz-adv-x="1198" 
d="M260 1702q-29 0 -50.5 20.5t-21.5 49.5q0 33 26.5 55.5t66.5 11.5l483 -137l-2 -4zM762 569q0 100 -64 162t-155 62h-123v-787h328q103 0 178 34t119 96.5t64.5 143t20.5 181.5h7v-461h-1096v6h184v1524h-184v6h1075v-420h-6q0 84 -20 157t-60.5 131.5t-107.5 92
t-154 33.5h-348v-733h123q92 0 155.5 57t63.5 156h6v-441h-6z" />
    <glyph glyph-name="Eacute" unicode="&#xc9;" horiz-adv-x="1198" 
d="M938 1702l-502 -4l-2 4l484 137q40 11 66 -11.5t26 -55.5q0 -29 -21.5 -49.5t-50.5 -20.5zM762 569q0 100 -64 162t-155 62h-123v-787h328q103 0 178 34t119 96.5t64.5 143t20.5 181.5h7v-461h-1096v6h184v1524h-184v6h1075v-420h-6q0 84 -20 157t-60.5 131.5t-107.5 92
t-154 33.5h-348v-733h123q92 0 155.5 57t63.5 156h6v-441h-6z" />
    <glyph glyph-name="Ecircumflex" unicode="&#xca;" horiz-adv-x="1198" 
d="M598 1833l-289 -137l-2 4l225 225h134l225 -225l-2 -4zM762 569q0 100 -64 162t-155 62h-123v-787h328q103 0 178 34t119 96.5t64.5 143t20.5 181.5h7v-461h-1096v6h184v1524h-184v6h1075v-420h-6q0 84 -20 157t-60.5 131.5t-107.5 92t-154 33.5h-348v-733h123
q92 0 155.5 57t63.5 156h6v-441h-6z" />
    <glyph glyph-name="Edieresis" unicode="&#xcb;" horiz-adv-x="1198" 
d="M682 1802q0 51 36 87t87 36t87 -36t36 -87t-36 -87t-87 -36t-87 36t-36 87zM272 1802q0 51 36 87t87 36t87 -36t36 -87t-36 -87t-87 -36t-87 36t-36 87zM762 569q0 100 -64 162t-155 62h-123v-787h328q103 0 178 34t119 96.5t64.5 143t20.5 181.5h7v-461h-1096v6h184
v1524h-184v6h1075v-420h-6q0 84 -20 157t-60.5 131.5t-107.5 92t-154 33.5h-348v-733h123q92 0 155.5 57t63.5 156h6v-441h-6z" />
    <glyph glyph-name="Igrave" unicode="&#xcc;" horiz-adv-x="737" 
d="M55 1702q-29 0 -50 20.5t-21 49.5q0 33 26 55.5t66 11.5l483 -137l-2 -4zM41 6h225v1524h-225v6h666v-6h-246v-1524h246v-6h-666v6z" />
    <glyph glyph-name="Iacute" unicode="&#xcd;" horiz-adv-x="737" 
d="M733 1702l-502 -4l-2 4l484 137q40 11 66 -11.5t26 -55.5q0 -29 -21.5 -49.5t-50.5 -20.5zM41 6h225v1524h-225v6h666v-6h-246v-1524h246v-6h-666v6z" />
    <glyph glyph-name="Icircumflex" unicode="&#xce;" horiz-adv-x="737" 
d="M393 1833l-289 -137l-2 4l226 225h133l225 -225l-2 -4zM41 6h225v1524h-225v6h666v-6h-246v-1524h246v-6h-666v6z" />
    <glyph glyph-name="Idieresis" unicode="&#xcf;" horiz-adv-x="737" 
d="M477 1802q0 51 36 87t87 36t87 -36t36 -87t-36 -87t-87 -36t-87 36t-36 87zM68 1802q0 51 35.5 87t86.5 36t87 -36t36 -87t-36 -87t-87 -36t-86.5 36t-35.5 87zM41 6h225v1524h-225v6h666v-6h-246v-1524h246v-6h-666v6z" />
    <glyph glyph-name="Eth" unicode="&#xd0;" horiz-adv-x="1433" 
d="M614 0h-573v6h184v760h-123v4h123v760h-184v6h573q223 0 392.5 -101.5t257.5 -275t88 -391.5q0 -216 -92.5 -391t-262 -276t-383.5 -101zM594 766h-174v-760h194q109 0 196.5 44t143.5 116.5t93.5 172.5t53 206t15.5 223q0 115 -17.5 222.5t-57 206.5t-96.5 172.5
t-142.5 117t-188.5 43.5h-194v-760h174v-4z" />
    <glyph glyph-name="Ntilde" unicode="&#xd1;" horiz-adv-x="1495" 
d="M565 1841q-59 0 -101 -34t-42 -107h-6q0 123 60 191.5t142 68.5q48 0 100.5 -25.5t90.5 -55.5t85 -55.5t85 -25.5q70 0 106.5 32.5t36.5 108.5h6q0 -142 -44 -201t-138 -59q-46 0 -99.5 25.5t-94 55.5t-92.5 55.5t-95 25.5zM41 6h203v1524h-203v6h440l762 -1225v1219
h-244v6h465v-6h-215v-1550h-6l-993 1550v-1524h248v-6h-457v6z" />
    <glyph glyph-name="Ograve" unicode="&#xd2;" horiz-adv-x="1484" 
d="M532 1763q-29 0 -50 20.5t-21 49.5q0 33 26 56t66 12l483 -138l-2 -4zM748 -20q-122 0 -227.5 40t-183.5 112t-133.5 170t-83.5 216.5t-28 249.5q0 163 47.5 307t132 250.5t208 168.5t268.5 62q193 0 343.5 -106t231 -285t80.5 -397q0 -164 -44.5 -307t-126.5 -250.5
t-207 -169t-277 -61.5zM748 1550q-81 0 -147.5 -31.5t-111 -89t-77 -130t-50.5 -163.5t-26 -180t-8 -188q0 -86 4.5 -161t16.5 -156.5t32 -147.5t52.5 -126.5t75.5 -101.5t104 -65t135 -24q86 0 154 31t113 89.5t76 130t47 164t22.5 179t6.5 188.5q0 99 -8 188t-26 180
t-50 163.5t-77 130t-111 89t-147 31.5z" />
    <glyph glyph-name="Oacute" unicode="&#xd3;" horiz-adv-x="1484" 
d="M1004 1763l-502 -4l-2 4l483 138q40 11 66 -12t26 -56q0 -29 -21 -49.5t-50 -20.5zM748 -20q-122 0 -227.5 40t-183.5 112t-133.5 170t-83.5 216.5t-28 249.5q0 163 47.5 307t132 250.5t208 168.5t268.5 62q193 0 343.5 -106t231 -285t80.5 -397q0 -164 -44.5 -307
t-126.5 -250.5t-207 -169t-277 -61.5zM748 1550q-81 0 -147.5 -31.5t-111 -89t-77 -130t-50.5 -163.5t-26 -180t-8 -188q0 -86 4.5 -161t16.5 -156.5t32 -147.5t52.5 -126.5t75.5 -101.5t104 -65t135 -24q86 0 154 31t113 89.5t76 130t47 164t22.5 179t6.5 188.5
q0 99 -8 188t-26 180t-50 163.5t-77 130t-111 89t-147 31.5z" />
    <glyph glyph-name="Ocircumflex" unicode="&#xd4;" horiz-adv-x="1484" 
d="M766 1833l-289 -137l-2 4l225 225h134l225 -225l-2 -4zM748 -20q-122 0 -227.5 40t-183.5 112t-133.5 170t-83.5 216.5t-28 249.5q0 163 47.5 307t132 250.5t208 168.5t268.5 62q193 0 343.5 -106t231 -285t80.5 -397q0 -164 -44.5 -307t-126.5 -250.5t-207 -169
t-277 -61.5zM748 1550q-81 0 -147.5 -31.5t-111 -89t-77 -130t-50.5 -163.5t-26 -180t-8 -188q0 -86 4.5 -161t16.5 -156.5t32 -147.5t52.5 -126.5t75.5 -101.5t104 -65t135 -24q86 0 154 31t113 89.5t76 130t47 164t22.5 179t6.5 188.5q0 99 -8 188t-26 180t-50 163.5
t-77 130t-111 89t-147 31.5z" />
    <glyph glyph-name="Otilde" unicode="&#xd5;" horiz-adv-x="1484" 
d="M561 1841q-59 0 -101 -34t-42 -107h-6q0 123 60 191.5t142 68.5q48 0 100.5 -25.5t90.5 -55.5t85 -55.5t85 -25.5q70 0 106.5 32.5t36.5 108.5h6q0 -142 -44 -201t-138 -59q-46 0 -99.5 25.5t-94 55.5t-92.5 55.5t-95 25.5zM748 -20q-122 0 -227.5 40t-183.5 112
t-133.5 170t-83.5 216.5t-28 249.5q0 163 47.5 307t132 250.5t208 168.5t268.5 62q193 0 343.5 -106t231 -285t80.5 -397q0 -164 -44.5 -307t-126.5 -250.5t-207 -169t-277 -61.5zM748 1550q-81 0 -147.5 -31.5t-111 -89t-77 -130t-50.5 -163.5t-26 -180t-8 -188
q0 -86 4.5 -161t16.5 -156.5t32 -147.5t52.5 -126.5t75.5 -101.5t104 -65t135 -24q86 0 154 31t113 89.5t76 130t47 164t22.5 179t6.5 188.5q0 99 -8 188t-26 180t-50 163.5t-77 130t-111 89t-147 31.5z" />
    <glyph glyph-name="Odieresis" unicode="&#xd6;" horiz-adv-x="1484" 
d="M850 1802q0 51 36 87t87 36t87 -36t36 -87t-36 -87t-87 -36t-87 36t-36 87zM440 1802q0 51 36 87t87 36t87 -36t36 -87t-36 -87t-87 -36t-87 36t-36 87zM748 -20q-122 0 -227.5 40t-183.5 112t-133.5 170t-83.5 216.5t-28 249.5q0 163 47.5 307t132 250.5t208 168.5
t268.5 62q193 0 343.5 -106t231 -285t80.5 -397q0 -164 -44.5 -307t-126.5 -250.5t-207 -169t-277 -61.5zM748 1550q-81 0 -147.5 -31.5t-111 -89t-77 -130t-50.5 -163.5t-26 -180t-8 -188q0 -86 4.5 -161t16.5 -156.5t32 -147.5t52.5 -126.5t75.5 -101.5t104 -65t135 -24
q86 0 154 31t113 89.5t76 130t47 164t22.5 179t6.5 188.5q0 99 -8 188t-26 180t-50 163.5t-77 130t-111 89t-147 31.5z" />
    <glyph glyph-name="multiply" unicode="&#xd7;" horiz-adv-x="1085" 
d="M242 352l297 295l-295 293l2 4l295 -295l295 295l4 -2l-297 -295l297 -297l-2 -4l-297 297l-295 -295z" />
    <glyph glyph-name="Oslash" unicode="&#xd8;" horiz-adv-x="1484" 
d="M748 -20q-179 0 -320 83l-127 -268h-6l127 273q-158 97 -244 282.5t-86 417.5q0 163 47.5 307t132 250.5t208 168.5t268.5 62q181 0 329 -96l113 240h6l-115 -244q151 -100 236.5 -282.5t85.5 -405.5q0 -164 -44.5 -307t-126.5 -250.5t-207 -169t-277 -61.5zM748 1550
q-81 0 -147.5 -31.5t-111 -89t-77 -130t-50.5 -163.5t-26 -180t-8 -188q0 -440 129 -631l583 1245q-104 168 -292 168zM1167 768q0 406 -123 608l-585 -1243q103 -147 289 -147q86 0 154 31t113 89.5t76 130t47 164t22.5 179t6.5 188.5z" />
    <glyph glyph-name="Ugrave" unicode="&#xd9;" horiz-adv-x="1423" 
d="M502 1743q-30 0 -51 20t-21 49q0 33 26 56t66 12l484 -137l-2 -4zM41 1536h584v-6h-205v-1038q0 -87 8.5 -157.5t32.5 -138t63 -113t103.5 -73.5t150.5 -28q205 0 306.5 120.5t101.5 368.5v1059h-193v6h400v-6h-203v-1059q0 -258 -107 -380t-346 -122q-267 0 -389.5 119
t-122.5 383v1059h-184v6z" />
    <glyph glyph-name="Uacute" unicode="&#xda;" horiz-adv-x="1423" 
d="M973 1743l-502 -4l-2 4l483 137q40 11 66 -12t26 -56q0 -29 -21 -49t-50 -20zM41 1536h584v-6h-205v-1038q0 -87 8.5 -157.5t32.5 -138t63 -113t103.5 -73.5t150.5 -28q205 0 306.5 120.5t101.5 368.5v1059h-193v6h400v-6h-203v-1059q0 -258 -107 -380t-346 -122
q-267 0 -389.5 119t-122.5 383v1059h-184v6z" />
    <glyph glyph-name="Ucircumflex" unicode="&#xdb;" horiz-adv-x="1423" 
d="M737 1833l-288 -137l-3 4l226 225h133l225 -225l-2 -4zM41 1536h584v-6h-205v-1038q0 -87 8.5 -157.5t32.5 -138t63 -113t103.5 -73.5t150.5 -28q205 0 306.5 120.5t101.5 368.5v1059h-193v6h400v-6h-203v-1059q0 -258 -107 -380t-346 -122q-267 0 -389.5 119t-122.5 383
v1059h-184v6z" />
    <glyph glyph-name="Udieresis" unicode="&#xdc;" horiz-adv-x="1423" 
d="M819 1802q0 51 36 87t87 36t87 -36t36 -87t-36 -87t-87 -36t-87 36t-36 87zM410 1802q0 51 35.5 87t86.5 36t87 -36t36 -87t-36 -87t-87 -36t-86.5 36t-35.5 87zM41 1536h584v-6h-205v-1038q0 -87 8.5 -157.5t32.5 -138t63 -113t103.5 -73.5t150.5 -28q205 0 306.5 120.5
t101.5 368.5v1059h-193v6h400v-6h-203v-1059q0 -258 -107 -380t-346 -122q-267 0 -389.5 119t-122.5 383v1059h-184v6z" />
    <glyph glyph-name="Yacute" unicode="&#xdd;" horiz-adv-x="1454" 
d="M1049 1743l-502 -4l-2 4l483 137q40 11 66 -12t26 -56q0 -29 -21 -49t-50 -20zM471 6h184v731l-477 793h-147v6h594v-6h-222l443 -739l397 739h-239v6h430v-6h-183l-401 -746v-778h205v-6h-584v6z" />
    <glyph glyph-name="Thorn" unicode="&#xde;" horiz-adv-x="1239" 
d="M31 6h184v1524h-184v6h563v-6h-184v-301h225q271 0 401.5 -112t130.5 -318t-130.5 -318t-401.5 -112h-225v-363h184v-6h-563v6zM635 1223h-225v-848h225q93 0 165.5 69t107 164.5t34.5 190.5t-34.5 190.5t-107 164.5t-165.5 69z" />
    <glyph glyph-name="germandbls" unicode="&#xdf;" horiz-adv-x="1394" 
d="M31 6h184v1000q0 262 147.5 406t401.5 144q213 0 350 -109t137 -257q0 -74 -25 -134.5t-78.5 -110t-147 -79.5t-220.5 -37q125 -7 219.5 -38t153.5 -76.5t95.5 -109t50.5 -130.5t14 -147q0 -150 -115 -249t-274 -99q-112 0 -187 81t-75 218q0 62 35.5 97.5t90.5 35.5
q48 0 79.5 -30.5t31.5 -84.5q0 -48 -35.5 -80.5t-81.5 -32.5q-43 0 -72.5 25t-39.5 59q4 -128 74 -203t169 -75q46 0 82 23t56.5 58t33 82t17 89t4.5 86q0 45 -4 88.5t-15.5 94.5t-30 94.5t-50 85.5t-72.5 71t-100.5 47t-131.5 18v4q76 0 136.5 23t98 58t62.5 81.5t35 90
t10 85.5q0 60 -14.5 122t-45 122.5t-87.5 98.5t-133 38q-99 0 -172 -46.5t-114 -128t-60 -178.5t-19 -212v-979h185v-6h-553v6z" />
    <glyph glyph-name="agrave" unicode="&#xe0;" horiz-adv-x="1067" 
d="M262 1149q-29 0 -50.5 20.5t-21.5 49.5q0 33 26.5 55.5t66.5 11.5l483 -137l-2 -4zM530 516h127v109q0 40 -2 72t-8 71.5t-18.5 69t-31.5 55.5t-49.5 39.5t-70.5 13.5q-91 0 -164.5 -29.5t-109.5 -70.5q80 30 129 -3t49 -89t-38 -86.5t-83 -30.5q-47 0 -76.5 29.5
t-29.5 83.5q0 61 52.5 109.5t135 73.5t176.5 25q64 0 114.5 -10.5t84 -26t57.5 -42.5t37 -52.5t20.5 -63.5t9 -67t1.5 -71v-539q0 -82 73 -82q33 0 77 33t71 92h4q-34 -74 -93 -111.5t-128 -37.5q-40 0 -71 7t-59 24.5t-43.5 52.5t-15.5 86v108q-18 -140 -89 -209t-210 -69
q-122 0 -199 69t-77 182q0 134 111 209.5t337 75.5zM434 4q100 0 161.5 89t61.5 278v141h-127q-112 0 -175.5 -78t-63.5 -194q0 -105 38 -170.5t105 -65.5z" />
    <glyph glyph-name="aacute" unicode="&#xe1;" horiz-adv-x="1067" 
d="M754 1149l-502 -4l-2 4l483 137q40 11 66 -11.5t26 -55.5q0 -29 -21 -49.5t-50 -20.5zM530 516h127v109q0 40 -2 72t-8 71.5t-18.5 69t-31.5 55.5t-49.5 39.5t-70.5 13.5q-91 0 -164.5 -29.5t-109.5 -70.5q80 30 129 -3t49 -89t-38 -86.5t-83 -30.5q-47 0 -76.5 29.5
t-29.5 83.5q0 61 52.5 109.5t135 73.5t176.5 25q64 0 114.5 -10.5t84 -26t57.5 -42.5t37 -52.5t20.5 -63.5t9 -67t1.5 -71v-539q0 -82 73 -82q33 0 77 33t71 92h4q-34 -74 -93 -111.5t-128 -37.5q-40 0 -71 7t-59 24.5t-43.5 52.5t-15.5 86v108q-18 -140 -89 -209t-210 -69
q-122 0 -199 69t-77 182q0 134 111 209.5t337 75.5zM434 4q100 0 161.5 89t61.5 278v141h-127q-112 0 -175.5 -78t-63.5 -194q0 -105 38 -170.5t105 -65.5z" />
    <glyph glyph-name="acircumflex" unicode="&#xe2;" horiz-adv-x="1067" 
d="M539 1239l-289 -137l-2 4l225 225h133l225 -225l-2 -4zM530 516h127v109q0 40 -2 72t-8 71.5t-18.5 69t-31.5 55.5t-49.5 39.5t-70.5 13.5q-91 0 -164.5 -29.5t-109.5 -70.5q80 30 129 -3t49 -89t-38 -86.5t-83 -30.5q-47 0 -76.5 29.5t-29.5 83.5q0 61 52.5 109.5
t135 73.5t176.5 25q64 0 114.5 -10.5t84 -26t57.5 -42.5t37 -52.5t20.5 -63.5t9 -67t1.5 -71v-539q0 -82 73 -82q33 0 77 33t71 92h4q-34 -74 -93 -111.5t-128 -37.5q-40 0 -71 7t-59 24.5t-43.5 52.5t-15.5 86v108q-18 -140 -89 -209t-210 -69q-122 0 -199 69t-77 182
q0 134 111 209.5t337 75.5zM434 4q100 0 161.5 89t61.5 278v141h-127q-112 0 -175.5 -78t-63.5 -194q0 -105 38 -170.5t105 -65.5z" />
    <glyph glyph-name="atilde" unicode="&#xe3;" horiz-adv-x="1067" 
d="M332 1247q-59 0 -101.5 -34t-42.5 -107h-6q0 123 60.5 191.5t142.5 68.5q48 0 100.5 -25.5t90.5 -55.5t84.5 -55.5t84.5 -25.5q70 0 107 33t37 109h6q0 -142 -44 -201.5t-138 -59.5q-46 0 -99.5 25.5t-94 55.5t-92.5 55.5t-95 25.5zM530 516h127v109q0 40 -2 72t-8 71.5
t-18.5 69t-31.5 55.5t-49.5 39.5t-70.5 13.5q-91 0 -164.5 -29.5t-109.5 -70.5q80 30 129 -3t49 -89t-38 -86.5t-83 -30.5q-47 0 -76.5 29.5t-29.5 83.5q0 61 52.5 109.5t135 73.5t176.5 25q64 0 114.5 -10.5t84 -26t57.5 -42.5t37 -52.5t20.5 -63.5t9 -67t1.5 -71v-539
q0 -82 73 -82q33 0 77 33t71 92h4q-34 -74 -93 -111.5t-128 -37.5q-40 0 -71 7t-59 24.5t-43.5 52.5t-15.5 86v108q-18 -140 -89 -209t-210 -69q-122 0 -199 69t-77 182q0 134 111 209.5t337 75.5zM434 4q100 0 161.5 89t61.5 278v141h-127q-112 0 -175.5 -78t-63.5 -194
q0 -105 38 -170.5t105 -65.5z" />
    <glyph glyph-name="adieresis" unicode="&#xe4;" horiz-adv-x="1067" 
d="M621 1208q0 51 35.5 87t86.5 36t87 -36t36 -87t-36 -87t-87 -36t-86.5 36t-35.5 87zM211 1208q0 51 36 87t87 36t87 -36t36 -87t-36 -87t-87 -36t-87 36t-36 87zM530 516h127v109q0 40 -2 72t-8 71.5t-18.5 69t-31.5 55.5t-49.5 39.5t-70.5 13.5q-91 0 -164.5 -29.5
t-109.5 -70.5q80 30 129 -3t49 -89t-38 -86.5t-83 -30.5q-47 0 -76.5 29.5t-29.5 83.5q0 61 52.5 109.5t135 73.5t176.5 25q64 0 114.5 -10.5t84 -26t57.5 -42.5t37 -52.5t20.5 -63.5t9 -67t1.5 -71v-539q0 -82 73 -82q33 0 77 33t71 92h4q-34 -74 -93 -111.5t-128 -37.5
q-40 0 -71 7t-59 24.5t-43.5 52.5t-15.5 86v108q-18 -140 -89 -209t-210 -69q-122 0 -199 69t-77 182q0 134 111 209.5t337 75.5zM434 4q100 0 161.5 89t61.5 278v141h-127q-112 0 -175.5 -78t-63.5 -194q0 -105 38 -170.5t105 -65.5z" />
    <glyph glyph-name="aring" unicode="&#xe5;" horiz-adv-x="1067" 
d="M354 1270q0 78 53.5 131t131.5 53t131 -53t53 -131t-53 -131.5t-131 -53.5t-131.5 53.5t-53.5 131.5zM426 1270q0 -178 113 -178q112 0 112 178t-112 178q-113 0 -113 -178zM530 516h127v109q0 40 -2 72t-8 71.5t-18.5 69t-31.5 55.5t-49.5 39.5t-70.5 13.5
q-91 0 -164.5 -29.5t-109.5 -70.5q80 30 129 -3t49 -89t-38 -86.5t-83 -30.5q-47 0 -76.5 29.5t-29.5 83.5q0 61 52.5 109.5t135 73.5t176.5 25q64 0 114.5 -10.5t84 -26t57.5 -42.5t37 -52.5t20.5 -63.5t9 -67t1.5 -71v-539q0 -82 73 -82q33 0 77 33t71 92h4
q-34 -74 -93 -111.5t-128 -37.5q-40 0 -71 7t-59 24.5t-43.5 52.5t-15.5 86v108q-18 -140 -89 -209t-210 -69q-122 0 -199 69t-77 182q0 134 111 209.5t337 75.5zM434 4q100 0 161.5 89t61.5 278v141h-127q-112 0 -175.5 -78t-63.5 -194q0 -105 38 -170.5t105 -65.5z" />
    <glyph glyph-name="ae" unicode="&#xe6;" horiz-adv-x="1562" 
d="M143 750q0 61 53 109.5t135.5 73.5t176.5 25q200 0 256 -133q116 138 321 138q110 0 194 -38t133 -103.5t73 -143t24 -164.5h-680v-43q0 -74 8 -140t29 -129.5t52.5 -109.5t82 -74t115.5 -28q145 0 247 84t142 219h6q-42 -141 -149 -227t-270 -86q-122 0 -215.5 50
t-149.5 144q-78 -194 -317 -194q-65 0 -122 12.5t-107 40t-79.5 78.5t-29.5 120q0 131 116.5 208t331.5 77h127v109q0 40 -2 72t-8 71t-18.5 68.5t-31.5 55t-49.5 39t-70.5 13.5q-90 0 -160.5 -28t-113.5 -70q80 30 129 -3t49 -89t-38 -86.5t-83 -30.5q-47 0 -77 29.5
t-30 83.5zM1292 520q-5 436 -207 436q-68 0 -118 -36.5t-78 -100.5t-42.5 -137.5t-17.5 -161.5h463zM444 -12q57 0 104 52.5t73 140t26 190.5v141h-127q-111 0 -175 -74t-64 -176q0 -72 16.5 -132t54.5 -101t92 -41z" />
    <glyph glyph-name="ccedilla" unicode="&#xe7;" horiz-adv-x="989" 
d="M594 -383q0 32 -11.5 55t-30.5 36.5t-49.5 21t-62 10t-75.5 2.5l178 238h-4q-205 0 -336 132.5t-131 358.5q0 101 32 189.5t91 156t151 107t205 39.5q153 0 246.5 -76t93.5 -189q0 -60 -34 -93.5t-83 -33.5q-45 0 -81 29.5t-36 85.5q0 51 35 82t82 31q37 0 70.5 -20.5
t38.5 -41.5q-18 99 -106.5 158t-205.5 59q-59 0 -105.5 -22t-76.5 -61t-51 -85.5t-31.5 -104t-15 -107t-4.5 -103.5q0 -481 266 -481q131 0 217.5 81.5t130.5 221.5h6q-89 -305 -356 -313l-117 -156q58 -2 110 -12.5t97 -29.5t71.5 -51t26.5 -73q0 -170 -346 -170v6
q90 0 145.5 35t55.5 88z" />
    <glyph glyph-name="egrave" unicode="&#xe8;" horiz-adv-x="1030" 
d="M328 1169q-29 0 -50.5 20.5t-21.5 49.5q0 33 26 56t66 12l483 -138l-2 -4zM969 293q-42 -141 -149.5 -227t-270.5 -86q-135 0 -242.5 58t-171 170.5t-63.5 262.5q0 113 36 206t99 155.5t149.5 96.5t186.5 34q110 0 194 -35.5t133 -97t73 -136.5t24 -162h-678
q-2 -20 -2 -61q0 -96 12.5 -175.5t41.5 -152t85.5 -114t136.5 -41.5q151 0 255.5 85t144.5 220h6zM543 956q-66 0 -115.5 -34.5t-78 -96t-43 -132.5t-17.5 -156h461q1 55 -3 106t-17 110t-34.5 102t-61 72t-91.5 29z" />
    <glyph glyph-name="eacute" unicode="&#xe9;" horiz-adv-x="1030" 
d="M799 1169l-502 -4l-2 4l483 138q40 11 66 -12t26 -56q0 -29 -21 -49.5t-50 -20.5zM969 293q-42 -141 -149.5 -227t-270.5 -86q-135 0 -242.5 58t-171 170.5t-63.5 262.5q0 113 36 206t99 155.5t149.5 96.5t186.5 34q110 0 194 -35.5t133 -97t73 -136.5t24 -162h-678
q-2 -20 -2 -61q0 -96 12.5 -175.5t41.5 -152t85.5 -114t136.5 -41.5q151 0 255.5 85t144.5 220h6zM543 956q-66 0 -115.5 -34.5t-78 -96t-43 -132.5t-17.5 -156h461q1 55 -3 106t-17 110t-34.5 102t-61 72t-91.5 29z" />
    <glyph glyph-name="ecircumflex" unicode="&#xea;" horiz-adv-x="1030" 
d="M563 1239l-289 -137l-2 4l226 225h133l225 -225l-2 -4zM969 293q-42 -141 -149.5 -227t-270.5 -86q-135 0 -242.5 58t-171 170.5t-63.5 262.5q0 113 36 206t99 155.5t149.5 96.5t186.5 34q110 0 194 -35.5t133 -97t73 -136.5t24 -162h-678q-2 -20 -2 -61
q0 -96 12.5 -175.5t41.5 -152t85.5 -114t136.5 -41.5q151 0 255.5 85t144.5 220h6zM543 956q-66 0 -115.5 -34.5t-78 -96t-43 -132.5t-17.5 -156h461q1 55 -3 106t-17 110t-34.5 102t-61 72t-91.5 29z" />
    <glyph glyph-name="edieresis" unicode="&#xeb;" horiz-adv-x="1030" 
d="M645 1208q0 51 36 87t87 36t87 -36t36 -87t-36 -87t-87 -36t-87 36t-36 87zM236 1208q0 51 35.5 87t86.5 36t87 -36t36 -87t-36 -87t-87 -36t-86.5 36t-35.5 87zM969 293q-42 -141 -149.5 -227t-270.5 -86q-135 0 -242.5 58t-171 170.5t-63.5 262.5q0 113 36 206
t99 155.5t149.5 96.5t186.5 34q110 0 194 -35.5t133 -97t73 -136.5t24 -162h-678q-2 -20 -2 -61q0 -96 12.5 -175.5t41.5 -152t85.5 -114t136.5 -41.5q151 0 255.5 85t144.5 220h6zM543 956q-66 0 -115.5 -34.5t-78 -96t-43 -132.5t-17.5 -156h461q1 55 -3 106t-17 110
t-34.5 102t-61 72t-91.5 29z" />
    <glyph glyph-name="igrave" unicode="&#xec;" horiz-adv-x="552" 
d="M-51 1149q-29 0 -50.5 20.5t-21.5 49.5q0 33 26 55.5t66 11.5l484 -137l-2 -4zM41 6h143v930h-143v6h328v-936h143v-6h-471v6z" />
    <glyph glyph-name="iacute" unicode="&#xed;" horiz-adv-x="552" 
d="M502 1149l-502 -4l-2 4l483 137q40 11 66 -11.5t26 -55.5q0 -29 -21 -49.5t-50 -20.5zM41 6h143v930h-143v6h328v-936h143v-6h-471v6z" />
    <glyph glyph-name="icircumflex" unicode="&#xee;" horiz-adv-x="552" 
d="M205 1239l-289 -137l-2 4l225 225h133l226 -225l-2 -4zM41 6h143v930h-143v6h328v-936h143v-6h-471v6z" />
    <glyph glyph-name="idieresis" unicode="&#xef;" horiz-adv-x="552" 
d="M307 1270q0 51 36 87t87 36t87 -36t36 -87t-36 -87t-87 -36t-87 36t-36 87zM-102 1270q0 51 35.5 87t86.5 36t87 -36t36 -87t-36 -87t-87 -36t-86.5 36t-35.5 87zM41 6h143v930h-143v6h328v-936h143v-6h-471v6z" />
    <glyph glyph-name="eth" unicode="&#xf0;" horiz-adv-x="1146" 
d="M1044 635q0 -318 -132 -486.5t-367 -168.5q-151 0 -261.5 69.5t-166.5 188.5t-56 274q0 101 27 184.5t71.5 139.5t103 94.5t121 56t126.5 17.5q290 0 330 -312q-6 155 -57.5 311.5t-137.5 280.5h-420v6h414q-86 121 -194.5 190.5t-229.5 69.5v6q166 0 315.5 -70
t264.5 -196h290v-6h-286q116 -128 180.5 -296t64.5 -353zM266 512q0 -63 5 -120.5t16 -119t32 -111.5t50 -90t72.5 -62.5t97.5 -22.5q80 0 140.5 52t94 139.5t50 187t16.5 208.5q0 71 -9.5 132t-31 113.5t-54 89.5t-81 58t-109.5 21q-134 0 -211.5 -132.5t-77.5 -342.5z" />
    <glyph glyph-name="ntilde" unicode="&#xf1;" 
d="M401 1247q-59 0 -101 -34t-42 -107h-6q0 123 60.5 191.5t142.5 68.5q48 0 100.5 -25.5t90.5 -55.5t84.5 -55.5t84.5 -25.5q70 0 106.5 33t36.5 109h7q0 -142 -44.5 -201.5t-138.5 -59.5q-46 0 -99.5 25.5t-94 55.5t-92.5 55.5t-95 25.5zM41 6h125v930h-125v6h309v-350
q38 371 334 371q87 0 146 -22.5t90 -66.5t43 -96.5t12 -124.5v-647h123v-6h-432v6h125v625q0 75 -4 124.5t-16 98.5t-39 73.5t-68 24.5q-60 0 -108.5 -18.5t-80.5 -47t-56 -71.5t-36.5 -85t-20.5 -94.5t-10 -92.5t-2 -86v-451h123v-6h-432v6z" />
    <glyph glyph-name="ograve" unicode="&#xf2;" horiz-adv-x="1081" 
d="M346 1149q-29 0 -50.5 20.5t-21.5 49.5q0 33 26.5 55.5t66.5 11.5l483 -137l-2 -4zM72 471q0 134 56 245t164.5 179t248.5 68t248.5 -68t164.5 -179t56 -245t-56 -245t-164.5 -178.5t-248.5 -67.5t-248.5 67.5t-164.5 178.5t-56 245zM287 471q0 -55 3.5 -104t12.5 -107
t27.5 -104.5t45.5 -86t69 -61.5t96 -22t96 22t69 61.5t45.5 86t27.5 104.5t12.5 107t3.5 104t-3.5 104t-12.5 107t-27.5 104.5t-45.5 86t-69 61.5t-96 22t-96 -22t-69 -61.5t-45.5 -86t-27.5 -104.5t-12.5 -107t-3.5 -104z" />
    <glyph glyph-name="oacute" unicode="&#xf3;" horiz-adv-x="1081" 
d="M817 1149l-502 -4l-2 4l484 137q40 11 66 -11.5t26 -55.5q0 -29 -21.5 -49.5t-50.5 -20.5zM72 471q0 134 56 245t164.5 179t248.5 68t248.5 -68t164.5 -179t56 -245t-56 -245t-164.5 -178.5t-248.5 -67.5t-248.5 67.5t-164.5 178.5t-56 245zM287 471q0 -55 3.5 -104
t12.5 -107t27.5 -104.5t45.5 -86t69 -61.5t96 -22t96 22t69 61.5t45.5 86t27.5 104.5t12.5 107t3.5 104t-3.5 104t-12.5 107t-27.5 104.5t-45.5 86t-69 61.5t-96 22t-96 -22t-69 -61.5t-45.5 -86t-27.5 -104.5t-12.5 -107t-3.5 -104z" />
    <glyph glyph-name="ocircumflex" unicode="&#xf4;" horiz-adv-x="1081" 
d="M559 1239l-289 -137l-2 4l226 225h133l225 -225l-2 -4zM72 471q0 134 56 245t164.5 179t248.5 68t248.5 -68t164.5 -179t56 -245t-56 -245t-164.5 -178.5t-248.5 -67.5t-248.5 67.5t-164.5 178.5t-56 245zM287 471q0 -55 3.5 -104t12.5 -107t27.5 -104.5t45.5 -86
t69 -61.5t96 -22t96 22t69 61.5t45.5 86t27.5 104.5t12.5 107t3.5 104t-3.5 104t-12.5 107t-27.5 104.5t-45.5 86t-69 61.5t-96 22t-96 -22t-69 -61.5t-45.5 -86t-27.5 -104.5t-12.5 -107t-3.5 -104z" />
    <glyph glyph-name="otilde" unicode="&#xf5;" horiz-adv-x="1081" 
d="M354 1247q-59 0 -101 -34t-42 -107h-6q0 123 60.5 191.5t142.5 68.5q48 0 100.5 -25.5t90.5 -55.5t84.5 -55.5t84.5 -25.5q70 0 106.5 33t36.5 109h7q0 -142 -44.5 -201.5t-138.5 -59.5q-46 0 -99.5 25.5t-94 55.5t-92.5 55.5t-95 25.5zM72 471q0 134 56 245t164.5 179
t248.5 68t248.5 -68t164.5 -179t56 -245t-56 -245t-164.5 -178.5t-248.5 -67.5t-248.5 67.5t-164.5 178.5t-56 245zM287 471q0 -55 3.5 -104t12.5 -107t27.5 -104.5t45.5 -86t69 -61.5t96 -22t96 22t69 61.5t45.5 86t27.5 104.5t12.5 107t3.5 104t-3.5 104t-12.5 107
t-27.5 104.5t-45.5 86t-69 61.5t-96 22t-96 -22t-69 -61.5t-45.5 -86t-27.5 -104.5t-12.5 -107t-3.5 -104z" />
    <glyph glyph-name="odieresis" unicode="&#xf6;" horiz-adv-x="1081" 
d="M643 1208q0 51 36 87t87 36t87 -36t36 -87t-36 -87t-87 -36t-87 36t-36 87zM233 1208q0 51 36 87t87 36t87 -36t36 -87t-36 -87t-87 -36t-87 36t-36 87zM72 471q0 134 56 245t164.5 179t248.5 68t248.5 -68t164.5 -179t56 -245t-56 -245t-164.5 -178.5t-248.5 -67.5
t-248.5 67.5t-164.5 178.5t-56 245zM287 471q0 -55 3.5 -104t12.5 -107t27.5 -104.5t45.5 -86t69 -61.5t96 -22t96 22t69 61.5t45.5 86t27.5 104.5t12.5 107t3.5 104t-3.5 104t-12.5 107t-27.5 104.5t-45.5 86t-69 61.5t-96 22t-96 -22t-69 -61.5t-45.5 -86t-27.5 -104.5
t-12.5 -107t-3.5 -104z" />
    <glyph glyph-name="divide" unicode="&#xf7;" horiz-adv-x="1146" 
d="M451 1157q0 51 35.5 87t86.5 36t87 -36t36 -87t-36 -87t-87 -36t-86.5 36t-35.5 87zM102 811h942v-4h-942v4zM451 430q0 51 35.5 87t86.5 36t87 -36t36 -87t-36 -87t-87 -36t-86.5 36t-35.5 87z" />
    <glyph glyph-name="oslash" unicode="&#xf8;" horiz-adv-x="1081" 
d="M72 471q0 134 56 245t164.5 179t248.5 68q147 0 260 -74l184 297h6l-186 -301q97 -66 151 -175.5t54 -238.5q0 -134 -56 -245t-164.5 -178.5t-248.5 -67.5q-142 0 -256 71l-189 -303h-6l191 305q-99 66 -154 176.5t-55 241.5zM287 471q0 -210 49 -330l409 660
q-64 155 -204 155q-54 0 -96 -22t-69 -61.5t-45.5 -86t-27.5 -104.5t-12.5 -107t-3.5 -104zM795 471q0 206 -47 324l-410 -660q64 -149 203 -149q54 0 96 22t69 61.5t45.5 86t27.5 104.5t12.5 107t3.5 104z" />
    <glyph glyph-name="ugrave" unicode="&#xf9;" 
d="M362 1169q-29 0 -50 20.5t-21 49.5q0 33 26 56t66 12l483 -138l-2 -4zM975 6h123v-6h-307v369q-30 -389 -334 -389q-87 0 -146 22.5t-90 66.5t-43 96t-12 124v647h-125v6h309v-631q0 -75 4 -124.5t16 -98.5t39 -73.5t68 -24.5q60 0 108.5 18.5t80.5 47t56 71.5t36.5 85
t20.5 94.5t10 92.5t2 86v451h-144v6h328v-936z" />
    <glyph glyph-name="uacute" unicode="&#xfa;" 
d="M795 1149l-502 -4l-2 4l483 137q40 11 66 -11.5t26 -55.5q0 -29 -21 -49.5t-50 -20.5zM975 6h123v-6h-307v369q-30 -389 -334 -389q-87 0 -146 22.5t-90 66.5t-43 96t-12 124v647h-125v6h309v-631q0 -75 4 -124.5t16 -98.5t39 -73.5t68 -24.5q60 0 108.5 18.5t80.5 47
t56 71.5t36.5 85t20.5 94.5t10 92.5t2 86v451h-144v6h328v-936z" />
    <glyph glyph-name="ucircumflex" unicode="&#xfb;" 
d="M537 1239l-289 -137l-2 4l225 225h133l225 -225l-2 -4zM975 6h123v-6h-307v369q-30 -389 -334 -389q-87 0 -146 22.5t-90 66.5t-43 96t-12 124v647h-125v6h309v-631q0 -75 4 -124.5t16 -98.5t39 -73.5t68 -24.5q60 0 108.5 18.5t80.5 47t56 71.5t36.5 85t20.5 94.5
t10 92.5t2 86v451h-144v6h328v-936z" />
    <glyph glyph-name="udieresis" unicode="&#xfc;" 
d="M702 1208q0 51 36 87t87 36t87 -36t36 -87t-36 -87t-87 -36t-87 36t-36 87zM293 1208q0 51 36 87t87 36t87 -36t36 -87t-36 -87t-87 -36t-87 36t-36 87zM975 6h123v-6h-307v369q-30 -389 -334 -389q-87 0 -146 22.5t-90 66.5t-43 96t-12 124v647h-125v6h309v-631
q0 -75 4 -124.5t16 -98.5t39 -73.5t68 -24.5q60 0 108.5 18.5t80.5 47t56 71.5t36.5 85t20.5 94.5t10 92.5t2 86v451h-144v6h328v-936z" />
    <glyph glyph-name="yacute" unicode="&#xfd;" horiz-adv-x="1081" 
d="M831 1169l-501 -4l-2 4l483 138q40 11 66 -12t26 -56q0 -29 -21.5 -49.5t-50.5 -20.5zM399 -436l162 397l-467 975h-94v6h457v-6h-158l360 -737l302 737h-177v6h320v-6h-135l-547 -1342q-32 -73 -60.5 -104t-82.5 -31q-44 0 -79.5 28.5t-35.5 82.5q0 51 31 83t81 32
q49 0 82 -32.5t41 -88.5z" />
    <glyph glyph-name="thorn" unicode="&#xfe;" horiz-adv-x="1173" 
d="M31 -506h143v2036h-143v6h327v-948q20 179 103 276t217 97q84 0 162 -34t138.5 -95.5t97 -155t36.5 -205.5t-36.5 -206t-97 -155.5t-138.5 -95.5t-162 -34q-135 0 -217.5 97t-102.5 277v-860h144v-6h-471v6zM358 471q0 -227 81.5 -351t207.5 -124q124 0 187 129.5
t63 345.5q0 215 -63 344t-187 129q-126 0 -207.5 -123t-81.5 -350z" />
    <glyph glyph-name="ydieresis" unicode="&#xff;" horiz-adv-x="1081" 
d="M694 1270q0 51 36 87t87 36t87 -36t36 -87t-36 -87t-87 -36t-87 36t-36 87zM285 1270q0 51 36 87t87 36t86.5 -36t35.5 -87t-35.5 -87t-86.5 -36t-87 36t-36 87zM399 -436l162 397l-467 975h-94v6h457v-6h-158l360 -737l302 737h-177v6h320v-6h-135l-547 -1342
q-32 -73 -60.5 -104t-82.5 -31q-44 0 -79.5 28.5t-35.5 82.5q0 51 31 83t81 32q49 0 82 -32.5t41 -88.5z" />
    <glyph glyph-name="Amacron" unicode="&#x100;" horiz-adv-x="1505" 
d="M492 1712h577v-4h-577v4zM41 6h197l544 1561h6l541 -1561h146v-6h-594v6h223l-158 492h-530l-172 -492h248v-6h-451v6zM692 1286l-274 -784h526z" />
    <glyph glyph-name="amacron" unicode="&#x101;" horiz-adv-x="1067" 
d="M242 1108h577v-4h-577v4zM530 516h127v109q0 40 -2 72t-8 71.5t-18.5 69t-31.5 55.5t-49.5 39.5t-70.5 13.5q-91 0 -164.5 -29.5t-109.5 -70.5q80 30 129 -3t49 -89t-38 -86.5t-83 -30.5q-47 0 -76.5 29.5t-29.5 83.5q0 61 52.5 109.5t135 73.5t176.5 25
q64 0 114.5 -10.5t84 -26t57.5 -42.5t37 -52.5t20.5 -63.5t9 -67t1.5 -71v-539q0 -82 73 -82q33 0 77 33t71 92h4q-34 -74 -93 -111.5t-128 -37.5q-40 0 -71 7t-59 24.5t-43.5 52.5t-15.5 86v108q-18 -140 -89 -209t-210 -69q-122 0 -199 69t-77 182q0 134 111 209.5
t337 75.5zM434 4q100 0 161.5 89t61.5 278v141h-127q-112 0 -175.5 -78t-63.5 -194q0 -105 38 -170.5t105 -65.5z" />
    <glyph glyph-name="Abreve" unicode="&#x102;" horiz-adv-x="1505" 
d="M549 1995q0 -71 65 -111.5t154 -40.5t154 40.5t65 111.5h6q0 -52 -10 -95t-33 -83t-69.5 -63t-112.5 -23t-112.5 23t-69.5 63t-33 83t-10 95h6zM41 6h197l544 1561h6l541 -1561h146v-6h-594v6h223l-158 492h-530l-172 -492h248v-6h-451v6zM692 1286l-274 -784h526z" />
    <glyph glyph-name="abreve" unicode="&#x103;" horiz-adv-x="1067" 
d="M299 1391q0 -71 65 -111.5t154 -40.5t154 40.5t65 111.5h6q0 -41 -5.5 -76t-21 -71t-39.5 -61t-65 -41t-94 -16t-94 16t-65 41t-39.5 61t-21 71t-5.5 76h6zM530 516h127v109q0 40 -2 72t-8 71.5t-18.5 69t-31.5 55.5t-49.5 39.5t-70.5 13.5q-91 0 -164.5 -29.5
t-109.5 -70.5q80 30 129 -3t49 -89t-38 -86.5t-83 -30.5q-47 0 -76.5 29.5t-29.5 83.5q0 61 52.5 109.5t135 73.5t176.5 25q64 0 114.5 -10.5t84 -26t57.5 -42.5t37 -52.5t20.5 -63.5t9 -67t1.5 -71v-539q0 -82 73 -82q33 0 77 33t71 92h4q-34 -74 -93 -111.5t-128 -37.5
q-40 0 -71 7t-59 24.5t-43.5 52.5t-15.5 86v108q-18 -140 -89 -209t-210 -69q-122 0 -199 69t-77 182q0 134 111 209.5t337 75.5zM434 4q100 0 161.5 89t61.5 278v141h-127q-112 0 -175.5 -78t-63.5 -194q0 -105 38 -170.5t105 -65.5z" />
    <glyph glyph-name="Aogonek" unicode="&#x104;" horiz-adv-x="1505" 
d="M41 6h197l544 1561h6l541 -1561h146v-6h-177q-81 -63 -81 -248q0 -73 32 -120.5t84 -47.5q35 0 63 17t43.5 37t39.5 59l4 -2q-15 -28 -30.5 -48.5t-43.5 -46.5t-69.5 -40.5t-92.5 -14.5q-55 0 -103.5 17.5t-83 59t-34.5 99.5q0 53 21.5 99t58.5 79.5t77.5 58t88.5 42.5
h-391v6h223l-158 492h-530l-172 -492h248v-6h-451v6zM692 1286l-274 -784h526z" />
    <glyph glyph-name="aogonek" unicode="&#x105;" horiz-adv-x="1067" 
d="M530 516h127v109q0 40 -2 72t-8 71.5t-18.5 69t-31.5 55.5t-49.5 39.5t-70.5 13.5q-91 0 -164.5 -29.5t-109.5 -70.5q80 30 129 -3t49 -89t-38 -86.5t-83 -30.5q-47 0 -76.5 29.5t-29.5 83.5q0 61 52.5 109.5t135 73.5t176.5 25q64 0 114.5 -10.5t84 -26t57.5 -42.5
t37 -52.5t20.5 -63.5t9 -67t1.5 -71v-539q0 -82 73 -82q33 0 77 33t71 92h4q-54 -117 -166 -143q-41 -29 -63.5 -94.5t-22.5 -155.5q0 -73 32.5 -120.5t84.5 -47.5q35 0 63 17t42.5 36.5t39.5 59.5l4 -3q-15 -28 -30.5 -48.5t-43 -46.5t-69 -40t-92.5 -14q-55 0 -103.5 17.5
t-83 59t-34.5 99.5q0 98 67 166t168 109h-14q-40 0 -71 7t-59 24.5t-43.5 52.5t-15.5 86v108q-18 -140 -89 -209t-210 -69q-122 0 -199 69t-77 182q0 134 111 209.5t337 75.5zM434 4q100 0 161.5 89t61.5 278v141h-127q-112 0 -175.5 -78t-63.5 -194q0 -105 38 -170.5
t105 -65.5z" />
    <glyph glyph-name="Cacute" unicode="&#x106;" horiz-adv-x="1372" 
d="M1044 1722l-501 -4l-2 4l483 138q40 11 66 -12t26 -56q0 -29 -21.5 -49.5t-50.5 -20.5zM1290 420v-420h-6l-110 127q-68 -70 -168 -108.5t-218 -38.5q-205 0 -364 101.5t-245.5 280.5t-86.5 406t86.5 406t245.5 280.5t364 101.5q102 0 194 -37t159 -102l123 119h6v-420
h-6q0 121 -65.5 220.5t-169 153.5t-220.5 54q-103 0 -186 -45.5t-137.5 -120t-90.5 -176.5t-51.5 -209.5t-15.5 -224.5t15.5 -224.5t51.5 -209.5t90.5 -176.5t137.5 -120t186 -45.5q207 0 341 126t134 302h6z" />
    <glyph glyph-name="cacute" unicode="&#x107;" horiz-adv-x="989" 
d="M786 1149l-501 -4l-2 4l483 137q40 11 66 -11.5t26 -55.5q0 -29 -21.5 -49.5t-50.5 -20.5zM883 737q-18 99 -106.5 158t-205.5 59q-59 0 -105.5 -22t-76.5 -61t-51 -85.5t-31.5 -104t-15 -107t-4.5 -103.5q0 -481 266 -481q131 0 217.5 81.5t130.5 221.5h6
q-93 -313 -368 -313q-205 0 -336 132.5t-131 358.5q0 101 32 189.5t91 156t151 107t205 39.5q153 0 246.5 -76t93.5 -189q0 -60 -34 -93.5t-83 -33.5q-45 0 -81 29.5t-36 85.5q0 51 35 82t82 31q37 0 70.5 -20.5t38.5 -41.5z" />
    <glyph glyph-name="Ccircumflex" unicode="&#x108;" horiz-adv-x="1372" 
d="M807 1833l-289 -137l-2 4l225 225h133l226 -225l-2 -4zM1290 420v-420h-6l-110 127q-68 -70 -168 -108.5t-218 -38.5q-205 0 -364 101.5t-245.5 280.5t-86.5 406t86.5 406t245.5 280.5t364 101.5q102 0 194 -37t159 -102l123 119h6v-420h-6q0 121 -65.5 220.5t-169 153.5
t-220.5 54q-103 0 -186 -45.5t-137.5 -120t-90.5 -176.5t-51.5 -209.5t-15.5 -224.5t15.5 -224.5t51.5 -209.5t90.5 -176.5t137.5 -120t186 -45.5q207 0 341 126t134 302h6z" />
    <glyph glyph-name="ccircumflex" unicode="&#x109;" horiz-adv-x="989" 
d="M571 1239l-288 -137l-2 4l225 225h133l225 -225l-2 -4zM883 737q-18 99 -106.5 158t-205.5 59q-59 0 -105.5 -22t-76.5 -61t-51 -85.5t-31.5 -104t-15 -107t-4.5 -103.5q0 -481 266 -481q131 0 217.5 81.5t130.5 221.5h6q-93 -313 -368 -313q-205 0 -336 132.5
t-131 358.5q0 101 32 189.5t91 156t151 107t205 39.5q153 0 246.5 -76t93.5 -189q0 -60 -34 -93.5t-83 -33.5q-45 0 -81 29.5t-36 85.5q0 51 35 82t82 31q37 0 70.5 -20.5t38.5 -41.5z" />
    <glyph glyph-name="Cdotaccent" unicode="&#x10a;" horiz-adv-x="1372" 
d="M686 1802q0 51 36 87t87 36t87 -36t36 -87t-36 -87t-87 -36t-87 36t-36 87zM1290 420v-420h-6l-110 127q-68 -70 -168 -108.5t-218 -38.5q-205 0 -364 101.5t-245.5 280.5t-86.5 406t86.5 406t245.5 280.5t364 101.5q102 0 194 -37t159 -102l123 119h6v-420h-6
q0 121 -65.5 220.5t-169 153.5t-220.5 54q-103 0 -186 -45.5t-137.5 -120t-90.5 -176.5t-51.5 -209.5t-15.5 -224.5t15.5 -224.5t51.5 -209.5t90.5 -176.5t137.5 -120t186 -45.5q207 0 341 126t134 302h6z" />
    <glyph glyph-name="cdotaccent" unicode="&#x10b;" horiz-adv-x="989" 
d="M449 1208q0 51 35.5 87t86.5 36t87 -36t36 -87t-36 -87t-87 -36t-86.5 36t-35.5 87zM883 737q-18 99 -106.5 158t-205.5 59q-59 0 -105.5 -22t-76.5 -61t-51 -85.5t-31.5 -104t-15 -107t-4.5 -103.5q0 -481 266 -481q131 0 217.5 81.5t130.5 221.5h6q-93 -313 -368 -313
q-205 0 -336 132.5t-131 358.5q0 101 32 189.5t91 156t151 107t205 39.5q153 0 246.5 -76t93.5 -189q0 -60 -34 -93.5t-83 -33.5q-45 0 -81 29.5t-36 85.5q0 51 35 82t82 31q37 0 70.5 -20.5t38.5 -41.5z" />
    <glyph glyph-name="Ccaron" unicode="&#x10c;" horiz-adv-x="1372" 
d="M807 1772l289 135l4 -2l-226 -226h-133l-225 226l4 2zM1290 420v-420h-6l-110 127q-68 -70 -168 -108.5t-218 -38.5q-205 0 -364 101.5t-245.5 280.5t-86.5 406t86.5 406t245.5 280.5t364 101.5q102 0 194 -37t159 -102l123 119h6v-420h-6q0 121 -65.5 220.5t-169 153.5
t-220.5 54q-103 0 -186 -45.5t-137.5 -120t-90.5 -176.5t-51.5 -209.5t-15.5 -224.5t15.5 -224.5t51.5 -209.5t90.5 -176.5t137.5 -120t186 -45.5q207 0 341 126t134 302h6z" />
    <glyph glyph-name="ccaron" unicode="&#x10d;" horiz-adv-x="989" 
d="M571 1178l289 135l4 -2l-225 -226h-133l-225 226l4 2zM883 737q-18 99 -106.5 158t-205.5 59q-59 0 -105.5 -22t-76.5 -61t-51 -85.5t-31.5 -104t-15 -107t-4.5 -103.5q0 -481 266 -481q131 0 217.5 81.5t130.5 221.5h6q-93 -313 -368 -313q-205 0 -336 132.5t-131 358.5
q0 101 32 189.5t91 156t151 107t205 39.5q153 0 246.5 -76t93.5 -189q0 -60 -34 -93.5t-83 -33.5q-45 0 -81 29.5t-36 85.5q0 51 35 82t82 31q37 0 70.5 -20.5t38.5 -41.5z" />
    <glyph glyph-name="Dcaron" unicode="&#x10e;" horiz-adv-x="1433" 
d="M717 1772l289 135l4 -2l-226 -226h-133l-225 226l4 2zM614 0h-573v6h184v1524h-184v6h573q223 0 392.5 -101.5t257.5 -275t88 -391.5q0 -216 -92.5 -391t-262 -276t-383.5 -101zM614 1530h-194v-1524h194q109 0 196.5 44t143.5 116.5t93.5 172.5t53 206t15.5 223
q0 115 -17.5 222.5t-57 206.5t-96.5 172.5t-142.5 117t-188.5 43.5z" />
    <glyph glyph-name="dcaron" unicode="&#x10f;" horiz-adv-x="1439" 
d="M1126 1415q0 51 40 86t98 35q64 0 103.5 -53t39.5 -160q0 -74 -32 -143.5t-99 -117.5t-154 -48v4q90 0 160.5 53.5t100.5 146t6 199.5q-10 -52 -45.5 -87.5t-88.5 -35.5q-63 0 -96 33.5t-33 87.5zM1135 6v-6h-310v354q-20 -179 -102.5 -275.5t-216.5 -96.5q-84 0 -162 34
t-138.5 95t-97 154.5t-36.5 205.5t36.5 206t97 155.5t138.5 96t162 34.5q134 0 216.5 -97t102.5 -278v942h-123v6h308v-1530h125zM825 471q0 227 -81 351t-207 124q-124 0 -187 -129.5t-63 -345.5q0 -215 63 -344t187 -129q126 0 207 123t81 350z" />
    <glyph glyph-name="Dcroat" unicode="&#x110;" horiz-adv-x="1433" 
d="M614 0h-573v6h184v739h-174v5h174v780h-184v6h573q223 0 392.5 -101.5t257.5 -275t88 -391.5q0 -216 -92.5 -391t-262 -276t-383.5 -101zM649 745h-229v-739h194q109 0 196.5 44t143.5 116.5t93.5 172.5t53 206t15.5 223q0 115 -17.5 222.5t-57 206.5t-96.5 172.5
t-142.5 117t-188.5 43.5h-194v-780h229v-5z" />
    <glyph glyph-name="dcroat" unicode="&#x111;" horiz-adv-x="1173" 
d="M1135 6v-6h-310v354q-20 -179 -102.5 -275.5t-216.5 -96.5q-84 0 -162 34t-138.5 95t-97 154.5t-36.5 205.5t36.5 206t97 155.5t138.5 96t162 34.5q134 0 216.5 -97t102.5 -278v577h-180v4h180v361h-123v6h308v-367h159v-4h-159v-1159h125zM825 471q0 227 -81 351
t-207 124q-124 0 -187 -129.5t-63 -345.5q0 -215 63 -344t187 -129q126 0 207 123t81 350z" />
    <glyph glyph-name="Emacron" unicode="&#x112;" horiz-adv-x="1198" 
d="M303 1702h578v-4h-578v4zM762 569q0 100 -64 162t-155 62h-123v-787h328q103 0 178 34t119 96.5t64.5 143t20.5 181.5h7v-461h-1096v6h184v1524h-184v6h1075v-420h-6q0 84 -20 157t-60.5 131.5t-107.5 92t-154 33.5h-348v-733h123q92 0 155.5 57t63.5 156h6v-441h-6z" />
    <glyph glyph-name="emacron" unicode="&#x113;" horiz-adv-x="1030" 
d="M266 1108h578v-4h-578v4zM969 293q-42 -141 -149.5 -227t-270.5 -86q-135 0 -242.5 58t-171 170.5t-63.5 262.5q0 113 36 206t99 155.5t149.5 96.5t186.5 34q110 0 194 -35.5t133 -97t73 -136.5t24 -162h-678q-2 -20 -2 -61q0 -96 12.5 -175.5t41.5 -152t85.5 -114
t136.5 -41.5q151 0 255.5 85t144.5 220h6zM543 956q-66 0 -115.5 -34.5t-78 -96t-43 -132.5t-17.5 -156h461q1 55 -3 106t-17 110t-34.5 102t-61 72t-91.5 29z" />
    <glyph glyph-name="Ebreve" unicode="&#x114;" horiz-adv-x="1198" 
d="M381 1944q0 -71 65 -111.5t154 -40.5t154 40.5t65 111.5h6q0 -41 -5.5 -76t-21 -71t-39.5 -61t-65 -41t-94 -16t-94 16t-65 41t-39.5 61t-21 71t-5.5 76h6zM762 569q0 100 -64 162t-155 62h-123v-787h328q103 0 178 34t119 96.5t64.5 143t20.5 181.5h7v-461h-1096v6h184
v1524h-184v6h1075v-420h-6q0 84 -20 157t-60.5 131.5t-107.5 92t-154 33.5h-348v-733h123q92 0 155.5 57t63.5 156h6v-441h-6z" />
    <glyph glyph-name="ebreve" unicode="&#x115;" horiz-adv-x="1030" 
d="M344 1350q0 -71 65 -111.5t154 -40.5t154 40.5t65 111.5h6q0 -41 -5.5 -76t-21 -71t-39.5 -61t-65 -41t-94 -16t-94 16t-65 41t-39.5 61t-21 71t-5.5 76h6zM969 293q-42 -141 -149.5 -227t-270.5 -86q-135 0 -242.5 58t-171 170.5t-63.5 262.5q0 113 36 206t99 155.5
t149.5 96.5t186.5 34q110 0 194 -35.5t133 -97t73 -136.5t24 -162h-678q-2 -20 -2 -61q0 -96 12.5 -175.5t41.5 -152t85.5 -114t136.5 -41.5q151 0 255.5 85t144.5 220h6zM543 956q-66 0 -115.5 -34.5t-78 -96t-43 -132.5t-17.5 -156h461q1 55 -3 106t-17 110t-34.5 102
t-61 72t-91.5 29z" />
    <glyph glyph-name="Edotaccent" unicode="&#x116;" horiz-adv-x="1198" 
d="M477 1802q0 51 36 87t87 36t87 -36t36 -87t-36 -87t-87 -36t-87 36t-36 87zM762 569q0 100 -64 162t-155 62h-123v-787h328q103 0 178 34t119 96.5t64.5 143t20.5 181.5h7v-461h-1096v6h184v1524h-184v6h1075v-420h-6q0 84 -20 157t-60.5 131.5t-107.5 92t-154 33.5h-348
v-733h123q92 0 155.5 57t63.5 156h6v-441h-6z" />
    <glyph glyph-name="edotaccent" unicode="&#x117;" horiz-adv-x="1030" 
d="M440 1208q0 51 36 87t87 36t87 -36t36 -87t-36 -87t-87 -36t-87 36t-36 87zM969 293q-42 -141 -149.5 -227t-270.5 -86q-135 0 -242.5 58t-171 170.5t-63.5 262.5q0 113 36 206t99 155.5t149.5 96.5t186.5 34q110 0 194 -35.5t133 -97t73 -136.5t24 -162h-678
q-2 -20 -2 -61q0 -96 12.5 -175.5t41.5 -152t85.5 -114t136.5 -41.5q151 0 255.5 85t144.5 220h6zM543 956q-66 0 -115.5 -34.5t-78 -96t-43 -132.5t-17.5 -156h461q1 55 -3 106t-17 110t-34.5 102t-61 72t-91.5 29z" />
    <glyph glyph-name="Eogonek" unicode="&#x118;" horiz-adv-x="1198" 
d="M762 569q0 100 -64 162t-155 62h-123v-787h328q103 0 178 34t119 96.5t64.5 143t20.5 181.5h7v-461h-166q-88 -60 -88 -252q0 -73 32 -120.5t84 -47.5q35 0 63 17t43.5 37t39.5 59l4 -2q-15 -28 -30.5 -48.5t-43.5 -46.5t-69.5 -40.5t-92.5 -14.5q-55 0 -103.5 17.5
t-83 59t-34.5 99.5q0 54 22.5 101t61.5 81.5t81 58t91 42.5h-907v6h184v1524h-184v6h1075v-420h-6q0 84 -20 157t-60.5 131.5t-107.5 92t-154 33.5h-348v-733h123q92 0 155.5 57t63.5 156h6v-441h-6z" />
    <glyph glyph-name="eogonek" unicode="&#x119;" horiz-adv-x="1030" 
d="M844 -319q-15 -28 -30.5 -48.5t-43.5 -46.5t-69.5 -40.5t-92.5 -14.5q-55 0 -103.5 17.5t-83 59t-34.5 99.5q0 53 21.5 99t58.5 79.5t77.5 58t88.5 42.5q-41 -6 -84 -6q-135 0 -242.5 58t-171 170.5t-63.5 262.5q0 113 36 206t99 155.5t149.5 96.5t186.5 34
q110 0 194 -35.5t133 -97t73 -136.5t24 -162h-678q-2 -20 -2 -61q0 -96 12.5 -175.5t41.5 -152t85.5 -114t136.5 -41.5q151 0 255.5 85t144.5 220h6q-34 -112 -108.5 -190.5t-186.5 -106.5q-46 -28 -71 -96t-25 -162q0 -73 32 -120.5t84 -47.5q35 0 63 17t43.5 37t39.5 59z
M543 956q-66 0 -115.5 -34.5t-78 -96t-43 -132.5t-17.5 -156h461q1 55 -3 106t-17 110t-34.5 102t-61 72t-91.5 29z" />
    <glyph glyph-name="Ecaron" unicode="&#x11a;" horiz-adv-x="1198" 
d="M598 1772l289 135l4 -2l-225 -226h-134l-225 226l4 2zM762 569q0 100 -64 162t-155 62h-123v-787h328q103 0 178 34t119 96.5t64.5 143t20.5 181.5h7v-461h-1096v6h184v1524h-184v6h1075v-420h-6q0 84 -20 157t-60.5 131.5t-107.5 92t-154 33.5h-348v-733h123
q92 0 155.5 57t63.5 156h6v-441h-6z" />
    <glyph glyph-name="ecaron" unicode="&#x11b;" horiz-adv-x="1030" 
d="M563 1178l289 135l4 -2l-225 -226h-133l-226 226l4 2zM969 293q-42 -141 -149.5 -227t-270.5 -86q-135 0 -242.5 58t-171 170.5t-63.5 262.5q0 113 36 206t99 155.5t149.5 96.5t186.5 34q110 0 194 -35.5t133 -97t73 -136.5t24 -162h-678q-2 -20 -2 -61
q0 -96 12.5 -175.5t41.5 -152t85.5 -114t136.5 -41.5q151 0 255.5 85t144.5 220h6zM543 956q-66 0 -115.5 -34.5t-78 -96t-43 -132.5t-17.5 -156h461q1 55 -3 106t-17 110t-34.5 102t-61 72t-91.5 29z" />
    <glyph glyph-name="Gcircumflex" unicode="&#x11c;" horiz-adv-x="1464" 
d="M807 1833l-289 -137l-2 4l225 225h133l226 -225l-2 -4zM891 586h553v-4h-123v-244q-21 -44 -49.5 -87t-79 -94t-109.5 -88.5t-144.5 -63t-180.5 -25.5q-157 0 -283.5 59t-210 164t-128 249t-44.5 316q0 227 86.5 406t245.5 280.5t364 101.5q102 0 194.5 -36t158.5 -101
l123 117h6v-420h-6q0 122 -64.5 221.5t-168.5 153t-222 53.5q-103 0 -186 -45.5t-137.5 -120t-90.5 -176.5t-51.5 -209.5t-15.5 -224.5q0 -84 5.5 -161t19.5 -157t35.5 -147t55.5 -126.5t77.5 -101t104 -65.5t132.5 -24q37 0 71 6.5t60.5 17t51.5 27t43 31.5t35.5 36.5
t28.5 37t22.5 37t16 32t11.5 27.5t8 18v326h-215v4z" />
    <glyph glyph-name="gcircumflex" unicode="&#x11d;" horiz-adv-x="1140" 
d="M559 1239l-289 -137l-2 4l226 225h133l225 -225l-2 -4zM106 152q0 64 47.5 107.5t111.5 62t143 22.5q-61 6 -115 25t-100.5 54t-73.5 92t-27 130q0 81 33.5 144t88 100t117.5 55.5t128 18.5q83 0 162.5 -29.5t130.5 -87.5q41 55 95 80.5t103 25.5q75 0 118.5 -42
t43.5 -103q0 -64 -30 -93.5t-74 -29.5q-42 0 -72.5 27t-30.5 75q0 42 30.5 69.5t74.5 27.5q33 0 60.5 -17.5t33.5 -44.5q-3 52 -43 88.5t-111 36.5q-49 0 -101.5 -25.5t-92.5 -78.5q69 -79 69 -197q0 -65 -22.5 -117.5t-58.5 -86.5t-84.5 -57t-97.5 -32.5t-101 -9.5
q-79 0 -147 -32t-68 -93q0 -19 6 -32t21 -21.5t28.5 -13t41.5 -6.5t46 -2.5t55 -0.5q38 0 78.5 1t67.5 1q53 0 93.5 -5.5t85.5 -24t74 -51t48.5 -91t19.5 -139.5q0 -90 -35 -161t-95.5 -114.5t-137 -66t-162.5 -22.5q-89 0 -166.5 16t-139.5 48.5t-98 86.5t-36 125
q0 51 20.5 93t51.5 68.5t70.5 45t75 26.5t67.5 9q-220 20 -220 166zM287 645q0 -55 2 -90.5t12 -79t27.5 -69t50.5 -43t80 -17.5q85 0 128.5 87t43.5 212q0 80 -17 148.5t-57.5 115.5t-97.5 47t-97.5 -47t-57.5 -115.5t-17 -148.5zM236 -209q0 -44 8.5 -86.5t28.5 -84.5
t50 -73.5t76 -51t103 -19.5q162 0 274.5 84.5t112.5 220.5q0 54 -25.5 94.5t-68 63t-90.5 33t-101 10.5h-192q-51 0 -76 2q-32 -18 -53 -41.5t-31 -50.5t-13 -49.5t-3 -51.5z" />
    <glyph glyph-name="Gbreve" unicode="&#x11e;" horiz-adv-x="1464" 
d="M590 1944q0 -71 65 -111.5t154 -40.5t154 40.5t65 111.5h6q0 -41 -5.5 -76t-21 -71t-39.5 -61t-65 -41t-94 -16t-94 16t-65 41t-39.5 61t-21 71t-5.5 76h6zM891 586h553v-4h-123v-244q-21 -44 -49.5 -87t-79 -94t-109.5 -88.5t-144.5 -63t-180.5 -25.5q-157 0 -283.5 59
t-210 164t-128 249t-44.5 316q0 227 86.5 406t245.5 280.5t364 101.5q102 0 194.5 -36t158.5 -101l123 117h6v-420h-6q0 122 -64.5 221.5t-168.5 153t-222 53.5q-103 0 -186 -45.5t-137.5 -120t-90.5 -176.5t-51.5 -209.5t-15.5 -224.5q0 -84 5.5 -161t19.5 -157t35.5 -147
t55.5 -126.5t77.5 -101t104 -65.5t132.5 -24q37 0 71 6.5t60.5 17t51.5 27t43 31.5t35.5 36.5t28.5 37t22.5 37t16 32t11.5 27.5t8 18v326h-215v4z" />
    <glyph glyph-name="gbreve" unicode="&#x11f;" horiz-adv-x="1140" 
d="M322 1350q0 -71 65 -111.5t154 -40.5t154 40.5t65 111.5h6q0 -41 -5.5 -76t-21 -71t-39.5 -61t-65 -41t-94 -16q-66 0 -112.5 23t-70 63.5t-33.5 83.5t-10 95h7zM106 152q0 64 47.5 107.5t111.5 62t143 22.5q-61 6 -115 25t-100.5 54t-73.5 92t-27 130q0 81 33.5 144
t88 100t117.5 55.5t128 18.5q83 0 162.5 -29.5t130.5 -87.5q41 55 95 80.5t103 25.5q75 0 118.5 -42t43.5 -103q0 -64 -30 -93.5t-74 -29.5q-42 0 -72.5 27t-30.5 75q0 42 30.5 69.5t74.5 27.5q33 0 60.5 -17.5t33.5 -44.5q-3 52 -43 88.5t-111 36.5q-49 0 -101.5 -25.5
t-92.5 -78.5q69 -79 69 -197q0 -65 -22.5 -117.5t-58.5 -86.5t-84.5 -57t-97.5 -32.5t-101 -9.5q-79 0 -147 -32t-68 -93q0 -19 6 -32t21 -21.5t28.5 -13t41.5 -6.5t46 -2.5t55 -0.5q38 0 78.5 1t67.5 1q53 0 93.5 -5.5t85.5 -24t74 -51t48.5 -91t19.5 -139.5
q0 -90 -35 -161t-95.5 -114.5t-137 -66t-162.5 -22.5q-89 0 -166.5 16t-139.5 48.5t-98 86.5t-36 125q0 51 20.5 93t51.5 68.5t70.5 45t75 26.5t67.5 9q-220 20 -220 166zM287 645q0 -55 2 -90.5t12 -79t27.5 -69t50.5 -43t80 -17.5q85 0 128.5 87t43.5 212q0 80 -17 148.5
t-57.5 115.5t-97.5 47t-97.5 -47t-57.5 -115.5t-17 -148.5zM236 -209q0 -44 8.5 -86.5t28.5 -84.5t50 -73.5t76 -51t103 -19.5q162 0 274.5 84.5t112.5 220.5q0 54 -25.5 94.5t-68 63t-90.5 33t-101 10.5h-192q-51 0 -76 2q-32 -18 -53 -41.5t-31 -50.5t-13 -49.5t-3 -51.5z
" />
    <glyph glyph-name="Gdotaccent" unicode="&#x120;" horiz-adv-x="1464" 
d="M686 1802q0 51 36 87t87 36t87 -36t36 -87t-36 -87t-87 -36t-87 36t-36 87zM891 586h553v-4h-123v-244q-21 -44 -49.5 -87t-79 -94t-109.5 -88.5t-144.5 -63t-180.5 -25.5q-157 0 -283.5 59t-210 164t-128 249t-44.5 316q0 227 86.5 406t245.5 280.5t364 101.5
q102 0 194.5 -36t158.5 -101l123 117h6v-420h-6q0 122 -64.5 221.5t-168.5 153t-222 53.5q-103 0 -186 -45.5t-137.5 -120t-90.5 -176.5t-51.5 -209.5t-15.5 -224.5q0 -84 5.5 -161t19.5 -157t35.5 -147t55.5 -126.5t77.5 -101t104 -65.5t132.5 -24q37 0 71 6.5t60.5 17
t51.5 27t43 31.5t35.5 36.5t28.5 37t22.5 37t16 32t11.5 27.5t8 18v326h-215v4z" />
    <glyph glyph-name="gdotaccent" unicode="&#x121;" horiz-adv-x="1140" 
d="M459 1208q0 51 36 87t87 36t87 -36t36 -87t-36 -87t-87 -36t-87 36t-36 87zM106 152q0 64 47.5 107.5t111.5 62t143 22.5q-61 6 -115 25t-100.5 54t-73.5 92t-27 130q0 81 33.5 144t88 100t117.5 55.5t128 18.5q83 0 162.5 -29.5t130.5 -87.5q41 55 95 80.5t103 25.5
q75 0 118.5 -42t43.5 -103q0 -64 -30 -93.5t-74 -29.5q-42 0 -72.5 27t-30.5 75q0 42 30.5 69.5t74.5 27.5q33 0 60.5 -17.5t33.5 -44.5q-3 52 -43 88.5t-111 36.5q-49 0 -101.5 -25.5t-92.5 -78.5q69 -79 69 -197q0 -65 -22.5 -117.5t-58.5 -86.5t-84.5 -57t-97.5 -32.5
t-101 -9.5q-79 0 -147 -32t-68 -93q0 -19 6 -32t21 -21.5t28.5 -13t41.5 -6.5t46 -2.5t55 -0.5q38 0 78.5 1t67.5 1q53 0 93.5 -5.5t85.5 -24t74 -51t48.5 -91t19.5 -139.5q0 -90 -35 -161t-95.5 -114.5t-137 -66t-162.5 -22.5q-89 0 -166.5 16t-139.5 48.5t-98 86.5
t-36 125q0 51 20.5 93t51.5 68.5t70.5 45t75 26.5t67.5 9q-220 20 -220 166zM287 645q0 -55 2 -90.5t12 -79t27.5 -69t50.5 -43t80 -17.5q85 0 128.5 87t43.5 212q0 80 -17 148.5t-57.5 115.5t-97.5 47t-97.5 -47t-57.5 -115.5t-17 -148.5zM236 -209q0 -44 8.5 -86.5
t28.5 -84.5t50 -73.5t76 -51t103 -19.5q162 0 274.5 84.5t112.5 220.5q0 54 -25.5 94.5t-68 63t-90.5 33t-101 10.5h-192q-51 0 -76 2q-32 -18 -53 -41.5t-31 -50.5t-13 -49.5t-3 -51.5z" />
    <glyph glyph-name="uni0122" unicode="&#x122;" horiz-adv-x="1464" 
d="M891 586h553v-4h-123v-244q-21 -44 -49.5 -87t-79 -94t-109.5 -88.5t-144.5 -63t-180.5 -25.5q-157 0 -283.5 59t-210 164t-128 249t-44.5 316q0 227 86.5 406t245.5 280.5t364 101.5q102 0 194.5 -36t158.5 -101l123 117h6v-420h-6q0 122 -64.5 221.5t-168.5 153
t-222 53.5q-103 0 -186 -45.5t-137.5 -120t-90.5 -176.5t-51.5 -209.5t-15.5 -224.5q0 -84 5.5 -161t19.5 -157t35.5 -147t55.5 -126.5t77.5 -101t104 -65.5t132.5 -24q37 0 71 6.5t60.5 17t51.5 27t43 31.5t35.5 36.5t28.5 37t22.5 37t16 32t11.5 27.5t8 18v326h-215v4z
M641 -264q0 51 39.5 86t97.5 35q64 0 104 -53t40 -160q0 -55 -19 -109t-54 -99.5t-90.5 -73.5t-121.5 -28v4q90 0 160 53.5t100 146.5t6 200q-10 -53 -45 -88t-88 -35q-63 0 -96 33.5t-33 87.5z" />
    <glyph glyph-name="Hcircumflex" unicode="&#x124;" horiz-adv-x="1505" 
d="M778 1833l-289 -137l-2 4l226 225h133l225 -225l-2 -4zM41 6h184v1524h-184v6h584v-6h-205v-770h676v770h-205v6h584v-6h-185v-1524h185v-6h-584v6h205v750h-676v-750h205v-6h-584v6z" />
    <glyph glyph-name="hcircumflex" unicode="&#x125;" 
d="M301 1812l-289 -137l-2 4l226 226h133l225 -226l-2 -4zM41 6h125v1524h-125v6h309v-940q6 58 17.5 106.5t36 98.5t60 84t92 56t128.5 22q87 0 146 -22.5t90 -66.5t43 -96.5t12 -124.5v-647h123v-6h-432v6h125v625q0 75 -4 124.5t-16 98.5t-39 73.5t-68 24.5
q-60 0 -108.5 -18.5t-80.5 -47t-56 -71.5t-36.5 -85t-20.5 -94.5t-10 -92.5t-2 -86v-451h123v-6h-432v6z" />
    <glyph glyph-name="Itilde" unicode="&#x128;" horiz-adv-x="737" 
d="M188 1841q-59 0 -101 -34t-42 -107h-6q0 123 60.5 191.5t142.5 68.5q48 0 100.5 -25.5t90.5 -55.5t84.5 -55.5t84.5 -25.5q70 0 106.5 32.5t36.5 108.5h7q0 -142 -44.5 -201t-138.5 -59q-46 0 -99.5 25.5t-94 55.5t-92.5 55.5t-95 25.5zM41 6h225v1524h-225v6h666v-6
h-246v-1524h246v-6h-666v6z" />
    <glyph glyph-name="itilde" unicode="&#x129;" horiz-adv-x="552" 
d="M70 1247q-59 0 -101.5 -34t-42.5 -107h-6q0 123 60.5 191.5t142.5 68.5q48 0 100.5 -25.5t90.5 -55.5t84.5 -55.5t84.5 -25.5q70 0 107 33t37 109h6q0 -142 -44 -201.5t-138 -59.5q-46 0 -99.5 25.5t-94 55.5t-92.5 55.5t-95 25.5zM41 6h143v930h-143v6h328v-936h143v-6
h-471v6z" />
    <glyph glyph-name="Imacron" unicode="&#x12a;" horiz-adv-x="737" 
d="M106 1702h578v-4h-578v4zM41 6h225v1524h-225v6h666v-6h-246v-1524h246v-6h-666v6z" />
    <glyph glyph-name="imacron" unicode="&#x12b;" horiz-adv-x="552" 
d="M-84 1108h578v-4h-578v4zM41 6h143v930h-143v6h328v-936h143v-6h-471v6z" />
    <glyph glyph-name="Ibreve" unicode="&#x12c;" horiz-adv-x="737" 
d="M156 1985q0 -71 65 -111.5t154 -40.5t154 40.5t65 111.5h6q0 -41 -5.5 -76t-21 -71t-39.5 -61t-65 -41t-94 -16t-94 16t-65 41t-39.5 61t-21 71t-5.5 76h6zM41 6h225v1524h-225v6h666v-6h-246v-1524h246v-6h-666v6z" />
    <glyph glyph-name="ibreve" unicode="&#x12d;" horiz-adv-x="552" 
d="M37 1391q0 -71 65 -111.5t154 -40.5t154 40.5t65 111.5h6q0 -41 -5.5 -76t-21 -71t-39.5 -61t-65 -41t-94 -16t-94 16t-65 41t-39.5 61t-21 71t-5.5 76h6zM41 6h143v930h-143v6h328v-936h143v-6h-471v6z" />
    <glyph glyph-name="Iogonek" unicode="&#x12e;" horiz-adv-x="737" 
d="M41 6h225v1524h-225v6h666v-6h-246v-1524h246v-6h-330q-76 -67 -76 -242q0 -73 32.5 -120.5t84.5 -47.5q35 0 63 17t42.5 36.5t39.5 59.5l4 -2q-15 -28 -30.5 -48.5t-43 -46.5t-69 -40.5t-92.5 -14.5q-87 0 -154 45.5t-67 131.5q0 97 65 164t164 108h-299v6z" />
    <glyph glyph-name="iogonek" unicode="&#x12f;" horiz-adv-x="532" 
d="M125 1434q0 51 36 86.5t87 35.5t87 -35.5t36 -86.5t-36 -87t-87 -36t-87 36t-36 87zM51 6h125v930h-125v6h309v-936h123v-6h-194q-76 -67 -76 -242q0 -73 32.5 -120.5t84.5 -47.5q35 0 63 17t42.5 36.5t39.5 59.5l4 -2q-15 -28 -30.5 -48.5t-43 -46.5t-69 -40.5
t-92.5 -14.5q-87 0 -154 45.5t-67 131.5q0 97 65 164t164 108h-201v6z" />
    <glyph glyph-name="Idotaccent" unicode="&#x130;" horiz-adv-x="737" 
d="M272 1802q0 51 36 87t87 36t87 -36t36 -87t-36 -87t-87 -36t-87 36t-36 87zM41 6h225v1524h-225v6h666v-6h-246v-1524h246v-6h-666v6z" />
    <glyph glyph-name="dotlessi" unicode="&#x131;" horiz-adv-x="552" 
d="M41 6h143v930h-143v6h328v-936h143v-6h-471v6z" />
    <glyph glyph-name="IJ" unicode="&#x132;" horiz-adv-x="1599" 
d="M41 6h225v1524h-225v6h666v-6h-246v-1524h246v-6h-666v6zM913 1536h666v-6h-205v-1182q-9 -32 -15.5 -52.5t-19 -56.5t-24 -61t-30 -59t-37.5 -57t-45.5 -48t-55 -40t-65 -25t-76.5 -10q-74 0 -130.5 38t-82 90.5t-25.5 106.5q0 62 34.5 97.5t82.5 35.5q44 0 79 -31.5
t35 -89.5t-36.5 -88t-92.5 -30q-46 0 -79 22q11 -24 25.5 -45t40 -46t64 -39.5t85.5 -14.5q31 0 55 6.5t42 23t31 35t21.5 50.5t13.5 61.5t7.5 77.5t3 88t0.5 102v1141h-267v6z" />
    <glyph glyph-name="ij" unicode="&#x133;" horiz-adv-x="1017" 
d="M125 1434q0 51 36 86.5t87 35.5t87 -35.5t36 -86.5t-36 -87t-87 -36t-87 36t-36 87zM631 1434q0 51 36 86.5t87 35.5t87 -35.5t36 -86.5t-36 -87t-87 -36t-87 36t-36 87zM51 6h125v930h-125v6h309v-936h123v-6h-432v6zM862 942v-967q0 -87 -7.5 -156.5t-29 -137
t-56.5 -113t-93 -73t-135 -27.5q-119 0 -185.5 65t-66.5 158q0 60 34 93.5t83 33.5q45 0 79.5 -27.5t34.5 -83.5q0 -58 -36 -86.5t-93 -28.5q-33 0 -60.5 24.5t-33.5 55.5q0 -77 64.5 -136.5t168.5 -59.5q30 0 53.5 10t39.5 31.5t27 46.5t17.5 62.5t9.5 71t3.5 82t0 84.5
t-1.5 89.5t-1 87.5v895h-166v6h350z" />
    <glyph glyph-name="Jcircumflex" unicode="&#x134;" horiz-adv-x="872" 
d="M528 1833l-288 -137l-2 4l225 225h133l225 -225l-2 -4zM176 1536h666v-6h-205v-1182q-12 -41 -20.5 -68.5t-27 -74.5t-37 -79t-48 -70t-62 -61.5t-78 -39.5t-96.5 -16q-57 0 -103.5 22t-74.5 57.5t-43.5 75.5t-15.5 80q0 62 34 97.5t82 35.5q44 0 79.5 -31.5t35.5 -89.5
t-36.5 -88t-92.5 -30q-47 0 -80 22q11 -24 25.5 -45t40 -46t64 -39.5t85.5 -14.5q31 0 55 6.5t42 23t31 35t21.5 50.5t13.5 61.5t7.5 77.5t3 88t0.5 102v1141h-266v6z" />
    <glyph glyph-name="jcircumflex" unicode="&#x135;" horiz-adv-x="583" 
d="M274 1239l-288 -137l-2 4l225 225h133l225 -225l-2 -4zM420 942v-967q0 -87 -7.5 -156.5t-29 -137t-57 -113t-93.5 -73t-135 -27.5q-119 0 -185.5 65t-66.5 158q0 60 34 93.5t83 33.5q45 0 80 -27.5t35 -83.5q0 -58 -36 -86.5t-93 -28.5q-33 0 -60.5 24.5t-33.5 55.5
q0 -77 64.5 -136.5t168.5 -59.5q30 0 53.5 10t39.5 31.5t27 46.5t17.5 62.5t9.5 71t3.5 82t0 84.5t-1.5 89.5t-1 87.5v895h-185v6h369z" />
    <glyph glyph-name="uni0136" unicode="&#x136;" horiz-adv-x="1392" 
d="M41 6h184v1524h-184v6h584v-6h-205v-842l624 842h-245v6h491v-6h-237l-412 -555l578 -969h163v-6h-634v6h225l-455 803l-98 -133v-670h205v-6h-584v6zM594 -244q0 51 39.5 86t97.5 35q64 0 103.5 -53t39.5 -160q0 -74 -31.5 -143.5t-98.5 -117.5t-154 -48v4
q90 0 160 53.5t100 146t6 199.5q-10 -53 -45 -88t-88 -35q-63 0 -96 33.5t-33 87.5z" />
    <glyph glyph-name="uni0137" unicode="&#x137;" horiz-adv-x="1159" 
d="M41 6h166v1524h-166v6h350v-989l492 389h-230v6h418v-6h-180l-373 -297l539 -633h84v-6h-467v6h151l-434 510v-510h144v-6h-494v6zM481 -244q0 51 39.5 86t97.5 35q64 0 104 -53t40 -160q0 -74 -32 -143.5t-99 -117.5t-154 -48v4q90 0 160 53.5t100 146t6 199.5
q-10 -53 -45 -88t-88 -35q-63 0 -96 33.5t-33 87.5z" />
    <glyph glyph-name="kgreenlandic" unicode="&#x138;" horiz-adv-x="1196" 
d="M51 6h185v930h-185v6h369v-395l491 389h-268v6h457v-6h-180l-373 -297l538 -633h84v-6h-485v6h170l-434 510v-510h143v-6h-512v6z" />
    <glyph glyph-name="Lacute" unicode="&#x139;" horiz-adv-x="1167" 
d="M942 1702l-502 -4l-2 4l484 137q40 11 66 -11.5t26 -55.5q0 -29 -21.5 -49.5t-50.5 -20.5zM1126 0h-1085v6h184v1524h-184v6h563v-6h-184v-1524h317q94 0 163 23t111 61.5t67 98.5t33.5 124t8.5 148h6v-461z" />
    <glyph glyph-name="lacute" unicode="&#x13a;" horiz-adv-x="593" 
d="M584 1681l-502 -4l-2 4l483 138q40 11 66 -12t26 -56q0 -29 -21 -49.5t-50 -20.5zM41 6h166v1524h-166v6h350v-1530h164v-6h-514v6z" />
    <glyph glyph-name="uni013B" unicode="&#x13b;" horiz-adv-x="1167" 
d="M1126 0h-1085v6h184v1524h-184v6h563v-6h-184v-1524h317q94 0 163 23t111 61.5t67 98.5t33.5 124t8.5 148h6v-461zM465 -244q0 51 39.5 86t97.5 35q64 0 103.5 -53t39.5 -160q0 -74 -31.5 -143.5t-98.5 -117.5t-154 -48v4q90 0 160 53.5t100 146t6 199.5q-10 -53 -45 -88
t-88 -35q-63 0 -96 33.5t-33 87.5z" />
    <glyph glyph-name="uni013C" unicode="&#x13c;" horiz-adv-x="593" 
d="M41 6h166v1524h-166v6h350v-1530h164v-6h-514v6zM199 -244q0 51 39.5 86t97.5 35q64 0 103.5 -53t39.5 -160q0 -74 -31.5 -143.5t-98.5 -117.5t-154 -48v4q90 0 160 53.5t100 146t6 199.5q-10 -53 -45 -88t-88 -35q-63 0 -96 33.5t-33 87.5z" />
    <glyph glyph-name="Lcaron" unicode="&#x13d;" horiz-adv-x="1167" 
d="M782 1436q0 51 39.5 85.5t98.5 34.5q64 0 103.5 -53t39.5 -160q0 -74 -32 -143.5t-99 -117.5t-154 -48v4q90 0 160 53.5t100 146.5t6 200q-10 -53 -45 -88t-88 -35q-63 0 -96 33.5t-33 87.5zM1126 0h-1085v6h184v1524h-184v6h563v-6h-184v-1524h317q94 0 163 23t111 61.5
t67 98.5t33.5 124t8.5 148h6v-461z" />
    <glyph glyph-name="lcaron" unicode="&#x13e;" horiz-adv-x="942" 
d="M588 1415q0 51 39.5 86t97.5 35q64 0 103.5 -53t39.5 -160q0 -74 -31.5 -143.5t-98.5 -117.5t-154 -48v4q90 0 160 53.5t100 146t6 199.5q-10 -53 -45 -88t-88 -35q-63 0 -96 33.5t-33 87.5zM41 6h166v1524h-166v6h350v-1530h164v-6h-514v6z" />
    <glyph glyph-name="Ldot" unicode="&#x13f;" horiz-adv-x="1167" 
d="M1126 0h-1085v6h184v1524h-184v6h563v-6h-184v-1524h317q94 0 163 23t111 61.5t67 98.5t33.5 124t8.5 148h6v-461zM666 1004q0 51 35.5 86.5t86.5 35.5t87 -35.5t36 -86.5t-36 -87t-87 -36t-86.5 36t-35.5 87z" />
    <glyph glyph-name="ldot" unicode="&#x140;" horiz-adv-x="876" 
d="M41 6h166v1524h-166v6h350v-1530h164v-6h-514v6zM553 819q0 51 36 87t87 36t87 -36t36 -87t-36 -87t-87 -36t-87 36t-36 87z" />
    <glyph glyph-name="Lslash" unicode="&#x141;" horiz-adv-x="1167" 
d="M31 737l194 125v668h-184v6h563v-6h-184v-545l317 203v-8l-317 -203v-971h317q94 0 163 23t111 61.5t67 98.5t33.5 124t8.5 148h6v-461h-1085v6h184v848l-194 -125v8z" />
    <glyph glyph-name="lslash" unicode="&#x142;" horiz-adv-x="593" 
d="M41 6h166v924l-187 -117v6l187 117v594h-166v6h350v-483l213 135v-6l-213 -135v-1041h164v-6h-514v6z" />
    <glyph glyph-name="Nacute" unicode="&#x143;" horiz-adv-x="1495" 
d="M1110 1702l-502 -4l-2 4l484 137q40 11 66 -11.5t26 -55.5q0 -29 -21.5 -49.5t-50.5 -20.5zM41 6h203v1524h-203v6h440l762 -1225v1219h-244v6h465v-6h-215v-1550h-6l-993 1550v-1524h248v-6h-457v6z" />
    <glyph glyph-name="nacute" unicode="&#x144;" 
d="M946 1108l-502 -4l-2 4l484 137q40 11 66 -11.5t26 -55.5q0 -29 -21.5 -49.5t-50.5 -20.5zM41 6h125v930h-125v6h309v-350q38 371 334 371q87 0 146 -22.5t90 -66.5t43 -96.5t12 -124.5v-647h123v-6h-432v6h125v625q0 75 -4 124.5t-16 98.5t-39 73.5t-68 24.5
q-60 0 -108.5 -18.5t-80.5 -47t-56 -71.5t-36.5 -85t-20.5 -94.5t-10 -92.5t-2 -86v-451h123v-6h-432v6z" />
    <glyph glyph-name="uni0145" unicode="&#x145;" horiz-adv-x="1495" 
d="M41 6h203v1524h-203v6h440l762 -1225v1219h-244v6h465v-6h-215v-1550h-6l-993 1550v-1524h248v-6h-457v6zM645 -264q0 51 39.5 86t97.5 35q64 0 104 -53t40 -160q0 -55 -19 -109t-54 -99.5t-90.5 -73.5t-121.5 -28v4q90 0 160 53.5t100 146.5t6 200q-10 -53 -45 -88
t-88 -35q-63 0 -96 33.5t-33 87.5z" />
    <glyph glyph-name="uni0146" unicode="&#x146;" 
d="M41 6h125v930h-125v6h309v-350q38 371 334 371q87 0 146 -22.5t90 -66.5t43 -96.5t12 -124.5v-647h123v-6h-432v6h125v625q0 75 -4 124.5t-16 98.5t-39 73.5t-68 24.5q-60 0 -108.5 -18.5t-80.5 -47t-56 -71.5t-36.5 -85t-20.5 -94.5t-10 -92.5t-2 -86v-451h123v-6h-432
v6zM471 -244q0 51 39.5 86t97.5 35q64 0 104 -53t40 -160q0 -74 -32 -143.5t-99 -117.5t-154 -48v4q90 0 160 53.5t100 146t6 199.5q-10 -53 -45 -88t-88 -35q-63 0 -96 33.5t-33 87.5z" />
    <glyph glyph-name="Ncaron" unicode="&#x147;" horiz-adv-x="1495" 
d="M772 1772l289 135l4 -2l-225 -226h-133l-226 226l4 2zM41 6h203v1524h-203v6h440l762 -1225v1219h-244v6h465v-6h-215v-1550h-6l-993 1550v-1524h248v-6h-457v6z" />
    <glyph glyph-name="ncaron" unicode="&#x148;" 
d="M670 1219l288 135l5 -2l-226 -226h-133l-225 226l4 2zM41 6h125v930h-125v6h309v-350q38 371 334 371q87 0 146 -22.5t90 -66.5t43 -96.5t12 -124.5v-647h123v-6h-432v6h125v625q0 75 -4 124.5t-16 98.5t-39 73.5t-68 24.5q-60 0 -108.5 -18.5t-80.5 -47t-56 -71.5
t-36.5 -85t-20.5 -94.5t-10 -92.5t-2 -86v-451h123v-6h-432v6z" />
    <glyph glyph-name="napostrophe" unicode="&#x149;" horiz-adv-x="1341" 
d="M20 1370q0 51 40 86t98 35q64 0 103.5 -53t39.5 -160q0 -74 -32 -143.5t-99 -117.5t-154 -48v4q90 0 160.5 53.5t100.5 146t6 199.5q-10 -53 -45 -88t-88 -35q-63 0 -96.5 33.5t-33.5 87.5zM225 6h125v930h-125v6h310v-350q38 371 333 371q87 0 146 -22.5t90 -66.5
t43 -96.5t12 -124.5v-647h123v-6h-432v6h125v625q0 75 -4 124.5t-16 98.5t-39 73.5t-68 24.5q-60 0 -108.5 -18.5t-80.5 -47t-55.5 -72t-36.5 -85t-20.5 -94.5t-9.5 -92.5t-2 -85.5v-451h122v-6h-432v6z" />
    <glyph glyph-name="Omacron" unicode="&#x14c;" horiz-adv-x="1484" 
d="M471 1702h578v-4h-578v4zM748 -20q-122 0 -227.5 40t-183.5 112t-133.5 170t-83.5 216.5t-28 249.5q0 163 47.5 307t132 250.5t208 168.5t268.5 62q193 0 343.5 -106t231 -285t80.5 -397q0 -164 -44.5 -307t-126.5 -250.5t-207 -169t-277 -61.5zM748 1550
q-81 0 -147.5 -31.5t-111 -89t-77 -130t-50.5 -163.5t-26 -180t-8 -188q0 -86 4.5 -161t16.5 -156.5t32 -147.5t52.5 -126.5t75.5 -101.5t104 -65t135 -24q86 0 154 31t113 89.5t76 130t47 164t22.5 179t6.5 188.5q0 99 -8 188t-26 180t-50 163.5t-77 130t-111 89t-147 31.5
z" />
    <glyph glyph-name="omacron" unicode="&#x14d;" horiz-adv-x="1081" 
d="M264 1108h578v-4h-578v4zM72 471q0 134 56 245t164.5 179t248.5 68t248.5 -68t164.5 -179t56 -245t-56 -245t-164.5 -178.5t-248.5 -67.5t-248.5 67.5t-164.5 178.5t-56 245zM287 471q0 -55 3.5 -104t12.5 -107t27.5 -104.5t45.5 -86t69 -61.5t96 -22t96 22t69 61.5
t45.5 86t27.5 104.5t12.5 107t3.5 104t-3.5 104t-12.5 107t-27.5 104.5t-45.5 86t-69 61.5t-96 22t-96 -22t-69 -61.5t-45.5 -86t-27.5 -104.5t-12.5 -107t-3.5 -104z" />
    <glyph glyph-name="Obreve" unicode="&#x14e;" horiz-adv-x="1484" 
d="M549 1944q0 -71 65 -111.5t154 -40.5t154 40.5t65 111.5h6q0 -41 -5.5 -76t-21 -71t-39.5 -61t-65 -41t-94 -16t-94 16t-65 41t-39.5 61t-21 71t-5.5 76h6zM748 -20q-122 0 -227.5 40t-183.5 112t-133.5 170t-83.5 216.5t-28 249.5q0 163 47.5 307t132 250.5t208 168.5
t268.5 62q193 0 343.5 -106t231 -285t80.5 -397q0 -164 -44.5 -307t-126.5 -250.5t-207 -169t-277 -61.5zM748 1550q-81 0 -147.5 -31.5t-111 -89t-77 -130t-50.5 -163.5t-26 -180t-8 -188q0 -86 4.5 -161t16.5 -156.5t32 -147.5t52.5 -126.5t75.5 -101.5t104 -65t135 -24
q86 0 154 31t113 89.5t76 130t47 164t22.5 179t6.5 188.5q0 99 -8 188t-26 180t-50 163.5t-77 130t-111 89t-147 31.5z" />
    <glyph glyph-name="obreve" unicode="&#x14f;" horiz-adv-x="1081" 
d="M342 1350q0 -71 65 -111.5t154 -40.5t154 40.5t65 111.5h6q0 -41 -5.5 -76t-21 -71t-39.5 -61t-65 -41t-94 -16t-94 16t-65 41t-39.5 61t-21 71t-5.5 76h6zM72 471q0 134 56 245t164.5 179t248.5 68t248.5 -68t164.5 -179t56 -245t-56 -245t-164.5 -178.5t-248.5 -67.5
t-248.5 67.5t-164.5 178.5t-56 245zM287 471q0 -55 3.5 -104t12.5 -107t27.5 -104.5t45.5 -86t69 -61.5t96 -22t96 22t69 61.5t45.5 86t27.5 104.5t12.5 107t3.5 104t-3.5 104t-12.5 107t-27.5 104.5t-45.5 86t-69 61.5t-96 22t-96 -22t-69 -61.5t-45.5 -86t-27.5 -104.5
t-12.5 -107t-3.5 -104z" />
    <glyph glyph-name="OE" unicode="&#x152;" horiz-adv-x="1945" 
d="M1509 569q0 100 -64 162t-155 62h-123v-787h328q103 0 178 34t119 96.5t65 143t21 181.5h6v-461h-1096q-206 0 -366.5 96t-250 271t-89.5 401t89.5 401t250 271t366.5 96h1076v-420h-6q0 84 -20 157t-60.5 131.5t-107.5 92t-154 33.5h-349v-733h123q92 0 155.5 57
t63.5 156h7v-441h-7zM317 768q0 -118 14.5 -223t50.5 -205.5t90.5 -173t141 -116.5t195.5 -44h164v1524h-164q-109 0 -195.5 -44t-141 -116.5t-90.5 -173t-50.5 -205.5t-14.5 -223z" />
    <glyph glyph-name="oe" unicode="&#x153;" horiz-adv-x="1746" 
d="M72 471q0 134 56 245t164.5 179t248.5 68q115 0 208.5 -46.5t157.5 -128.5q63 85 159.5 130t213.5 45q110 0 194 -35.5t133 -97t73 -136.5t24 -162h-678q-2 -20 -2 -61q0 -96 12.5 -175.5t41.5 -152t85.5 -114t136.5 -41.5q151 0 255.5 85t144.5 220h6
q-42 -141 -149.5 -227t-270.5 -86q-118 0 -216.5 45t-162.5 129q-62 -81 -156 -127.5t-210 -46.5q-140 0 -248.5 67.5t-164.5 178.5t-56 245zM287 471q0 -55 3.5 -104t12.5 -107t27.5 -104.5t45.5 -86t69 -61.5t96 -22t96 22t69 61.5t45.5 86t27.5 104.5t12.5 107t3.5 104
t-3.5 104t-12.5 107t-27.5 104.5t-45.5 86t-69 61.5t-96 22t-96 -22t-69 -61.5t-45.5 -86t-27.5 -104.5t-12.5 -107t-3.5 -104zM1280 956q-66 0 -115.5 -34.5t-78 -96t-43 -132.5t-17.5 -156h461q1 55 -3 106t-17 110t-34.5 102t-61 72t-91.5 29z" />
    <glyph glyph-name="Racute" unicode="&#x154;" horiz-adv-x="1423" 
d="M942 1743l-502 -4l-2 4l484 137q40 11 66 -12t26 -56q0 -29 -21 -49t-51 -20zM41 6h225v1524h-225v6h676q241 0 376.5 -93t135.5 -286q0 -179 -107.5 -267t-320.5 -102q101 -6 174 -37t113 -78t64 -106t31 -123t8.5 -127t2.5 -120t7.5 -100.5t28 -69t60.5 -25.5
q59 0 111 25l2 -4q-61 -33 -184 -33q-69 0 -116.5 22.5t-71.5 60.5t-38 89t-15.5 108.5t-4.5 117.5t-5.5 117.5t-18 108.5t-41.5 89t-77 60.5t-124 22.5h-246v-780h225v-6h-645v6zM717 1530h-256v-739h256q146 0 226.5 98.5t80.5 267.5q0 170 -81 271.5t-226 101.5z" />
    <glyph glyph-name="racute" unicode="&#x155;" horiz-adv-x="813" 
d="M713 1149l-502 -4l-2 4l483 137q40 11 66 -11.5t26 -55.5q0 -29 -21 -49.5t-50 -20.5zM41 6h125v930h-125v6h309v-330q6 76 21.5 135.5t44.5 110t77 78t113 27.5q74 0 131.5 -47t57.5 -119q0 -55 -31 -90t-88 -35q-54 0 -87.5 28.5t-33.5 83.5q0 57 43.5 91.5t98.5 26.5
t83 -60q-20 56 -69 85t-105 29q-54 0 -96 -19.5t-69.5 -57t-46 -82.5t-28 -104.5t-13 -114.5t-3.5 -121v-451h123v-6h-432v6z" />
    <glyph glyph-name="uni0156" unicode="&#x156;" horiz-adv-x="1423" 
d="M41 6h225v1524h-225v6h676q241 0 376.5 -93t135.5 -286q0 -179 -107.5 -267t-320.5 -102q101 -6 174 -37t113 -78t64 -106t31 -123t8.5 -127t2.5 -120t7.5 -100.5t28 -69t60.5 -25.5q59 0 111 25l2 -4q-61 -33 -184 -33q-69 0 -116.5 22.5t-71.5 60.5t-38 89t-15.5 108.5
t-4.5 117.5t-5.5 117.5t-18 108.5t-41.5 89t-77 60.5t-124 22.5h-246v-780h225v-6h-645v6zM717 1530h-256v-739h256q146 0 226.5 98.5t80.5 267.5q0 170 -81 271.5t-226 101.5zM670 -193q0 51 39.5 86t97.5 35q64 0 103.5 -53t39.5 -160q0 -74 -31.5 -143.5t-98.5 -117.5
t-154 -48v4q90 0 160 53.5t100 146.5t6 200q-10 -53 -45 -88t-88 -35q-63 0 -96 33t-33 87z" />
    <glyph glyph-name="uni0157" unicode="&#x157;" horiz-adv-x="813" 
d="M41 6h125v930h-125v6h309v-330q6 76 21.5 135.5t44.5 110t77 78t113 27.5q74 0 131.5 -47t57.5 -119q0 -55 -31 -90t-88 -35q-54 0 -87.5 28.5t-33.5 83.5q0 57 43.5 91.5t98.5 26.5t83 -60q-20 56 -69 85t-105 29q-54 0 -96 -19.5t-69.5 -57t-46 -82.5t-28 -104.5
t-13 -114.5t-3.5 -121v-451h123v-6h-432v6zM158 -244q0 51 39.5 86t97.5 35q64 0 103.5 -53t39.5 -160q0 -74 -31.5 -143.5t-98.5 -117.5t-154 -48v4q90 0 160 53.5t100 146t6 199.5q-10 -53 -45 -88t-88 -35q-63 0 -96 33.5t-33 87.5z" />
    <glyph glyph-name="Rcaron" unicode="&#x158;" horiz-adv-x="1423" 
d="M705 1772l288 135l4 -2l-225 -226h-133l-225 226l4 2zM41 6h225v1524h-225v6h676q241 0 376.5 -93t135.5 -286q0 -179 -107.5 -267t-320.5 -102q101 -6 174 -37t113 -78t64 -106t31 -123t8.5 -127t2.5 -120t7.5 -100.5t28 -69t60.5 -25.5q59 0 111 25l2 -4
q-61 -33 -184 -33q-69 0 -116.5 22.5t-71.5 60.5t-38 89t-15.5 108.5t-4.5 117.5t-5.5 117.5t-18 108.5t-41.5 89t-77 60.5t-124 22.5h-246v-780h225v-6h-645v6zM717 1530h-256v-739h256q146 0 226.5 98.5t80.5 267.5q0 170 -81 271.5t-226 101.5z" />
    <glyph glyph-name="rcaron" unicode="&#x159;" horiz-adv-x="813" 
d="M467 1219l289 135l4 -2l-225 -226h-134l-225 226l4 2zM41 6h125v930h-125v6h309v-330q6 76 21.5 135.5t44.5 110t77 78t113 27.5q74 0 131.5 -47t57.5 -119q0 -55 -31 -90t-88 -35q-54 0 -87.5 28.5t-33.5 83.5q0 57 43.5 91.5t98.5 26.5t83 -60q-20 56 -69 85t-105 29
q-54 0 -96 -19.5t-69.5 -57t-46 -82.5t-28 -104.5t-13 -114.5t-3.5 -121v-451h123v-6h-432v6z" />
    <glyph glyph-name="Sacute" unicode="&#x15a;" horiz-adv-x="1146" 
d="M954 1702l-501 -4l-2 4l483 137q40 11 66 -11.5t26 -55.5q0 -29 -21.5 -49.5t-50.5 -20.5zM98 -20h-6v419h6q18 -94 54 -168.5t92.5 -132.5t141 -89.5t192.5 -31.5q167 0 265.5 88t98.5 252q0 67 -28.5 122.5t-76.5 95t-110 74t-130.5 65.5t-137.5 64t-131 74t-110 90.5
t-76.5 120t-28.5 155.5q0 109 58.5 196.5t155 134.5t210.5 47q214 0 331 -135l109 135h6v-419h-6q-30 206 -140.5 307.5t-279.5 101.5q-145 0 -223 -72t-78 -196q0 -60 27.5 -110t74.5 -86.5t107.5 -69t128 -64t134.5 -65t127.5 -78t107.5 -98t74.5 -129.5t27.5 -168
q0 -200 -127.5 -320.5t-343.5 -120.5q-256 0 -387 160z" />
    <glyph glyph-name="sacute" unicode="&#x15b;" horiz-adv-x="860" 
d="M684 1169l-502 -4l-2 4l484 138q40 11 66 -12t26 -56q0 -29 -21.5 -49.5t-50.5 -20.5zM88 -20h-6v286h6q3 -74 53.5 -138.5t130 -102t166.5 -37.5q67 0 121 17t92.5 61.5t38.5 113.5q0 41 -20 73t-54 52t-77.5 36.5t-92 31t-97 31t-92 40t-77.5 54.5t-54 79t-20 109
q0 51 18 98.5t52 87.5t90.5 64.5t126.5 24.5q139 0 242 -89l92 91h4v-287h-6q0 103 -96.5 190.5t-233.5 87.5q-91 0 -150 -41t-59 -114q0 -49 34 -85t88 -59t119 -43t130.5 -45t119.5 -58t88 -88.5t34 -129.5q0 -136 -100 -223.5t-250 -87.5q-153 0 -265 94z" />
    <glyph glyph-name="Scircumflex" unicode="&#x15c;" horiz-adv-x="1146" 
d="M594 1833l-289 -137l-2 4l225 225h134l225 -225l-2 -4zM98 -20h-6v419h6q18 -94 54 -168.5t92.5 -132.5t141 -89.5t192.5 -31.5q167 0 265.5 88t98.5 252q0 67 -28.5 122.5t-76.5 95t-110 74t-130.5 65.5t-137.5 64t-131 74t-110 90.5t-76.5 120t-28.5 155.5
q0 109 58.5 196.5t155 134.5t210.5 47q214 0 331 -135l109 135h6v-419h-6q-30 206 -140.5 307.5t-279.5 101.5q-145 0 -223 -72t-78 -196q0 -60 27.5 -110t74.5 -86.5t107.5 -69t128 -64t134.5 -65t127.5 -78t107.5 -98t74.5 -129.5t27.5 -168q0 -200 -127.5 -320.5
t-343.5 -120.5q-256 0 -387 160z" />
    <glyph glyph-name="scircumflex" unicode="&#x15d;" horiz-adv-x="860" 
d="M479 1239l-289 -137l-2 4l226 225h133l225 -225l-2 -4zM88 -20h-6v286h6q3 -74 53.5 -138.5t130 -102t166.5 -37.5q67 0 121 17t92.5 61.5t38.5 113.5q0 41 -20 73t-54 52t-77.5 36.5t-92 31t-97 31t-92 40t-77.5 54.5t-54 79t-20 109q0 51 18 98.5t52 87.5t90.5 64.5
t126.5 24.5q139 0 242 -89l92 91h4v-287h-6q0 103 -96.5 190.5t-233.5 87.5q-91 0 -150 -41t-59 -114q0 -49 34 -85t88 -59t119 -43t130.5 -45t119.5 -58t88 -88.5t34 -129.5q0 -136 -100 -223.5t-250 -87.5q-153 0 -265 94z" />
    <glyph glyph-name="Scedilla" unicode="&#x15e;" horiz-adv-x="1146" 
d="M98 -20h-6v419h6q18 -94 54 -168.5t92.5 -132.5t141 -89.5t192.5 -31.5q167 0 265.5 88t98.5 252q0 67 -28.5 122.5t-76.5 95t-110 74t-130.5 65.5t-137.5 64t-131 74t-110 90.5t-76.5 120t-28.5 155.5q0 109 58.5 196.5t155 134.5t210.5 47q214 0 331 -135l109 135h6
v-419h-6q-30 206 -140.5 307.5t-279.5 101.5q-145 0 -223 -72t-78 -196q0 -60 27.5 -110t74.5 -86.5t107.5 -69t128 -64t134.5 -65t127.5 -78t107.5 -98t74.5 -129.5t27.5 -168q0 -200 -126.5 -320.5t-338.5 -120.5l-121 -162q59 -2 110.5 -12.5t96.5 -29t71.5 -50.5
t26.5 -73q0 -170 -346 -170v6q90 0 145.5 35t55.5 88q0 32 -11.5 55t-30.5 36.5t-49.5 21t-62 10t-75.5 2.5l182 243q-254 0 -385 160z" />
    <glyph glyph-name="scedilla" unicode="&#x15f;" horiz-adv-x="860" 
d="M88 -20h-6v286h6q3 -74 53.5 -138.5t130 -102t166.5 -37.5q67 0 121 17t92.5 61.5t38.5 113.5q0 41 -20 73t-54 52t-77.5 36.5t-92 31t-97 31t-92 40t-77.5 54.5t-54 79t-20 109q0 51 18 98.5t52 87.5t90.5 64.5t126.5 24.5q139 0 242 -89l92 91h4v-287h-6
q0 103 -96.5 190.5t-233.5 87.5q-91 0 -150 -41t-59 -114q0 -49 34 -85t88 -59t119 -43t130.5 -45t119.5 -58t88 -88.5t34 -129.5q0 -129 -92.5 -216t-233.5 -95l-121 -160q58 -2 110 -12.5t97 -29.5t71.5 -51t26.5 -73q0 -170 -346 -170v6q90 0 145.5 35t55.5 88
q0 32 -11.5 55t-30.5 36.5t-49.5 21t-62 10t-75.5 2.5l182 242h-16q-153 0 -265 94z" />
    <glyph glyph-name="Scaron" unicode="&#x160;" horiz-adv-x="1146" 
d="M586 1772l288 135l5 -2l-226 -226h-133l-225 226l4 2zM98 -20h-6v419h6q18 -94 54 -168.5t92.5 -132.5t141 -89.5t192.5 -31.5q167 0 265.5 88t98.5 252q0 67 -28.5 122.5t-76.5 95t-110 74t-130.5 65.5t-137.5 64t-131 74t-110 90.5t-76.5 120t-28.5 155.5
q0 109 58.5 196.5t155 134.5t210.5 47q214 0 331 -135l109 135h6v-419h-6q-30 206 -140.5 307.5t-279.5 101.5q-145 0 -223 -72t-78 -196q0 -60 27.5 -110t74.5 -86.5t107.5 -69t128 -64t134.5 -65t127.5 -78t107.5 -98t74.5 -129.5t27.5 -168q0 -200 -127.5 -320.5
t-343.5 -120.5q-256 0 -387 160z" />
    <glyph glyph-name="scaron" unicode="&#x161;" horiz-adv-x="860" 
d="M469 1178l289 135l4 -2l-225 -226h-134l-225 226l4 2zM88 -20h-6v286h6q3 -74 53.5 -138.5t130 -102t166.5 -37.5q67 0 121 17t92.5 61.5t38.5 113.5q0 41 -20 73t-54 52t-77.5 36.5t-92 31t-97 31t-92 40t-77.5 54.5t-54 79t-20 109q0 51 18 98.5t52 87.5t90.5 64.5
t126.5 24.5q139 0 242 -89l92 91h4v-287h-6q0 103 -96.5 190.5t-233.5 87.5q-91 0 -150 -41t-59 -114q0 -49 34 -85t88 -59t119 -43t130.5 -45t119.5 -58t88 -88.5t34 -129.5q0 -136 -100 -223.5t-250 -87.5q-153 0 -265 94z" />
    <glyph glyph-name="uni0162" unicode="&#x162;" horiz-adv-x="1290" 
d="M328 6h225v1524h-205q-87 0 -147.5 -33.5t-93.5 -97.5t-46.5 -142t-13.5 -182h-6v461h1219v-461h-7q0 104 -13.5 182t-46.5 142t-93.5 97.5t-147.5 33.5h-204v-1524h225v-6h-307l-97 -127q58 -2 110 -12.5t97 -29.5t71.5 -51t26.5 -73q0 -170 -346 -170v6q90 0 145.5 35
t55.5 88q0 32 -11.5 55t-30.5 36.5t-49.5 21t-62 10t-75.5 2.5l157 209h-329v6z" />
    <glyph glyph-name="uni0163" unicode="&#x163;" horiz-adv-x="645" 
d="M414 -328q0 40 -16.5 65.5t-50 38t-70.5 17t-93 4.5l144 191q-50 5 -83.5 27t-48.5 59t-20.5 72t-5.5 81v709h-150v6h150v205q44 0 98 18.5t86 42.5v-266h219v-6h-219v-786q0 -80 21 -107h2v-2q18 -21 55 -21q56 0 111.5 55t87.5 134h4q-38 -100 -112.5 -161.5
t-166.5 -61.5h-22l-80 -107q58 -2 110 -12.5t97 -29.5t71.5 -51t26.5 -73q0 -170 -346 -170v6q90 0 145.5 35t55.5 88z" />
    <glyph glyph-name="Tcaron" unicode="&#x164;" horiz-adv-x="1290" 
d="M670 1772l288 135l5 -2l-226 -226h-133l-225 226l4 2zM328 6h225v1524h-205q-87 0 -147.5 -33.5t-93.5 -97.5t-46.5 -142t-13.5 -182h-6v461h1219v-461h-7q0 104 -13.5 182t-46.5 142t-93.5 97.5t-147.5 33.5h-204v-1524h225v-6h-645v6z" />
    <glyph glyph-name="tcaron" unicode="&#x165;" horiz-adv-x="829" 
d="M492 1518q0 51 39.5 85.5t97.5 34.5q64 0 103.5 -53t39.5 -160q0 -74 -32 -143.5t-99 -117.5t-154 -48v4q67 0 125.5 31.5t95 86t51 127.5t-4.5 155q-10 -53 -45 -88t-88 -35q-63 0 -96 33.5t-33 87.5zM635 209q-38 -100 -112.5 -161.5t-166.5 -61.5q-48 0 -83.5 15
t-55 37t-30.5 56t-14 64t-3 69v709h-150v6h150v205q44 0 98 18.5t86 42.5v-266h219v-6h-219v-786q0 -75 17.5 -102.5t60.5 -27.5q56 0 111.5 55t87.5 134h4z" />
    <glyph glyph-name="Utilde" unicode="&#x168;" horiz-adv-x="1423" 
d="M530 1841q-59 0 -101 -34t-42 -107h-6q0 123 60.5 191.5t142.5 68.5q48 0 100.5 -25.5t90.5 -55.5t84.5 -55.5t84.5 -25.5q70 0 106.5 32.5t36.5 108.5h7q0 -142 -44.5 -201t-138.5 -59q-46 0 -99.5 25.5t-94 55.5t-92.5 55.5t-95 25.5zM41 1536h584v-6h-205v-1038
q0 -87 8.5 -157.5t32.5 -138t63 -113t103.5 -73.5t150.5 -28q205 0 306.5 120.5t101.5 368.5v1059h-193v6h400v-6h-203v-1059q0 -258 -107 -380t-346 -122q-267 0 -389.5 119t-122.5 383v1059h-184v6z" />
    <glyph glyph-name="utilde" unicode="&#x169;" 
d="M332 1247q-59 0 -101.5 -34t-42.5 -107h-6q0 123 60.5 191.5t142.5 68.5q48 0 100.5 -25.5t90.5 -55.5t84.5 -55.5t84.5 -25.5q70 0 107 33t37 109h6q0 -142 -44 -201.5t-138 -59.5q-46 0 -99.5 25.5t-94 55.5t-92.5 55.5t-95 25.5zM975 6h123v-6h-307v369
q-30 -389 -334 -389q-87 0 -146 22.5t-90 66.5t-43 96t-12 124v647h-125v6h309v-631q0 -75 4 -124.5t16 -98.5t39 -73.5t68 -24.5q60 0 108.5 18.5t80.5 47t56 71.5t36.5 85t20.5 94.5t10 92.5t2 86v451h-144v6h328v-936z" />
    <glyph glyph-name="Umacron" unicode="&#x16a;" horiz-adv-x="1423" 
d="M440 1702h578v-4h-578v4zM41 1536h584v-6h-205v-1038q0 -87 8.5 -157.5t32.5 -138t63 -113t103.5 -73.5t150.5 -28q205 0 306.5 120.5t101.5 368.5v1059h-193v6h400v-6h-203v-1059q0 -258 -107 -380t-346 -122q-267 0 -389.5 119t-122.5 383v1059h-184v6z" />
    <glyph glyph-name="umacron" unicode="&#x16b;" 
d="M242 1108h577v-4h-577v4zM975 6h123v-6h-307v369q-30 -389 -334 -389q-87 0 -146 22.5t-90 66.5t-43 96t-12 124v647h-125v6h309v-631q0 -75 4 -124.5t16 -98.5t39 -73.5t68 -24.5q60 0 108.5 18.5t80.5 47t56 71.5t36.5 85t20.5 94.5t10 92.5t2 86v451h-144v6h328v-936z
" />
    <glyph glyph-name="Ubreve" unicode="&#x16c;" horiz-adv-x="1423" 
d="M498 1985q0 -71 65 -111.5t154 -40.5t154 40.5t65 111.5h6q0 -41 -5.5 -76t-21 -71t-39.5 -61t-65 -41t-94 -16t-94 16t-65 41t-39.5 61t-21 71t-5.5 76h6zM41 1536h584v-6h-205v-1038q0 -87 8.5 -157.5t32.5 -138t63 -113t103.5 -73.5t150.5 -28q205 0 306.5 120.5
t101.5 368.5v1059h-193v6h400v-6h-203v-1059q0 -258 -107 -380t-346 -122q-267 0 -389.5 119t-122.5 383v1059h-184v6z" />
    <glyph glyph-name="ubreve" unicode="&#x16d;" 
d="M299 1391q0 -71 65 -111.5t154 -40.5t154 40.5t65 111.5h6q0 -41 -5.5 -76t-21 -71t-39.5 -61t-65 -41t-94 -16t-94 16t-65 41t-39.5 61t-21 71t-5.5 76h6zM975 6h123v-6h-307v369q-30 -389 -334 -389q-87 0 -146 22.5t-90 66.5t-43 96t-12 124v647h-125v6h309v-631
q0 -75 4 -124.5t16 -98.5t39 -73.5t68 -24.5q60 0 108.5 18.5t80.5 47t56 71.5t36.5 85t20.5 94.5t10 92.5t2 86v451h-144v6h328v-936z" />
    <glyph glyph-name="Uring" unicode="&#x16e;" horiz-adv-x="1423" 
d="M553 1864q0 78 53 131t131 53t131.5 -53t53.5 -131t-53.5 -131.5t-131.5 -53.5t-131 53.5t-53 131.5zM625 1864q0 -178 112 -178q113 0 113 178t-113 178q-112 0 -112 -178zM41 1536h584v-6h-205v-1038q0 -87 8.5 -157.5t32.5 -138t63 -113t103.5 -73.5t150.5 -28
q205 0 306.5 120.5t101.5 368.5v1059h-193v6h400v-6h-203v-1059q0 -258 -107 -380t-346 -122q-267 0 -389.5 119t-122.5 383v1059h-184v6z" />
    <glyph glyph-name="uring" unicode="&#x16f;" 
d="M354 1270q0 78 53.5 131t131.5 53t131 -53t53 -131t-53 -131.5t-131 -53.5t-131.5 53.5t-53.5 131.5zM426 1270q0 -178 113 -178q112 0 112 178t-112 178q-113 0 -113 -178zM975 6h123v-6h-307v369q-30 -389 -334 -389q-87 0 -146 22.5t-90 66.5t-43 96t-12 124v647h-125
v6h309v-631q0 -75 4 -124.5t16 -98.5t39 -73.5t68 -24.5q60 0 108.5 18.5t80.5 47t56 71.5t36.5 85t20.5 94.5t10 92.5t2 86v451h-144v6h328v-936z" />
    <glyph glyph-name="Uogonek" unicode="&#x172;" horiz-adv-x="1423" 
d="M971 -340q-15 -27 -30.5 -48t-43.5 -46.5t-69.5 -40t-92.5 -14.5q-55 0 -103.5 17.5t-83 59t-34.5 99.5q0 54 22.5 101.5t61.5 81.5t81.5 57.5t92.5 41.5h-35q-267 0 -389.5 119t-122.5 383v1059h-184v6h584v-6h-205v-1038q0 -87 8.5 -157.5t32.5 -138t63 -113
t103.5 -73.5t150.5 -28q205 0 306.5 120.5t101.5 368.5v1059h-193v6h400v-6h-203v-1059q0 -242 -93 -364.5t-300 -135.5q-92 -61 -92 -254q0 -73 32 -120.5t84 -47.5q35 0 63 17t43.5 37t39.5 59z" />
    <glyph glyph-name="uogonek" unicode="&#x173;" 
d="M975 6h123v-6h-162q-64 -73 -64 -229q0 -73 32.5 -120.5t84.5 -47.5q35 0 63 16.5t43.5 36.5t39.5 59l4 -2q-15 -27 -30.5 -48t-43.5 -46.5t-69.5 -40t-92.5 -14.5q-55 0 -103.5 17.5t-83 59t-34.5 99.5q0 164 203 260h-94v369q-30 -389 -334 -389q-87 0 -146 22.5
t-90 66.5t-43 96t-12 124v647h-125v6h309v-631q0 -75 4 -124.5t16 -98.5t39 -73.5t68 -24.5q60 0 108.5 18.5t80.5 47t56 71.5t36.5 85t20.5 94.5t10 92.5t2 86v451h-144v6h328v-936z" />
    <glyph glyph-name="Wcircumflex" unicode="&#x174;" horiz-adv-x="1996" 
d="M1024 1833l-289 -137l-2 4l225 225h134l225 -225l-2 -4zM1464 1530h-159l-183 -545l217 -700l451 1245h-223v6h409v-6h-178l-561 -1550h-6l-238 768l-291 -768h-6l-481 1550h-184v6h1433v-6zM809 285l180 475l-239 770h-330zM954 1530l164 -531l178 531h-342z" />
    <glyph glyph-name="wcircumflex" unicode="&#x175;" horiz-adv-x="1525" 
d="M797 1239l-289 -137l-2 4l225 225h133l226 -225l-3 -4zM532 223l324 740h6l223 -703l226 676h-203v6h399v-6h-188l-320 -956h-6l-252 704l-307 -704h-6l-311 956h-117v6h475v-6h-166z" />
    <glyph glyph-name="Ycircumflex" unicode="&#x176;" horiz-adv-x="1454" 
d="M752 1833l-289 -137l-2 4l225 225h133l225 -225l-2 -4zM471 6h184v731l-477 793h-147v6h594v-6h-222l443 -739l397 739h-239v6h430v-6h-183l-401 -746v-778h205v-6h-584v6z" />
    <glyph glyph-name="ycircumflex" unicode="&#x177;" horiz-adv-x="1081" 
d="M612 1239l-288 -137l-2 4l225 225h133l225 -225l-2 -4zM399 -436l162 397l-467 975h-94v6h457v-6h-158l360 -737l302 737h-177v6h320v-6h-135l-547 -1342q-32 -73 -60.5 -104t-82.5 -31q-44 0 -79.5 28.5t-35.5 82.5q0 51 31 83t81 32q49 0 82 -32.5t41 -88.5z" />
    <glyph glyph-name="Ydieresis" unicode="&#x178;" horiz-adv-x="1454" 
d="M834 1802q0 51 35.5 87t86.5 36t87 -36t36 -87t-36 -87t-87 -36t-86.5 36t-35.5 87zM424 1802q0 51 36 87t87 36t87 -36t36 -87t-36 -87t-87 -36t-87 36t-36 87zM471 6h184v731l-477 793h-147v6h594v-6h-222l443 -739l397 739h-239v6h430v-6h-183l-401 -746v-778h205v-6
h-584v6z" />
    <glyph glyph-name="Zacute" unicode="&#x179;" horiz-adv-x="1146" 
d="M805 1702l-502 -4l-2 4l483 137q40 11 66.5 -11.5t26.5 -55.5q0 -29 -21.5 -49.5t-50.5 -20.5zM72 1536h983v-6l-809 -1524h461q204 0 283 90t79 293h6v-389h-1044v6l809 1524h-400q-202 0 -282 -84t-80 -258h-6v348z" />
    <glyph glyph-name="zacute" unicode="&#x17a;" horiz-adv-x="901" 
d="M698 1108l-501 -4l-2 4l483 137q40 11 66 -11.5t26 -55.5q0 -29 -21.5 -49.5t-50.5 -20.5zM391 936q-85 0 -144 -24.5t-92 -72t-47 -107.5t-14 -142h-6v352h739v-6l-575 -930h258q105 0 172.5 21.5t105 70t52 113.5t14.5 166h6v-377h-829v6l573 930h-213z" />
    <glyph glyph-name="Zdotaccent" unicode="&#x17b;" horiz-adv-x="1146" 
d="M461 1802q0 51 36 87t87 36t87 -36t36 -87t-36 -87t-87 -36t-87 36t-36 87zM72 1536h983v-6l-809 -1524h461q204 0 283 90t79 293h6v-389h-1044v6l809 1524h-400q-202 0 -282 -84t-80 -258h-6v348z" />
    <glyph glyph-name="zdotaccent" unicode="&#x17c;" horiz-adv-x="901" 
d="M354 1208q0 51 36 87t87 36t87 -36t36 -87t-36 -87t-87 -36t-87 36t-36 87zM391 936q-85 0 -144 -24.5t-92 -72t-47 -107.5t-14 -142h-6v352h739v-6l-575 -930h258q105 0 172.5 21.5t105 70t52 113.5t14.5 166h6v-377h-829v6l573 930h-213z" />
    <glyph glyph-name="Zcaron" unicode="&#x17d;" horiz-adv-x="1146" 
d="M582 1772l288 135l4 -2l-225 -226h-133l-225 226l4 2zM72 1536h983v-6l-809 -1524h461q204 0 283 90t79 293h6v-389h-1044v6l809 1524h-400q-202 0 -282 -84t-80 -258h-6v348z" />
    <glyph glyph-name="zcaron" unicode="&#x17e;" horiz-adv-x="901" 
d="M477 1178l289 135l4 -2l-225 -226h-133l-226 226l4 2zM391 936q-85 0 -144 -24.5t-92 -72t-47 -107.5t-14 -142h-6v352h739v-6l-575 -930h258q105 0 172.5 21.5t105 70t52 113.5t14.5 166h6v-377h-829v6l573 930h-213z" />
    <glyph glyph-name="uni0212" unicode="&#x212;" horiz-adv-x="1423" 
d="M508 1679h-6q0 41 5.5 76t21 71t39.5 61t65 41t94 16t94 -16t65 -41t39.5 -61t21 -71t5.5 -76h-6q0 71 -65 111.5t-154 40.5t-154 -40.5t-65 -111.5zM41 6h225v1524h-225v6h676q241 0 376.5 -93t135.5 -286q0 -179 -107.5 -267t-320.5 -102q101 -6 174 -37t113 -78
t64 -106t31 -123t8.5 -127t2.5 -120t7.5 -100.5t28 -69t60.5 -25.5q59 0 111 25l2 -4q-61 -33 -184 -33q-69 0 -116.5 22.5t-71.5 60.5t-38 89t-15.5 108.5t-4.5 117.5t-5.5 117.5t-18 108.5t-41.5 89t-77 60.5t-124 22.5h-246v-780h225v-6h-645v6zM717 1530h-256v-739h256
q146 0 226.5 98.5t80.5 267.5q0 170 -81 271.5t-226 101.5z" />
    <glyph glyph-name="uni0213" unicode="&#x213;" horiz-adv-x="813" 
d="M238 1085h-7q0 52 10 95t33.5 83.5t70 63.5t112.5 23q53 0 94 -16t65 -41t39.5 -61t21 -71t5.5 -76h-6q0 71 -65 111.5t-154 40.5t-154 -40.5t-65 -111.5zM41 6h125v930h-125v6h309v-330q6 76 21.5 135.5t44.5 110t77 78t113 27.5q74 0 131.5 -47t57.5 -119
q0 -55 -31 -90t-88 -35q-54 0 -87.5 28.5t-33.5 83.5q0 57 43.5 91.5t98.5 26.5t83 -60q-20 56 -69 85t-105 29q-54 0 -96 -19.5t-69.5 -57t-46 -82.5t-28 -104.5t-13 -114.5t-3.5 -121v-451h123v-6h-432v6z" />
    <glyph glyph-name="uni0218" unicode="&#x218;" horiz-adv-x="1146" 
d="M98 -20h-6v419h6q18 -94 54 -168.5t92.5 -132.5t141 -89.5t192.5 -31.5q167 0 265.5 88t98.5 252q0 67 -28.5 122.5t-76.5 95t-110 74t-130.5 65.5t-137.5 64t-131 74t-110 90.5t-76.5 120t-28.5 155.5q0 109 58.5 196.5t155 134.5t210.5 47q214 0 331 -135l109 135h6
v-419h-6q-30 206 -140.5 307.5t-279.5 101.5q-145 0 -223 -72t-78 -196q0 -60 27.5 -110t74.5 -86.5t107.5 -69t128 -64t134.5 -65t127.5 -78t107.5 -98t74.5 -129.5t27.5 -168q0 -200 -127.5 -320.5t-343.5 -120.5q-256 0 -387 160zM477 -274q0 51 39.5 85.5t97.5 34.5
q64 0 104 -53t40 -160q0 -74 -32 -143.5t-99 -117.5t-154 -48v4q90 0 160 53.5t100 146.5t6 200q-10 -53 -45 -88t-88 -35q-63 0 -96 33.5t-33 87.5z" />
    <glyph glyph-name="uni0219" unicode="&#x219;" horiz-adv-x="860" 
d="M88 -20h-6v286h6q3 -74 53.5 -138.5t130 -102t166.5 -37.5q67 0 121 17t92.5 61.5t38.5 113.5q0 41 -20 73t-54 52t-77.5 36.5t-92 31t-97 31t-92 40t-77.5 54.5t-54 79t-20 109q0 51 18 98.5t52 87.5t90.5 64.5t126.5 24.5q139 0 242 -89l92 91h4v-287h-6
q0 103 -96.5 190.5t-233.5 87.5q-91 0 -150 -41t-59 -114q0 -49 34 -85t88 -59t119 -43t130.5 -45t119.5 -58t88 -88.5t34 -129.5q0 -136 -100 -223.5t-250 -87.5q-153 0 -265 94zM311 -203q0 51 40 86t98 35q64 0 103.5 -53t39.5 -160q0 -74 -32 -143.5t-99 -117.5
t-154 -48v4q90 0 160 53.5t100 146t6 199.5q-10 -53 -45 -88t-88 -35q-63 0 -96 33.5t-33 87.5z" />
    <glyph glyph-name="uni0237" unicode="&#x237;" horiz-adv-x="583" 
d="M420 942v-967q0 -87 -7.5 -156.5t-29 -137t-57 -113t-93.5 -73t-135 -27.5q-119 0 -185.5 65t-66.5 158q0 60 34 93.5t83 33.5q45 0 80 -27.5t35 -83.5q0 -58 -36 -86.5t-93 -28.5q-33 0 -60.5 24.5t-33.5 55.5q0 -77 64.5 -136.5t168.5 -59.5q30 0 53.5 10t39.5 31.5
t27 46.5t17.5 62.5t9.5 71t3.5 82t0 84.5t-1.5 89.5t-1 87.5v895h-185v6h369z" />
    <glyph glyph-name="circumflex" unicode="&#x2c6;" horiz-adv-x="788" 
d="M393 1485l-289 -137l-2 4l226 225h133l225 -225l-2 -4z" />
    <glyph glyph-name="caron" unicode="&#x2c7;" horiz-adv-x="788" 
d="M393 1464l289 135l4 -2l-225 -225h-133l-226 225l4 2z" />
    <glyph glyph-name="breve" unicode="&#x2d8;" horiz-adv-x="573" 
d="M68 1554q0 -71 64.5 -111t154.5 -40t154.5 40t64.5 111h6q0 -52 -10 -95t-33 -83t-69.5 -63t-112.5 -23t-112.5 23t-70 63t-33.5 83t-10 95h7z" />
    <glyph glyph-name="dotaccent" unicode="&#x2d9;" horiz-adv-x="409" 
d="M82 1352q0 51 36 87t87 36t87 -36t36 -87t-36 -87t-87 -36t-87 36t-36 87z" />
    <glyph glyph-name="ring" unicode="&#x2da;" horiz-adv-x="655" 
d="M143 1393q0 78 53.5 131t131.5 53t131 -53t53 -131t-53 -131.5t-131 -53.5t-131.5 53.5t-53.5 131.5zM215 1393q0 -179 113 -179q112 0 112 179q0 178 -112 178q-113 0 -113 -178z" />
    <glyph glyph-name="ogonek" unicode="&#x2db;" horiz-adv-x="1126" 
d="M795 -231q-15 -28 -30.5 -48.5t-43.5 -46.5t-69.5 -40.5t-92.5 -14.5q-55 0 -103.5 17.5t-83 59t-34.5 99.5t26 108t70.5 85.5t90.5 59t98 40.5l4 -4q-47 -26 -73 -94t-26 -164q0 -73 32.5 -120.5t84.5 -47.5q35 0 63 17t43.5 37t39.5 59z" />
    <glyph glyph-name="tilde" unicode="&#x2dc;" horiz-adv-x="917" 
d="M252 1370q-59 0 -101 -34t-42 -107h-7q0 123 60.5 191.5t142.5 68.5q48 0 100.5 -25.5t90.5 -55.5t85 -55.5t85 -25.5q70 0 106.5 32.5t36.5 108.5h6q0 -142 -44 -201t-138 -59q-46 0 -99.5 25.5t-94 55.5t-92.5 55.5t-95 25.5z" />
    <glyph glyph-name="pi" unicode="&#x3c0;" horiz-adv-x="1189" 
d="M213 -20q-59 0 -90 28t-31 70q0 28 12.5 49.5t33 39t45 36.5t49 49t45 69t33 103.5t12.5 146.5v187h-232v-154h-6v338h993v-184h-184v-590q0 -32 20 -53t56 -21q44 0 78 27.5t65 93.5l6 -4q-37 -113 -90 -172t-131 -59q-79 0 -133.5 42.5t-54.5 127.5v608h-273v-260
q0 -243 -59.5 -380.5t-163.5 -137.5z" />
    <glyph glyph-name="uni1E9E" unicode="&#x1e9e;" horiz-adv-x="1640" 
d="M31 6h184v897q0 203 97 352.5t261.5 225t374.5 75.5q110 0 207 -21t163.5 -55t109 -64.5t69.5 -61.5l-422 -516q119 -14 207.5 -47t140.5 -75t83.5 -98.5t42 -110t10.5 -118.5q0 -193 -143.5 -301t-368.5 -108q-105 0 -188 26t-133 69t-75.5 95t-25.5 109q0 62 34 97.5
t89 35.5q48 0 79 -30.5t31 -84.5q0 -48 -35.5 -80.5t-81.5 -32.5q-39 0 -71.5 26t-38.5 56q2 -108 104.5 -191t270.5 -83q88 0 155 34.5t105 92.5t56.5 126t18.5 144q0 40 -2.5 73.5t-13.5 82.5t-29.5 87.5t-54.5 80t-84.5 68.5t-123 45t-167.5 18v6l488 602
q-190 98 -406 98q-104 0 -191.5 -35.5t-148.5 -98t-104 -147t-63.5 -182t-20.5 -204.5v-877h184v-6h-573v6z" />
    <glyph glyph-name="uni2010" unicode="&#x2010;" horiz-adv-x="737" 
d="M123 565h491v-4h-491v4z" />
    <glyph glyph-name="uni2011" unicode="&#x2011;" horiz-adv-x="587" 
d="M123 565h342v-4h-342v4z" />
    <glyph glyph-name="figuredash" unicode="&#x2012;" horiz-adv-x="911" 
d="M123 565h665v-4h-665v4z" />
    <glyph glyph-name="endash" unicode="&#x2013;" horiz-adv-x="823" 
d="M123 565h577v-4h-577v4z" />
    <glyph glyph-name="emdash" unicode="&#x2014;" horiz-adv-x="1083" 
d="M121 565h840v-4h-840v4z" />
    <glyph glyph-name="uni2015" unicode="&#x2015;" horiz-adv-x="1171" 
d="M123 565h926v-4h-926v4z" />
    <glyph glyph-name="quoteleft" unicode="&#x2018;" horiz-adv-x="440" 
d="M358 1178q0 -51 -39.5 -86t-97.5 -35q-64 0 -103.5 53t-39.5 160q0 74 31.5 143.5t98.5 117.5t154 48v-4q-90 0 -160 -53.5t-100 -146t-6 -199.5q10 52 45 87t88 35q63 0 96 -33t33 -87z" />
    <glyph glyph-name="quoteright" unicode="&#x2019;" horiz-adv-x="440" 
d="M82 1456q0 51 39.5 86t97.5 35q64 0 103.5 -53t39.5 -160q0 -74 -31.5 -143.5t-98.5 -117.5t-154 -48v4q90 0 160 53.5t100 146t6 199.5q-10 -53 -45 -88t-88 -35q-63 0 -96 33.5t-33 87.5z" />
    <glyph glyph-name="quotedblleft" unicode="&#x201c;" horiz-adv-x="839" 
d="M758 1178q0 -51 -39.5 -86t-97.5 -35q-64 0 -104 53t-40 160q0 74 32 143.5t99 117.5t154 48v-4q-90 0 -160 -53.5t-100 -146t-6 -199.5q10 52 45 87t88 35q63 0 96 -33t33 -87zM358 1178q0 -51 -39.5 -86t-97.5 -35q-64 0 -103.5 53t-39.5 160q0 74 31.5 143.5
t98.5 117.5t154 48v-4q-90 0 -160 -53.5t-100 -146t-6 -199.5q10 52 45 87t88 35q63 0 96 -33t33 -87z" />
    <glyph glyph-name="quotedblright" unicode="&#x201d;" horiz-adv-x="839" 
d="M82 1456q0 51 39.5 86t97.5 35q64 0 103.5 -53t39.5 -160q0 -74 -31.5 -143.5t-98.5 -117.5t-154 -48v4q90 0 160 53.5t100 146t6 199.5q-10 -53 -45 -88t-88 -35q-63 0 -96 33.5t-33 87.5zM481 1456q0 51 39.5 86t97.5 35q64 0 104 -53t40 -160q0 -74 -32 -143.5
t-99 -117.5t-154 -48v4q90 0 160 53.5t100 146t6 199.5q-10 -53 -45 -88t-88 -35q-63 0 -96 33.5t-33 87.5z" />
    <glyph glyph-name="perthousand" unicode="&#x2030;" horiz-adv-x="3010" 
d="M72 1106q0 213 114.5 331.5t294.5 118.5t295 -118.5t115 -331.5q0 -105 -37 -193t-97 -143t-131.5 -85t-144.5 -30q-180 0 -294.5 119t-114.5 332zM297 1106q0 -444 184 -444q185 0 185 444t-185 444q-184 0 -184 -444zM1559 1536h8l-1078 -1536h-8zM2120 430
q0 213 114.5 332t294.5 119t295 -119t115 -332q0 -105 -37 -193t-97 -142.5t-131.5 -84.5t-144.5 -30q-180 0 -294.5 118.5t-114.5 331.5zM1157 430q0 213 115 332t295 119t294.5 -119t114.5 -332q0 -105 -37 -193t-96.5 -142.5t-131 -84.5t-144.5 -30q-180 0 -295 118.5
t-115 331.5zM2345 430q0 -444 184 -444q185 0 185 444t-185 444q-184 0 -184 -444zM1382 430q0 -444 185 -444q184 0 184 444t-184 444q-185 0 -185 -444z" />
    <glyph glyph-name="uni2031" unicode="&#x2031;" horiz-adv-x="3993" 
d="M72 1106q0 213 114.5 331.5t294.5 118.5t295 -118.5t115 -331.5q0 -105 -37 -193t-97 -143t-131.5 -85t-144.5 -30q-180 0 -294.5 119t-114.5 332zM297 1106q0 -444 184 -444q185 0 185 444t-185 444q-184 0 -184 -444zM1559 1536h8l-1078 -1536h-8zM3103 430
q0 213 114.5 332t294.5 119t295 -119t115 -332q0 -105 -37 -193t-97 -142.5t-131.5 -84.5t-144.5 -30q-180 0 -294.5 118.5t-114.5 331.5zM2120 430q0 213 114.5 332t294.5 119t295 -119t115 -332q0 -105 -37 -193t-97 -142.5t-131.5 -84.5t-144.5 -30q-180 0 -294.5 118.5
t-114.5 331.5zM1157 430q0 213 115 332t295 119t294.5 -119t114.5 -332q0 -105 -37 -193t-96.5 -142.5t-131 -84.5t-144.5 -30q-180 0 -295 118.5t-115 331.5zM3328 430q0 -444 184 -444q185 0 185 444t-185 444q-184 0 -184 -444zM2345 430q0 -444 184 -444q185 0 185 444
t-185 444q-184 0 -184 -444zM1382 430q0 -444 185 -444q184 0 184 444t-184 444q-185 0 -185 -444z" />
    <glyph glyph-name="uni203D" unicode="&#x203d;" horiz-adv-x="1228" 
d="M143 1108q0 72 36.5 149.5t100.5 144.5t166.5 110.5t221.5 43.5q232 0 365.5 -115t133.5 -315q0 -119 -72.5 -221.5t-186.5 -160.5t-238 -58q-21 -67 -30.5 -99t-19.5 -79.5t-10 -81.5h-4q0 78 -44 279t-54 286q-2 14 -2 39q0 24 6 48.5t19 49.5t38.5 40.5t59.5 15.5
t59.5 -15.5t38.5 -40.5t19 -49.5t6 -48.5q0 -25 -2 -39q-9 -88 -76 -299q85 12 156.5 81.5t111 169.5t39.5 204q0 98 -42.5 186.5t-126.5 146.5t-191 58q-98 0 -187.5 -41t-149 -102.5t-94.5 -131.5t-36 -130q10 32 37 53.5t69 21.5q47 0 82 -30.5t35 -81.5q0 -56 -36 -85.5
t-81 -29.5q-49 0 -83 33.5t-34 93.5zM489 102q0 51 36 87t87 36t87 -36t36 -87t-36 -86.5t-87 -35.5t-87 35.5t-36 86.5z" />
    <glyph glyph-name="uni203E" unicode="&#x203e;" horiz-adv-x="737" 
d="M-10 1620h758v-4h-758v4z" />
    <glyph glyph-name="Euro" unicode="&#x20ac;" horiz-adv-x="1454" 
d="M61 596h209q-14 96 -14 172q0 74 8 131h-203v4h203q26 185 115 332t235.5 234t325.5 87q89 0 167.5 -31t127.5 -76.5t77.5 -95.5t28.5 -91q0 -60 -33.5 -93.5t-82.5 -33.5q-45 0 -81 29t-36 85q0 51 35 82t82 31q41 0 70.5 -23t37.5 -45q-8 38 -37.5 81t-76 82.5t-115 65
t-143.5 25.5q-109 0 -195 -55t-140 -149t-85.5 -204.5t-42.5 -236.5h465v-4h-465q-6 -68 -6 -131q0 -80 10 -172h461v-4h-461q20 -168 72.5 -302t140 -217t196.5 -83q78 0 148.5 30.5t123.5 83t91 119.5t57 142h6q-21 -77 -58.5 -144.5t-92.5 -122.5t-132 -86.5t-167 -31.5
q-135 0 -262.5 74t-223.5 215.5t-129 322.5h-211v4z" />
    <glyph glyph-name="uni2116" unicode="&#x2116;" horiz-adv-x="2224" 
d="M1475 1167q0 182 94.5 285.5t251.5 103.5t251.5 -103.5t94.5 -285.5t-94.5 -285.5t-251.5 -103.5t-251.5 103.5t-94.5 285.5zM1649 1167q0 -383 172 -383t172 383t-172 383t-172 -383zM41 6h203v1524h-203v6h440l762 -1225v1219h-244v6h465v-6h-215v-1550h-6l-993 1550
v-1524h248v-6h-457v6zM1575 647h491v-4h-491v4z" />
    <glyph glyph-name="uniF8E8" unicode="&#xf8e8;" horiz-adv-x="1310" 
d="M172 1157q0 97 37.5 184.5t100.5 150.5t150.5 100.5t184.5 37.5t184.5 -37.5t150.5 -100.5t100.5 -150.5t37.5 -184.5t-37.5 -184.5t-100.5 -150.5t-150.5 -100.5t-184.5 -37.5t-184.5 37.5t-150.5 100.5t-100.5 150.5t-37.5 184.5zM176 1157q0 -195 137 -332t332 -137
t332 137t137 332t-137 332t-332 137t-332 -137t-137 -332zM418 881h82v549h-82v2h244q87 0 135.5 -34t48.5 -104q0 -124 -156 -133q53 -3 85.5 -25t42 -53.5t13 -67t2 -66t6.5 -50.5t29 -20q19 0 39 8q-22 -13 -65 -13q-47 0 -67 29.5t-21 71.5t-2 84.5t-23 72t-72 29.5h-88
v-280h80v-2h-231v2zM662 1430h-93v-267h93q52 0 81 35t29 96t-29 98.5t-81 37.5z" />
    <glyph glyph-name="uniF8E9" unicode="&#xf8e9;" horiz-adv-x="1187" 
d="M111 1157q0 97 37.5 184.5t100.5 150.5t150.5 100.5t184.5 37.5t184.5 -37.5t150.5 -100.5t100.5 -150.5t37.5 -184.5t-37.5 -184.5t-100.5 -150.5t-150.5 -100.5t-184.5 -37.5t-184.5 37.5t-150.5 100.5t-100.5 150.5t-37.5 184.5zM115 1157q0 -195 137 -332t332 -137
t332 137t137 332t-137 332t-332 137t-332 -137t-137 -332zM774 1032v-151h-2l-41 45q-51 -54 -137 -54q-112 0 -182 80.5t-70 204.5t70 204.5t182 80.5q73 0 127 -51l43 43h2v-152h-2q0 66 -49.5 110t-114.5 44q-60 0 -100.5 -43t-56 -103t-15.5 -133t15.5 -133t56 -102.5
t100.5 -42.5q75 0 123.5 44.5t48.5 108.5h2z" />
    <glyph glyph-name="uniF8EA" unicode="&#xf8ea;" horiz-adv-x="1263" 
d="M608 999h54v549h-58v2h129l170 -458l162 458h123v-2h-53v-549h53v-2h-182v2h59v549l-197 -559h-2l-202 557v-547h57v-2h-113v2zM190 999h80v549h-73q-60 0 -84.5 -43t-24.5 -121h-2v166h438v-166h-2q0 79 -23.5 121.5t-84.5 42.5h-74v-549h82v-2h-232v2z" />
    <glyph glyph-name="J.alt" horiz-adv-x="1107" 
d="M432 1536h645v-6h-205v-957q0 -125 -31 -231.5t-90.5 -188t-154.5 -127.5t-215 -46q-86 0 -153.5 29t-107 76.5t-59.5 101.5t-20 110q0 91 46.5 143t111.5 52q59 0 97 -33t38 -99q0 -53 -42.5 -91t-96.5 -38q-52 0 -95.5 21.5t-50.5 60.5q-8 -133 83.5 -230t248.5 -97
q72 0 126 28t86 74t51.5 116t26.5 142.5t7 165.5v1018h-246v6z" />
    <glyph glyph-name="four.alt" horiz-adv-x="1218" 
d="M39 385h698v594q45 0 104 13t91 28v-635h184v-6h-184v-373h153v-6h-153v-2h-195v2h-194v6h194v373h-706l108 153t112.5 159.5t104 151.5t101.5 155t85 143.5t74.5 144t50 128t29.5 122.5h201q-11 -84 -74.5 -193t-163 -229t-203 -235t-223 -253t-194.5 -241z" />
    <glyph glyph-name="R.alt" horiz-adv-x="1382" 
d="M41 6h225v1524h-225v6h676q241 0 376.5 -93t135.5 -286q0 -179 -107.5 -267t-320.5 -102q101 -6 175 -37t115 -77.5t66 -105.5t33 -122.5t10.5 -126.5t3 -119t6.5 -99.5t25 -69t55 -25.5h72v-6h-143q-76 0 -127 27t-75 72.5t-35.5 104.5t-14 124l-5 130t-14.5 124
t-36.5 104.5t-76 72.5t-128.5 27h-246v-780h225v-6h-645v6zM717 1530h-256v-739h256q146 0 226.5 98.5t80.5 267.5q0 170 -81 271.5t-226 101.5z" />
    </font>
</defs>
</svg>
